<?xml version="1.0" encoding="UTF-8"?>
<svg xmlns="http://www.w3.org/2000/svg" width="90" height="90" viewBox="0 0 90 90" fill="none">
  <g clip-path="url(#clip0_8174_2)">
    <path d="M61.2 0H0V61.5L28.5 90H90V28.8L61.2 0Z" fill="white"></path>
    <path d="M60.45 1.88L88.13 29.56V88.13H29.25L1.88 60.75V1.88H60.45ZM61.2 0H0V61.5L28.5 90H90V28.8L61.2 0Z" fill="#242E3D"></path>
    <path d="M14.6202 50.7001V54.0001H12.7402V45.0001H16.1902C17.0102 44.9301 17.7602 45.2301 18.4402 45.7501C19.5602 46.9501 19.5602 48.7501 18.4402 49.9501C17.8402 50.4801 17.0102 50.7701 16.1902 50.7001H14.6202ZM14.6202 49.2701H15.9702C16.3502 49.2701 16.7202 49.2001 16.9402 48.8901C17.3902 48.2901 17.3902 47.3901 16.9402 46.7901C16.6402 46.5601 16.3402 46.4101 15.9702 46.4101H14.6202V49.2601V49.2701ZM27.1502 54.0001L26.5502 51.9801H23.4802L22.8802 54.0001H20.8602L24.0102 45.0001H26.1902L29.2602 54.0001H27.1602H27.1502ZM23.8502 50.5501H26.1002L24.9802 46.8001L23.8602 50.5501H23.8502ZM31.9502 54.0001V45.0001H35.4002C36.2302 44.9301 36.9802 45.2301 37.6502 45.7501C38.1802 46.2701 38.4802 47.0201 38.4802 47.7701C38.4802 48.3001 38.3302 48.7501 38.0302 49.2001C37.7302 49.6501 37.2802 49.9501 36.8302 50.1801L39.0802 54.0801H37.0602L35.1102 50.5601H33.8302V54.0101H31.9502V54.0001ZM33.8202 49.1201H35.1702C35.8502 49.1901 36.4402 48.7401 36.5202 48.0701V47.6901C36.6002 47.0101 36.1402 46.4201 35.5502 46.3401H33.9002V49.1101H33.8302L33.8202 49.1201ZM43.6502 54.0001V46.5701H40.8802V45.0001H48.3102V46.5701H45.5302V54.0001H43.6602H43.6502ZM53.0202 47.7701V54.0001H51.3002V45.0001H53.4002L57.0802 51.3001V45.0001H58.8102V54.0001H56.7102L53.0302 47.7701H53.0202ZM62.2502 54.0001V45.0001H68.1802V46.5001H64.2002V48.6001H67.4302V50.1001H64.2002V52.5001H68.1802V54.0001H62.2502ZM71.6202 54.0001V45.0001H75.0702C75.8902 44.9301 76.6402 45.2301 77.3202 45.7501C77.8502 46.2701 78.1402 47.0201 78.1402 47.7701C78.1402 48.3001 77.9902 48.7501 77.6902 49.2001C77.3902 49.6501 76.9402 49.9501 76.4902 50.1801L78.7402 54.0801H76.7202L74.7702 50.5601H73.5002V54.0101H71.6202V54.0001ZM73.5002 49.1201H74.8502C75.5202 49.1901 76.1202 48.7401 76.2002 48.0701V47.6901C76.2702 47.0101 75.8202 46.4201 75.2302 46.3401H73.5002V49.1101V49.1201Z" fill="#242E3D"></path>
    <path d="M20.0202 20.6201C20.0202 20.9201 20.0202 21.2201 20.1702 21.5201C20.2402 21.7501 20.3902 22.0501 20.4702 22.2701C20.5402 22.3501 20.5402 22.4201 20.5402 22.5001C20.5402 22.6501 20.4702 22.7301 20.3102 22.8001L19.6302 23.2501H19.4102C19.2602 23.2501 19.1802 23.1801 19.1102 23.1001C18.9602 22.9501 18.8102 22.8001 18.7302 22.6501C18.6602 22.5001 18.5002 22.2701 18.4302 22.0501C17.6802 22.9501 16.6302 23.4801 15.4302 23.4801C14.6802 23.5501 13.9302 23.2501 13.4102 22.7301C12.8802 22.2001 12.6602 21.5301 12.6602 20.7801C12.6602 19.9601 12.9602 19.2101 13.5602 18.6801C14.2402 18.1501 15.1302 17.8601 16.0402 17.8601C16.4202 17.8601 16.7902 17.8601 17.0902 17.9301L18.2102 18.1501V17.4001C18.2802 16.8001 18.1302 16.2001 17.7602 15.7501C17.3102 15.3701 16.7102 15.2301 16.1102 15.3001C15.7302 15.3001 15.3602 15.3701 14.9902 15.4501C14.6202 15.5301 14.2402 15.6801 13.8702 15.8301C13.7202 15.9001 13.6402 15.9001 13.4902 15.9801H13.3402C13.1902 15.9801 13.1102 15.9001 13.1102 15.6801V15.1501C13.1102 15.0001 13.1102 14.9301 13.1802 14.7701C13.2502 14.7001 13.3302 14.6201 13.4802 14.5501C13.8602 14.3201 14.3002 14.1701 14.7502 14.1001C15.2802 13.9501 15.8002 13.8701 16.3302 13.8701C17.3002 13.8001 18.2102 14.1001 18.9502 14.6901C19.5502 15.3701 19.8502 16.2601 19.7702 17.1701L19.9902 20.6201H20.0202ZM15.9002 22.1201C16.2802 22.1201 16.5802 22.0501 16.9502 21.9701C17.3302 21.8201 17.6302 21.5901 17.9302 21.2901C18.0802 21.1401 18.2302 20.9101 18.3102 20.6101C18.3902 20.3101 18.3802 20.0101 18.3802 19.7101V19.2601C18.0802 19.1901 17.7802 19.1101 17.4802 19.1101C17.1802 19.0401 16.8802 19.0401 16.5002 19.0401C15.9802 18.9701 15.4502 19.1101 15.0002 19.4201C14.4002 20.0201 14.3202 20.9901 14.8502 21.6701C15.1502 22.0501 15.5202 22.1901 15.9002 22.1201ZM24.0702 23.2501C23.9202 23.2501 23.7702 23.2501 23.6902 23.1801C23.6202 23.1101 23.5402 22.9501 23.4702 22.8001L21.0702 14.9201C21.0002 14.7701 21.0002 14.6201 21.0002 14.5401C21.0002 14.3901 21.0702 14.3101 21.1502 14.3101H22.2002C22.3502 14.3101 22.5002 14.3101 22.5802 14.3801C22.6502 14.4601 22.7302 14.6101 22.8102 14.7601L24.5302 21.4401L26.1102 14.7601C26.1102 14.6101 26.1802 14.4601 26.3302 14.3801C26.4802 14.3101 26.6302 14.3101 26.7102 14.3101H27.5302C27.6802 14.3101 27.8302 14.3101 27.9102 14.3801C27.9902 14.4601 28.0602 14.6101 28.1402 14.7601L29.7102 21.5901L31.4402 14.7601C31.4402 14.6101 31.5102 14.4601 31.6602 14.3801C31.8102 14.3101 31.8902 14.3101 32.0402 14.3101H33.0202C33.1702 14.3101 33.2502 14.3801 33.2502 14.4601V14.6801C33.2502 14.7501 33.1702 14.8301 33.1702 14.9101L30.7702 22.7101C30.7702 22.8601 30.7002 23.0101 30.5402 23.0901C30.4702 23.2401 30.3202 23.2401 30.1602 23.2401H29.2602C29.1102 23.2401 28.9602 23.2401 28.8802 23.1701C28.8102 23.0201 28.7302 22.9401 28.6502 22.7901L27.0802 16.2601L25.5102 22.7901C25.5102 22.9401 25.4402 23.0901 25.2802 23.1701C25.2102 23.2401 25.0602 23.2401 24.9802 23.2401H24.0802L24.0702 23.2501ZM37.1202 23.5501C36.6002 23.5501 36.0702 23.4801 35.5502 23.4001C35.1702 23.3301 34.7302 23.1801 34.3502 23.0201C34.1202 22.9501 33.9702 22.7201 33.9702 22.4201V21.8901C33.9702 21.6701 34.0402 21.5901 34.1902 21.5901H34.3402C34.4102 21.5901 34.4902 21.6601 34.5602 21.6601C34.9402 21.8101 35.3102 21.9601 35.6802 22.0401C36.0602 22.1101 36.5002 22.1901 36.8802 22.1901C37.4102 22.1901 37.9302 22.1201 38.3802 21.8101C38.6802 21.5901 38.9102 21.2101 38.9102 20.8401C38.9102 20.5401 38.8402 20.3101 38.6102 20.1601C38.3102 19.9301 37.9302 19.7101 37.5602 19.6301L36.0602 19.1801C35.4602 19.0301 34.8602 18.6601 34.4102 18.1301C34.1102 17.6801 33.8802 17.1601 33.8802 16.6301C33.8802 16.2501 33.9602 15.8801 34.1802 15.5101C34.3302 15.2101 34.6302 14.9101 34.9302 14.6901C35.2302 14.4701 35.6102 14.2401 35.9802 14.1701C36.4302 14.0201 36.8002 14.0201 37.2502 14.0201C37.4802 14.0201 37.7002 14.0201 37.9302 14.1001C38.1602 14.1001 38.3802 14.1701 38.6102 14.2501C38.8402 14.3301 38.9902 14.3201 39.2102 14.4001C39.3602 14.4801 39.5102 14.4801 39.6602 14.5501C39.8102 14.6201 39.8802 14.7001 39.9602 14.7701C40.0302 14.8501 40.0302 15.0001 40.0302 15.1501V15.6001C40.0302 15.8201 39.9602 15.9001 39.8002 15.9001C39.6402 15.9001 39.5002 15.8301 39.4202 15.7501C38.8202 15.4501 38.1502 15.3701 37.4702 15.3701C37.0202 15.3701 36.5702 15.4401 36.1202 15.6701C35.8202 15.8201 35.6002 16.1901 35.6702 16.5701C35.6702 16.8701 35.7402 17.1001 35.9702 17.3201C36.2702 17.6201 36.6502 17.7701 37.0902 17.8501L38.5202 18.3001C39.1202 18.4501 39.6402 18.8201 40.0902 19.2701C40.3902 19.6501 40.5402 20.1701 40.5402 20.7001C40.5402 21.0801 40.4702 21.5201 40.2402 21.9001C40.0902 22.2801 39.7902 22.5801 39.4902 22.8001C39.1902 23.0201 38.7402 23.2501 38.3702 23.4001C38.0702 23.4801 37.5502 23.5501 37.1002 23.5501H37.1202Z" fill="#242E3D"></path>
    <path d="M39.0001 28.4299C35.6201 30.8999 30.8201 32.1799 26.6201 32.1799C21.0701 32.1799 15.6701 30.1499 11.5501 26.3999C11.2501 26.0999 11.5501 25.7299 11.9301 25.9499C16.5001 28.6499 21.7501 29.9999 27.0001 29.9999C30.9801 29.9999 34.8801 29.1799 38.5501 27.6799C39.0701 27.4499 39.6001 28.0599 39.0001 28.4299ZM39.5201 30.6799C39.3701 30.9799 39.6701 31.1299 39.9701 30.8999C41.7701 29.3999 42.2201 26.2499 41.8501 25.7999C41.4701 25.3499 38.3201 24.9799 36.4501 26.3199C36.1501 26.5499 36.2301 26.8499 36.5201 26.7699C37.5701 26.6199 39.9701 26.3199 40.4201 26.9199C40.8701 27.5199 39.8901 29.6899 39.5201 30.6699V30.6799Z" fill="#FF9900"></path>
    <path d="M25.78 62.25L24.87 58.35L23.94 62.25H22.94L21.46 57.05H22.46L23.46 61.27L24.39 57.2H25.36L26.3 61.25L27.31 57.04H28.27L26.79 62.24H25.78V62.25Z" fill="#242E3D"></path>
    <path d="M29.5397 60.5501C29.5597 60.9301 29.6597 61.2101 29.8597 61.3901C30.0597 61.5601 30.3697 61.6501 30.7697 61.6501C31.1497 61.6501 31.5497 61.5901 31.9797 61.4501V62.0701C31.8097 62.1601 31.5997 62.2301 31.3697 62.2801C31.1397 62.3401 30.8897 62.3601 30.6397 62.3601C30.0197 62.3601 29.5397 62.1901 29.2097 61.8601C28.8797 61.5201 28.7197 61.0201 28.7197 60.3601C28.7197 59.7001 28.8797 59.2201 29.1997 58.8601C29.5197 58.5001 29.9697 58.3201 30.5397 58.3201C31.0297 58.3201 31.3997 58.4501 31.6597 58.7201C31.9197 58.9801 32.0597 59.3601 32.0597 59.8601C32.0597 60.1201 32.0397 60.3501 31.9897 60.5501H29.5397ZM30.4897 58.9701C30.2297 58.9701 29.9997 59.0601 29.8297 59.2401C29.6597 59.4201 29.5597 59.6601 29.5397 59.9701H31.2697V59.9101C31.2697 59.6101 31.1997 59.3701 31.0697 59.2201C30.9297 59.0601 30.7397 58.9701 30.4797 58.9701H30.4897Z" fill="#242E3D"></path>
    <path d="M34.4002 62.1899C34.2202 62.2599 34.0202 62.2999 33.8102 62.2999C33.5102 62.2999 33.2902 62.2199 33.1302 62.0499C32.9802 61.8799 32.9102 61.6399 32.9102 61.3099V56.6899H33.8002V61.2399C33.8002 61.3599 33.8202 61.4499 33.8702 61.5099C33.9202 61.5599 33.9902 61.5899 34.1002 61.5899C34.1902 61.5899 34.2802 61.5899 34.3902 61.5699V62.1899H34.4002Z" fill="#242E3D"></path>
    <path d="M36.6599 62.1899C36.4799 62.2599 36.2799 62.2999 36.0699 62.2999C35.7699 62.2999 35.5499 62.2199 35.3899 62.0499C35.2399 61.8799 35.1699 61.6399 35.1699 61.3099V56.6899H36.0599V61.2399C36.0599 61.3599 36.0799 61.4499 36.1299 61.5099C36.1799 61.5599 36.2499 61.5899 36.3599 61.5899C36.4499 61.5899 36.5399 61.5899 36.6499 61.5699V62.1899H36.6599Z" fill="#242E3D"></path>
    <path d="M39.5197 59.9299H37.2197V60.6899H39.5197V59.9299Z" fill="#242E3D"></path>
    <path d="M43.7002 62.25L43.2702 60.9501H41.2802L40.8602 62.25H39.9102L41.8002 57.05H42.8002L44.6902 62.25H43.7202H43.7002ZM41.4902 60.28H43.0602L42.2702 57.8801L41.4902 60.28Z" fill="#242E3D"></path>
    <path d="M45.2695 62.2499V58.4299H46.0095L46.1295 58.9999C46.3295 58.7799 46.5195 58.6299 46.6895 58.5399C46.8595 58.4499 47.0495 58.3999 47.2595 58.3999C47.3495 58.3999 47.4495 58.3999 47.5595 58.4199V59.2299C47.4195 59.2099 47.2695 59.1999 47.1295 59.1999C46.7595 59.1999 46.4395 59.2899 46.1595 59.4799V62.2499H45.2695Z" fill="#242E3D"></path>
    <path d="M50.8497 62.1001C50.5497 62.2601 50.1997 62.3301 49.7997 62.3301C49.2097 62.3301 48.7597 62.1601 48.4397 61.8301C48.1297 61.4901 47.9697 61.0101 47.9697 60.3801C47.9697 59.7501 48.1297 59.2401 48.4597 58.8901C48.7897 58.5301 49.2497 58.3501 49.8297 58.3501C50.1897 58.3501 50.5197 58.4301 50.8297 58.5701V59.2001C50.4897 59.1001 50.2097 59.0501 49.9697 59.0501C49.5897 59.0501 49.3197 59.1501 49.1397 59.3501C48.9597 59.5501 48.8697 59.8701 48.8697 60.3001V60.3901C48.8697 60.8101 48.9597 61.1301 49.1397 61.3301C49.3197 61.5301 49.5997 61.6201 49.9697 61.6201C50.2297 61.6201 50.5297 61.5701 50.8497 61.4701V62.0901V62.1001Z" fill="#242E3D"></path>
    <path d="M54.1804 62.25V59.72C54.1804 59.48 54.1304 59.3 54.0304 59.19C53.9304 59.07 53.7704 59.02 53.5504 59.02C53.2204 59.02 52.8904 59.13 52.5404 59.35V62.26H51.6504V56.71H52.5404V58.82C53.0004 58.5 53.4704 58.34 53.9504 58.34C54.3204 58.34 54.6004 58.44 54.7804 58.63C54.9704 58.82 55.0604 59.09 55.0604 59.46V62.26H54.1804V62.25Z" fill="#242E3D"></path>
    <path d="M56.1498 62.25V58.43H57.0298V62.25H56.1498ZM56.5798 57.8C56.4198 57.8 56.2898 57.76 56.1898 57.67C56.0998 57.58 56.0498 57.45 56.0498 57.29C56.0498 57.13 56.0998 57 56.1898 56.91C56.2798 56.82 56.4098 56.77 56.5798 56.77C56.7498 56.77 56.8898 56.82 56.9798 56.91C57.0698 57 57.1198 57.12 57.1198 57.29C57.1198 57.46 57.0698 57.57 56.9798 57.67C56.8898 57.76 56.7498 57.8 56.5798 57.8Z" fill="#242E3D"></path>
    <path d="M60.3404 62.1599C60.0804 62.2499 59.8104 62.2999 59.5104 62.2999C59.1104 62.2999 58.8104 62.2099 58.6204 62.0299C58.4304 61.8399 58.3404 61.5599 58.3404 61.1699V59.1099H57.6904V58.5499L58.3704 58.4599L58.5004 57.3899H59.2304V58.4299H60.3204V59.1099H59.2304V61.1399C59.2304 61.2999 59.2704 61.4299 59.3504 61.4999C59.4404 61.5699 59.5804 61.6099 59.7704 61.6099C59.9804 61.6099 60.1704 61.5999 60.3404 61.5499V62.1599Z" fill="#242E3D"></path>
    <path d="M61.6804 60.5501C61.7004 60.9301 61.8004 61.2101 62.0004 61.3901C62.2004 61.5601 62.5104 61.6501 62.9104 61.6501C63.2904 61.6501 63.6904 61.5901 64.1204 61.4501V62.0701C63.9504 62.1601 63.7403 62.2301 63.5103 62.2801C63.2803 62.3401 63.0303 62.3601 62.7803 62.3601C62.1603 62.3601 61.6803 62.1901 61.3503 61.8601C61.0203 61.5201 60.8604 61.0201 60.8604 60.3601C60.8604 59.7001 61.0204 59.2201 61.3404 58.8601C61.6604 58.5001 62.1104 58.3201 62.6804 58.3201C63.1604 58.3201 63.5404 58.4501 63.8004 58.7201C64.0604 58.9801 64.2003 59.3601 64.2003 59.8601C64.2003 60.1201 64.1803 60.3501 64.1303 60.5501H61.6804ZM62.6203 58.9701C62.3503 58.9701 62.1304 59.0601 61.9604 59.2401C61.7904 59.4201 61.6903 59.6601 61.6703 59.9701H63.4004V59.9101C63.4004 59.6101 63.3304 59.3701 63.2004 59.2201C63.0604 59.0601 62.8704 58.9701 62.6104 58.9701H62.6203Z" fill="#242E3D"></path>
    <path d="M67.7403 62.1001C67.4403 62.2601 67.0904 62.3301 66.6904 62.3301C66.1004 62.3301 65.6504 62.1601 65.3304 61.8301C65.0204 61.4901 64.8604 61.0101 64.8604 60.3801C64.8604 59.7501 65.0203 59.2401 65.3503 58.8901C65.6803 58.5301 66.1404 58.3501 66.7204 58.3501C67.0704 58.3501 67.4104 58.4301 67.7204 58.5701V59.2001C67.3804 59.1001 67.1004 59.0501 66.8604 59.0501C66.4804 59.0501 66.2103 59.1501 66.0303 59.3501C65.8503 59.5501 65.7604 59.8701 65.7604 60.3001V60.3901C65.7604 60.8101 65.8503 61.1301 66.0303 61.3301C66.2103 61.5301 66.4904 61.6201 66.8604 61.6201C67.1204 61.6201 67.4203 61.5701 67.7403 61.4701V62.0901V62.1001Z" fill="#242E3D"></path>
    <path d="M70.7299 62.1599C70.4699 62.2499 70.1998 62.2999 69.8998 62.2999C69.4998 62.2999 69.2098 62.2099 69.0098 62.0299C68.8198 61.8399 68.7299 61.5599 68.7299 61.1699V59.1099H68.0898V58.5499L68.7698 58.4599L68.8998 57.3899H69.6298V58.4299H70.7198V59.1099H69.6298V61.1399C69.6298 61.2999 69.6698 61.4299 69.7498 61.4999C69.8398 61.5699 69.9798 61.6099 70.1698 61.6099C70.3798 61.6099 70.5698 61.5999 70.7398 61.5499V62.1599H70.7299Z" fill="#242E3D"></path>
    <path d="M72.07 60.5501C72.09 60.9301 72.19 61.2101 72.39 61.3901C72.59 61.5601 72.9 61.6501 73.3 61.6501C73.68 61.6501 74.08 61.5901 74.51 61.4501V62.0701C74.34 62.1601 74.13 62.2301 73.9 62.2801C73.67 62.3401 73.42 62.3601 73.17 62.3601C72.55 62.3601 72.07 62.1901 71.74 61.8601C71.41 61.5201 71.25 61.0201 71.25 60.3601C71.25 59.7001 71.41 59.2201 71.73 58.8601C72.05 58.5001 72.5 58.3201 73.07 58.3201C73.56 58.3201 73.93 58.4501 74.19 58.7201C74.45 58.9801 74.59 59.3601 74.59 59.8601C74.59 60.1201 74.57 60.3501 74.52 60.5501H72.07ZM73.02 58.9701C72.75 58.9701 72.53 59.0601 72.36 59.2401C72.19 59.4201 72.09 59.6601 72.07 59.9701H73.81V59.9101C73.81 59.6101 73.74 59.3701 73.61 59.2201C73.47 59.0601 73.28 58.9701 73.02 58.9701Z" fill="#242E3D"></path>
    <path d="M78.1098 62.25L78.0198 61.8899C77.6798 62.1899 77.2798 62.34 76.8398 62.34C76.3598 62.34 75.9798 62.16 75.6898 61.81C75.3998 61.45 75.2598 60.97 75.2598 60.36C75.2598 59.96 75.3198 59.6099 75.4598 59.2999C75.5898 58.9999 75.7798 58.76 76.0198 58.59C76.2598 58.42 76.5498 58.33 76.8898 58.33C77.2898 58.33 77.6598 58.46 77.9898 58.72V56.7H78.8698V62.25H78.1198H78.1098ZM77.1098 61.6399C77.4098 61.6399 77.6998 61.5399 77.9798 61.3499V59.29C77.7198 59.11 77.4398 59.02 77.1298 59.02C76.8198 59.02 76.5598 59.1299 76.3898 59.3499C76.2298 59.5599 76.1498 59.89 76.1498 60.32C76.1498 61.2 76.4698 61.65 77.1098 61.65V61.6399Z" fill="#242E3D"></path>
    <path d="M23.8404 67.79V69.75H22.9404V64.55H24.8704C25.3904 64.55 25.8004 64.7 26.1004 65C26.4004 65.29 26.5604 65.68 26.5604 66.18C26.5604 66.68 26.4104 67.08 26.1004 67.36C25.8004 67.65 25.3904 67.79 24.8704 67.79H23.8404ZM23.8404 67.09H24.7804C25.0704 67.09 25.2904 67.01 25.4404 66.86C25.5904 66.7 25.6604 66.48 25.6604 66.18C25.6604 65.88 25.5904 65.65 25.4404 65.5C25.2904 65.34 25.0704 65.27 24.7804 65.27H23.8404V67.1V67.09Z" fill="#242E3D"></path>
    <path d="M29.6399 69.7501L29.5699 69.3901C29.3899 69.5401 29.1899 69.6501 28.9799 69.7401C28.7699 69.8301 28.5599 69.8701 28.3499 69.8701C27.9999 69.8701 27.7099 69.7601 27.4899 69.5501C27.2799 69.3401 27.1699 69.0601 27.1699 68.7301C27.1699 68.3601 27.2999 68.0701 27.5699 67.8501C27.8299 67.6201 28.1999 67.5101 28.6499 67.5101C28.9099 67.5101 29.1999 67.5501 29.5199 67.6301V67.1901C29.5199 66.9301 29.4699 66.7601 29.3499 66.6601C29.2399 66.5601 29.0499 66.5101 28.7799 66.5101C28.3899 66.5101 27.9399 66.5901 27.4299 66.7601V66.1401C27.6199 66.0501 27.8399 65.9701 28.1099 65.9201C28.3699 65.8701 28.6499 65.8401 28.9199 65.8401C29.3999 65.8401 29.7599 65.9401 29.9999 66.1401C30.2299 66.3401 30.3499 66.6401 30.3499 67.0701V69.7701H29.6399V69.7501ZM28.5899 69.2301C28.7399 69.2301 28.8899 69.2001 29.0499 69.1401C29.2099 69.0801 29.3699 68.9901 29.5199 68.8701V68.1501C29.2499 68.1001 29.0199 68.0701 28.8199 68.0701C28.2999 68.0701 28.0299 68.2701 28.0299 68.6701C28.0299 68.8501 28.0799 68.9901 28.1799 69.0901C28.2799 69.1801 28.4199 69.2301 28.5899 69.2301Z" fill="#242E3D"></path>
    <path d="M31.4102 69.7499V65.9299H32.1502L32.2702 66.4999C32.4702 66.2799 32.6602 66.1299 32.8302 66.0399C33.0002 65.9499 33.1902 65.8999 33.4002 65.8999C33.4902 65.8999 33.5902 65.8999 33.7002 65.9199V66.7299C33.5602 66.7099 33.4102 66.6999 33.2702 66.6999C32.9002 66.6999 32.5802 66.7899 32.3002 66.9799V69.7499H31.4102Z" fill="#242E3D"></path>
    <path d="M36.5101 69.6599C36.2501 69.7499 35.9701 69.7999 35.6801 69.7999C35.2801 69.7999 34.9801 69.7099 34.7901 69.5299C34.6001 69.3399 34.5101 69.0599 34.5101 68.6699V66.6099H33.8701V66.0499L34.5501 65.9599L34.6801 64.8899H35.4101V65.9299H36.5001V66.6099H35.4101V68.6399C35.4101 68.7999 35.4501 68.9299 35.5301 68.9999C35.6201 69.0699 35.7601 69.1099 35.9501 69.1099C36.1601 69.1099 36.3501 69.0999 36.5201 69.0499V69.6599H36.5101Z" fill="#242E3D"></path>
    <path d="M39.7497 69.7501V67.2201C39.7497 66.9801 39.6997 66.8001 39.5997 66.6901C39.4997 66.5701 39.3297 66.5201 39.1197 66.5201C38.7897 66.5201 38.4597 66.6301 38.1097 66.8501V69.7601H37.2197V65.9401H37.9597L38.0397 66.3601C38.5097 66.0101 39.0097 65.8301 39.5197 65.8301C39.8897 65.8301 40.1597 65.9301 40.3497 66.1201C40.5397 66.3101 40.6297 66.5801 40.6297 66.9501V69.7501H39.7497Z" fill="#242E3D"></path>
    <path d="M42.3102 68.0501C42.3302 68.4301 42.4302 68.7101 42.6302 68.8901C42.8302 69.0601 43.1402 69.1501 43.5402 69.1501C43.9202 69.1501 44.3202 69.0901 44.7502 68.9501V69.5701C44.5802 69.6601 44.3702 69.7301 44.1402 69.7801C43.9102 69.8301 43.6602 69.8601 43.4102 69.8601C42.7902 69.8601 42.3102 69.6901 41.9802 69.3601C41.6502 69.0201 41.4902 68.5201 41.4902 67.8601C41.4902 67.2001 41.6502 66.7201 41.9702 66.3601C42.2902 66.0001 42.7302 65.8201 43.3102 65.8201C43.7902 65.8201 44.1702 65.9501 44.4302 66.2201C44.6902 66.4801 44.8302 66.8601 44.8302 67.3601C44.8302 67.6201 44.8102 67.8501 44.7602 68.0501H42.3102ZM43.2602 66.4701C42.9902 66.4701 42.7702 66.5601 42.6002 66.7401C42.4302 66.9201 42.3302 67.1601 42.3102 67.4701H44.0402V67.4101C44.0402 67.1101 43.9702 66.8701 43.8402 66.7201C43.7002 66.5601 43.5102 66.4701 43.2502 66.4701H43.2602Z" fill="#242E3D"></path>
    <path d="M45.6904 69.7499V65.9299H46.4304L46.5504 66.4999C46.7504 66.2799 46.9404 66.1299 47.1104 66.0399C47.2804 65.9499 47.4704 65.8999 47.6804 65.8999C47.7704 65.8999 47.8704 65.8999 47.9804 65.9199V66.7299C47.8404 66.7099 47.6904 66.6999 47.5504 66.6999C47.1804 66.6999 46.8604 66.7899 46.5804 66.9799V69.7499H45.6904Z" fill="#242E3D"></path>
    <path d="M51.5201 67.79V69.75H50.6201V64.55H52.5501C53.0701 64.55 53.4801 64.7 53.7801 65C54.0801 65.29 54.2401 65.68 54.2401 66.18C54.2401 66.68 54.0901 67.08 53.7801 67.36C53.4801 67.65 53.0701 67.79 52.5501 67.79H51.5201ZM51.5201 67.09H52.4601C52.7501 67.09 52.9701 67.01 53.1201 66.86C53.2701 66.7 53.3401 66.48 53.3401 66.18C53.3401 65.88 53.2701 65.65 53.1201 65.5C52.9701 65.34 52.7501 65.27 52.4601 65.27H51.5201V67.1V67.09Z" fill="#242E3D"></path>
    <path d="M55.0898 69.7499V65.9299H55.8298L55.9498 66.4999C56.1498 66.2799 56.3398 66.1299 56.5098 66.0399C56.6798 65.9499 56.8698 65.8999 57.0798 65.8999C57.1698 65.8999 57.2698 65.8999 57.3898 65.9199V66.7299C57.2498 66.7099 57.0998 66.6999 56.9598 66.6999C56.5898 66.6999 56.2698 66.7899 55.9898 66.9799V69.7499H55.0998H55.0898Z" fill="#242E3D"></path>
    <path d="M59.64 69.8701C59.06 69.8701 58.61 69.6901 58.28 69.3301C57.95 68.9701 57.79 68.4701 57.79 67.8401C57.79 67.2101 57.95 66.7201 58.28 66.3601C58.61 66.0001 59.06 65.8201 59.64 65.8201C60.22 65.8201 60.66 66.0001 60.99 66.3601C61.32 66.7101 61.48 67.2001 61.48 67.8401C61.48 68.4801 61.32 68.9701 60.99 69.3301C60.67 69.6901 60.22 69.8701 59.64 69.8701ZM59.64 69.1601C60.27 69.1601 60.59 68.7201 60.59 67.8401C60.59 66.9601 60.27 66.5201 59.64 66.5201C59.01 66.5201 58.69 66.9601 58.69 67.8401C58.69 68.7201 59.01 69.1601 59.64 69.1601Z" fill="#242E3D"></path>
    <path d="M64.7999 69.2601C64.4699 69.5401 64.0999 69.6801 63.6999 69.6801C63.2299 69.6801 62.8599 69.5101 62.5799 69.1601C62.2999 68.8101 62.1699 68.3401 62.1699 67.7501C62.1699 67.3701 62.2299 67.0401 62.3599 66.7501C62.4799 66.4501 62.6599 66.2201 62.8999 66.0601C63.1399 65.9001 63.4199 65.8101 63.7399 65.8101C64.1699 65.8101 64.5499 65.9601 64.8599 66.2701L64.9399 65.9201H65.6699V69.4801C65.6699 70.0801 65.5099 70.5501 65.1799 70.8701C64.8499 71.2101 64.3899 71.3701 63.7799 71.3701C63.3199 71.3701 62.8799 71.2601 62.4799 71.0501V70.4301C62.9399 70.5701 63.3599 70.6501 63.7299 70.6501C64.0999 70.6501 64.3799 70.5601 64.5399 70.3901C64.7099 70.2201 64.7999 69.9401 64.7999 69.5501V69.2301V69.2601ZM63.9599 68.9901C64.2599 68.9901 64.5399 68.8901 64.7999 68.7001V66.7901C64.5399 66.6101 64.2599 66.5201 63.9699 66.5201C63.6799 66.5201 63.4399 66.6201 63.2899 66.8201C63.1399 67.0201 63.0699 67.3201 63.0699 67.7301C63.0699 68.5701 63.3699 68.9801 63.9599 68.9801V68.9901Z" fill="#242E3D"></path>
    <path d="M66.7598 69.7499V65.9299H67.4998L67.6198 66.4999C67.8198 66.2799 68.0098 66.1299 68.1798 66.0399C68.3498 65.9499 68.5398 65.8999 68.7498 65.8999C68.8398 65.8999 68.9398 65.8999 69.0498 65.9199V66.7299C68.9098 66.7099 68.7598 66.6999 68.6198 66.6999C68.2498 66.6999 67.9298 66.7899 67.6498 66.9799V69.7499H66.7598Z" fill="#242E3D"></path>
    <path d="M71.8801 69.7501L71.8102 69.3901C71.6302 69.5401 71.4302 69.6501 71.2202 69.7401C71.0102 69.8301 70.8001 69.8701 70.5901 69.8701C70.2401 69.8701 69.9502 69.7601 69.7302 69.5501C69.5202 69.3401 69.4102 69.0601 69.4102 68.7301C69.4102 68.3601 69.5402 68.0701 69.8102 67.8501C70.0702 67.6201 70.4302 67.5101 70.8902 67.5101C71.1502 67.5101 71.4402 67.5501 71.7602 67.6301V67.1901C71.7602 66.9301 71.7102 66.7601 71.6002 66.6601C71.4902 66.5601 71.3002 66.5101 71.0302 66.5101C70.6402 66.5101 70.1902 66.5901 69.6802 66.7601V66.1401C69.8702 66.0501 70.0902 65.9701 70.3602 65.9201C70.6202 65.8701 70.9002 65.8401 71.1702 65.8401C71.6502 65.8401 72.0102 65.9401 72.2502 66.1401C72.4902 66.3401 72.6002 66.6401 72.6002 67.0701V69.7701H71.8902L71.8801 69.7501ZM70.8401 69.2301C70.9901 69.2301 71.1402 69.2001 71.3002 69.1401C71.4602 69.0801 71.6201 68.9901 71.7701 68.8701V68.1501C71.5001 68.1001 71.2702 68.0701 71.0702 68.0701C70.5502 68.0701 70.2802 68.2701 70.2802 68.6701C70.2802 68.8501 70.3302 68.9901 70.4302 69.0901C70.5302 69.1801 70.6701 69.2301 70.8401 69.2301Z" fill="#242E3D"></path>
    <path d="M78.4802 69.7501V67.1601C78.4802 66.9301 78.4301 66.7701 78.3401 66.6701C78.2501 66.5701 78.1102 66.5201 77.9102 66.5201C77.7502 66.5201 77.5902 66.5501 77.4102 66.6001C77.2402 66.6501 77.0902 66.7201 76.9602 66.8001V69.7501H76.0702V67.1601C76.0702 66.9301 76.0202 66.7701 75.9302 66.6701C75.8402 66.5701 75.7002 66.5201 75.5002 66.5201C75.3502 66.5201 75.1901 66.5401 75.0201 66.5901C74.8601 66.6401 74.7002 66.7101 74.5502 66.8001V69.7501H73.6602V65.9301H74.4002L74.4802 66.3201C74.7302 66.1501 74.9602 66.0201 75.1802 65.9401C75.4102 65.8601 75.6302 65.8201 75.8602 65.8201C76.3202 65.8201 76.6402 65.9901 76.8202 66.3401C77.3202 66.0001 77.8002 65.8201 78.2502 65.8201C78.6102 65.8201 78.8902 65.9201 79.0802 66.1101C79.2802 66.3001 79.3702 66.5701 79.3702 66.9401V69.7401H78.4802V69.7501Z" fill="#242E3D"></path>
  </g>
  <defs>
    <clipPath id="clip0_8174_2">
      <rect width="90" height="90" fill="white"></rect>
    </clipPath>
  </defs>
</svg>
