<?xml version="1.0" encoding="UTF-8"?>
<svg xmlns="http://www.w3.org/2000/svg" width="90" height="90" viewBox="0 0 90 90" fill="none">
  <g clip-path="url(#clip0_8184_2)">
    <path d="M61.2 0H0V61.5L28.5 90H90V28.8L61.2 0Z" fill="white"></path>
    <path d="M60.45 1.88L88.13 29.56V88.13H29.25L1.88 60.75V1.88H60.45ZM61.2 0H0V61.5L28.5 90H90V28.8L61.2 0Z" fill="#242E3D"></path>
    <path d="M14.6202 50.7001V54.0001H12.7402V45.0001H16.1902C17.0102 44.9301 17.7602 45.2301 18.4402 45.7501C19.5602 46.9501 19.5602 48.7501 18.4402 49.9501C17.8402 50.4801 17.0102 50.7701 16.1902 50.7001H14.6202ZM14.6202 49.2701H15.9702C16.3502 49.2701 16.7202 49.2001 16.9402 48.8901C17.3902 48.2901 17.3902 47.3901 16.9402 46.7901C16.6402 46.5601 16.3402 46.4101 15.9702 46.4101H14.6202V49.2601V49.2701ZM27.1502 54.0001L26.5502 51.9801H23.4802L22.8802 54.0001H20.8602L24.0102 45.0001H26.1902L29.2602 54.0001H27.1602H27.1502ZM23.8502 50.5501H26.1002L24.9802 46.8001L23.8602 50.5501H23.8502ZM31.9502 54.0001V45.0001H35.4002C36.2302 44.9301 36.9802 45.2301 37.6502 45.7501C38.1802 46.2701 38.4802 47.0201 38.4802 47.7701C38.4802 48.3001 38.3302 48.7501 38.0302 49.2001C37.7302 49.6501 37.2802 49.9501 36.8302 50.1801L39.0802 54.0801H37.0602L35.1102 50.5601H33.8302V54.0101H31.9502V54.0001ZM33.8202 49.1201H35.1702C35.8502 49.1901 36.4402 48.7401 36.5202 48.0701V47.6901C36.6002 47.0101 36.1402 46.4201 35.5502 46.3401H33.9002V49.1101H33.8302L33.8202 49.1201ZM43.6502 54.0001V46.5701H40.8802V45.0001H48.3102V46.5701H45.5302V54.0001H43.6602H43.6502ZM53.0202 47.7701V54.0001H51.3002V45.0001H53.4002L57.0802 51.3001V45.0001H58.8102V54.0001H56.7102L53.0302 47.7701H53.0202ZM62.2502 54.0001V45.0001H68.1802V46.5001H64.2002V48.6001H67.4302V50.1001H64.2002V52.5001H68.1802V54.0001H62.2502ZM71.6202 54.0001V45.0001H75.0702C75.8902 44.9301 76.6402 45.2301 77.3202 45.7501C77.8502 46.2701 78.1402 47.0201 78.1402 47.7701C78.1402 48.3001 77.9902 48.7501 77.6902 49.2001C77.3902 49.6501 76.9402 49.9501 76.4902 50.1801L78.7402 54.0801H76.7202L74.7702 50.5601H73.5002V54.0101H71.6202V54.0001ZM73.5002 49.1201H74.8502C75.5202 49.1901 76.1202 48.7401 76.2002 48.0701V47.6901C76.2702 47.0101 75.8202 46.4201 75.2302 46.3401H73.5002V49.1101V49.1201Z" fill="#242E3D"></path>
    <path d="M20.0202 20.6201C20.0202 20.9201 20.0202 21.2201 20.1702 21.5201C20.2402 21.7501 20.3902 22.0501 20.4702 22.2701C20.5402 22.3501 20.5402 22.4201 20.5402 22.5001C20.5402 22.6501 20.4702 22.7301 20.3102 22.8001L19.6302 23.2501H19.4102C19.2602 23.2501 19.1802 23.1801 19.1102 23.1001C18.9602 22.9501 18.8102 22.8001 18.7302 22.6501C18.6602 22.5001 18.5002 22.2701 18.4302 22.0501C17.6802 22.9501 16.6302 23.4801 15.4302 23.4801C14.6802 23.5501 13.9302 23.2501 13.4102 22.7301C12.8802 22.2001 12.6602 21.5301 12.6602 20.7801C12.6602 19.9601 12.9602 19.2101 13.5602 18.6801C14.2402 18.1501 15.1302 17.8601 16.0402 17.8601C16.4202 17.8601 16.7902 17.8601 17.0902 17.9301L18.2102 18.1501V17.4001C18.2802 16.8001 18.1302 16.2001 17.7602 15.7501C17.3102 15.3701 16.7102 15.2301 16.1102 15.3001C15.7302 15.3001 15.3602 15.3701 14.9902 15.4501C14.6202 15.5301 14.2402 15.6801 13.8702 15.8301C13.7202 15.9001 13.6402 15.9001 13.4902 15.9801H13.3402C13.1902 15.9801 13.1102 15.9001 13.1102 15.6801V15.1501C13.1102 15.0001 13.1102 14.9301 13.1802 14.7701C13.2502 14.7001 13.3302 14.6201 13.4802 14.5501C13.8602 14.3201 14.3002 14.1701 14.7502 14.1001C15.2802 13.9501 15.8002 13.8701 16.3302 13.8701C17.3002 13.8001 18.2102 14.1001 18.9502 14.6901C19.5502 15.3701 19.8502 16.2601 19.7702 17.1701L19.9902 20.6201H20.0202ZM15.9002 22.1201C16.2802 22.1201 16.5802 22.0501 16.9502 21.9701C17.3302 21.8201 17.6302 21.5901 17.9302 21.2901C18.0802 21.1401 18.2302 20.9101 18.3102 20.6101C18.3902 20.3101 18.3802 20.0101 18.3802 19.7101V19.2601C18.0802 19.1901 17.7802 19.1101 17.4802 19.1101C17.1802 19.0401 16.8802 19.0401 16.5002 19.0401C15.9802 18.9701 15.4502 19.1101 15.0002 19.4201C14.4002 20.0201 14.3202 20.9901 14.8502 21.6701C15.1502 22.0501 15.5202 22.1901 15.9002 22.1201ZM24.0702 23.2501C23.9202 23.2501 23.7702 23.2501 23.6902 23.1801C23.6202 23.1101 23.5402 22.9501 23.4702 22.8001L21.0702 14.9201C21.0002 14.7701 21.0002 14.6201 21.0002 14.5401C21.0002 14.3901 21.0702 14.3101 21.1502 14.3101H22.2002C22.3502 14.3101 22.5002 14.3101 22.5802 14.3801C22.6502 14.4601 22.7302 14.6101 22.8102 14.7601L24.5302 21.4401L26.1102 14.7601C26.1102 14.6101 26.1802 14.4601 26.3302 14.3801C26.4802 14.3101 26.6302 14.3101 26.7102 14.3101H27.5302C27.6802 14.3101 27.8302 14.3101 27.9102 14.3801C27.9902 14.4601 28.0602 14.6101 28.1402 14.7601L29.7102 21.5901L31.4402 14.7601C31.4402 14.6101 31.5102 14.4601 31.6602 14.3801C31.8102 14.3101 31.8902 14.3101 32.0402 14.3101H33.0202C33.1702 14.3101 33.2502 14.3801 33.2502 14.4601V14.6801C33.2502 14.7501 33.1702 14.8301 33.1702 14.9101L30.7702 22.7101C30.7702 22.8601 30.7002 23.0101 30.5402 23.0901C30.4702 23.2401 30.3202 23.2401 30.1602 23.2401H29.2602C29.1102 23.2401 28.9602 23.2401 28.8802 23.1701C28.8102 23.0201 28.7302 22.9401 28.6502 22.7901L27.0802 16.2601L25.5102 22.7901C25.5102 22.9401 25.4402 23.0901 25.2802 23.1701C25.2102 23.2401 25.0602 23.2401 24.9802 23.2401H24.0802L24.0702 23.2501ZM37.1202 23.5501C36.6002 23.5501 36.0702 23.4801 35.5502 23.4001C35.1702 23.3301 34.7302 23.1801 34.3502 23.0201C34.1202 22.9501 33.9702 22.7201 33.9702 22.4201V21.8901C33.9702 21.6701 34.0402 21.5901 34.1902 21.5901H34.3402C34.4102 21.5901 34.4902 21.6601 34.5602 21.6601C34.9402 21.8101 35.3102 21.9601 35.6802 22.0401C36.0602 22.1101 36.5002 22.1901 36.8802 22.1901C37.4102 22.1901 37.9302 22.1201 38.3802 21.8101C38.6802 21.5901 38.9102 21.2101 38.9102 20.8401C38.9102 20.5401 38.8402 20.3101 38.6102 20.1601C38.3102 19.9301 37.9302 19.7101 37.5602 19.6301L36.0602 19.1801C35.4602 19.0301 34.8602 18.6601 34.4102 18.1301C34.1102 17.6801 33.8802 17.1601 33.8802 16.6301C33.8802 16.2501 33.9602 15.8801 34.1802 15.5101C34.3302 15.2101 34.6302 14.9101 34.9302 14.6901C35.2302 14.4701 35.6102 14.2401 35.9802 14.1701C36.4302 14.0201 36.8002 14.0201 37.2502 14.0201C37.4802 14.0201 37.7002 14.0201 37.9302 14.1001C38.1602 14.1001 38.3802 14.1701 38.6102 14.2501C38.8402 14.3301 38.9902 14.3201 39.2102 14.4001C39.3602 14.4801 39.5102 14.4801 39.6602 14.5501C39.8102 14.6201 39.8802 14.7001 39.9602 14.7701C40.0302 14.8501 40.0302 15.0001 40.0302 15.1501V15.6001C40.0302 15.8201 39.9602 15.9001 39.8002 15.9001C39.6402 15.9001 39.5002 15.8301 39.4202 15.7501C38.8202 15.4501 38.1502 15.3701 37.4702 15.3701C37.0202 15.3701 36.5702 15.4401 36.1202 15.6701C35.8202 15.8201 35.6002 16.1901 35.6702 16.5701C35.6702 16.8701 35.7402 17.1001 35.9702 17.3201C36.2702 17.6201 36.6502 17.7701 37.0902 17.8501L38.5202 18.3001C39.1202 18.4501 39.6402 18.8201 40.0902 19.2701C40.3902 19.6501 40.5402 20.1701 40.5402 20.7001C40.5402 21.0801 40.4702 21.5201 40.2402 21.9001C40.0902 22.2801 39.7902 22.5801 39.4902 22.8001C39.1902 23.0201 38.7402 23.2501 38.3702 23.4001C38.0702 23.4801 37.5502 23.5501 37.1002 23.5501H37.1202Z" fill="#242E3D"></path>
    <path d="M39.0001 28.4299C35.6201 30.8999 30.8201 32.1799 26.6201 32.1799C21.0701 32.1799 15.6701 30.1499 11.5501 26.3999C11.2501 26.0999 11.5501 25.7299 11.9301 25.9499C16.5001 28.6499 21.7501 29.9999 27.0001 29.9999C30.9801 29.9999 34.8801 29.1799 38.5501 27.6799C39.0701 27.4499 39.6001 28.0599 39.0001 28.4299ZM39.5201 30.6799C39.3701 30.9799 39.6701 31.1299 39.9701 30.8999C41.7701 29.3999 42.2201 26.2499 41.8501 25.7999C41.4701 25.3499 38.3201 24.9799 36.4501 26.3199C36.1501 26.5499 36.2301 26.8499 36.5201 26.7699C37.5701 26.6199 39.9701 26.3199 40.4201 26.9199C40.8701 27.5199 39.8901 29.6899 39.5201 30.6699V30.6799Z" fill="#FF9900"></path>
    <path d="M38.5504 60.2901V62.25H37.6504V57.05H39.5804C40.1004 57.05 40.5104 57.2 40.8104 57.5C41.1104 57.79 41.2704 58.18 41.2704 58.68C41.2704 59.18 41.1204 59.5801 40.8104 59.8601C40.5104 60.1501 40.1004 60.2901 39.5804 60.2901H38.5504ZM38.5504 59.59H39.4904C39.7804 59.59 40.0004 59.5101 40.1504 59.3601C40.3004 59.2001 40.3704 58.98 40.3704 58.68C40.3704 58.38 40.3004 58.15 40.1504 58C40.0004 57.84 39.7804 57.7701 39.4904 57.7701H38.5504V59.6V59.59Z" fill="#242E3D"></path>
    <path d="M42.1201 62.2499V58.4299H42.8601L42.9801 58.9999C43.1801 58.7799 43.3701 58.6299 43.5401 58.5399C43.7101 58.4499 43.9001 58.3999 44.1101 58.3999C44.2001 58.3999 44.3001 58.3999 44.4201 58.4199V59.2299C44.2801 59.2099 44.1301 59.1999 43.9901 59.1999C43.6201 59.1999 43.3001 59.2899 43.0201 59.4799V62.2499H42.1301H42.1201Z" fill="#242E3D"></path>
    <path d="M45.6296 60.5501C45.6496 60.9301 45.7496 61.2101 45.9496 61.3901C46.1496 61.5601 46.4596 61.6501 46.8596 61.6501C47.2396 61.6501 47.6396 61.5901 48.0696 61.4501V62.0701C47.8996 62.1601 47.6896 62.2301 47.4596 62.2801C47.2296 62.3401 46.9796 62.3601 46.7296 62.3601C46.1096 62.3601 45.6296 62.1901 45.2996 61.8601C44.9696 61.5201 44.8096 61.0201 44.8096 60.3601C44.8096 59.7001 44.9696 59.2201 45.2896 58.8601C45.6096 58.5001 46.0596 58.3201 46.6296 58.3201C47.1096 58.3201 47.4896 58.4501 47.7496 58.7201C48.0096 58.9801 48.1496 59.3601 48.1496 59.8601C48.1496 60.1201 48.1296 60.3501 48.0796 60.5501H45.6296ZM46.5796 58.9701C46.3096 58.9701 46.0896 59.0601 45.9196 59.2401C45.7496 59.4201 45.6496 59.6601 45.6296 59.9701H47.3596V59.9101C47.3596 59.6101 47.2896 59.3701 47.1596 59.2201C47.0196 59.0601 46.8296 58.9701 46.5696 58.9701H46.5796Z" fill="#242E3D"></path>
    <path d="M53.8395 62.2501V59.6601C53.8395 59.4301 53.7895 59.2701 53.6995 59.1701C53.6095 59.0701 53.4695 59.0201 53.2695 59.0201C53.1095 59.0201 52.9495 59.0501 52.7695 59.1001C52.5995 59.1501 52.4495 59.2201 52.3195 59.3001V62.2501H51.4295V59.6601C51.4295 59.4301 51.3795 59.2701 51.2895 59.1701C51.1995 59.0701 51.0595 59.0201 50.8595 59.0201C50.7095 59.0201 50.5495 59.0401 50.3795 59.0901C50.2195 59.1401 50.0595 59.2101 49.9095 59.3001V62.2501H49.0195V58.4301H49.7595L49.8395 58.8201C50.0895 58.6501 50.3195 58.5201 50.5395 58.4401C50.7695 58.3601 50.9895 58.3201 51.2195 58.3201C51.6795 58.3201 51.9995 58.4901 52.1795 58.8401C52.6795 58.5001 53.1595 58.3201 53.6095 58.3201C53.9695 58.3201 54.2495 58.4201 54.4395 58.6101C54.6395 58.8001 54.7295 59.0701 54.7295 59.4401V62.2401H53.8395V62.2501Z" fill="#242E3D"></path>
    <path d="M55.8197 62.25V58.43H56.6997V62.25H55.8197ZM56.2497 57.8C56.0897 57.8 55.9597 57.76 55.8597 57.67C55.7697 57.58 55.7197 57.45 55.7197 57.29C55.7197 57.13 55.7697 57 55.8597 56.91C55.9497 56.82 56.0797 56.77 56.2497 56.77C56.4197 56.77 56.5597 56.82 56.6497 56.91C56.7397 57 56.7897 57.12 56.7897 57.29C56.7897 57.46 56.7397 57.57 56.6497 57.67C56.5597 57.76 56.4197 57.8 56.2497 57.8Z" fill="#242E3D"></path>
    <path d="M58.4304 60.5501C58.4504 60.9301 58.5504 61.2101 58.7504 61.3901C58.9504 61.5601 59.2604 61.6501 59.6604 61.6501C60.0404 61.6501 60.4403 61.5901 60.8703 61.4501V62.0701C60.7003 62.1601 60.4903 62.2301 60.2603 62.2801C60.0303 62.3401 59.7803 62.3601 59.5303 62.3601C58.9103 62.3601 58.4303 62.1901 58.1003 61.8601C57.7703 61.5201 57.6104 61.0201 57.6104 60.3601C57.6104 59.7001 57.7704 59.2201 58.0904 58.8601C58.4104 58.5001 58.8504 58.3201 59.4304 58.3201C59.9104 58.3201 60.2904 58.4501 60.5604 58.7201C60.8204 58.9801 60.9604 59.3601 60.9604 59.8601C60.9604 60.1201 60.9404 60.3501 60.8904 60.5501H58.4403H58.4304ZM59.3804 58.9701C59.1104 58.9701 58.8904 59.0601 58.7204 59.2401C58.5504 59.4201 58.4504 59.6601 58.4304 59.9701H60.1604V59.9101C60.1604 59.6101 60.0904 59.3701 59.9604 59.2201C59.8204 59.0601 59.6303 58.9701 59.3703 58.9701H59.3804Z" fill="#242E3D"></path>
    <path d="M61.7998 62.2499V58.4299H62.5398L62.6598 58.9999C62.8598 58.7799 63.0498 58.6299 63.2198 58.5399C63.3898 58.4499 63.5798 58.3999 63.7898 58.3999C63.8798 58.3999 63.9798 58.3999 64.0998 58.4199V59.2299C63.9598 59.2099 63.8098 59.1999 63.6698 59.1999C63.2998 59.1999 62.9798 59.2899 62.6998 59.4799V62.2499H61.8098H61.7998Z" fill="#242E3D"></path>
    <path d="M67.8605 62.25V57.8H66.2305V57.05H70.4005V57.8H68.7705V62.25H67.8605Z" fill="#242E3D"></path>
    <path d="M71.0802 62.25V58.43H71.9602V62.25H71.0802ZM71.5202 57.8C71.3602 57.8 71.2302 57.76 71.1302 57.67C71.0402 57.58 70.9902 57.45 70.9902 57.29C70.9902 57.13 71.0402 57 71.1302 56.91C71.2202 56.82 71.3502 56.77 71.5202 56.77C71.6902 56.77 71.8202 56.82 71.9202 56.91C72.0102 57 72.0602 57.12 72.0602 57.29C72.0602 57.46 72.0102 57.57 71.9202 57.67C71.8302 57.76 71.6902 57.8 71.5202 57.8Z" fill="#242E3D"></path>
    <path d="M73.6901 60.5501C73.7101 60.9301 73.8101 61.2101 74.0101 61.3901C74.2101 61.5601 74.5201 61.6501 74.9201 61.6501C75.3001 61.6501 75.7001 61.5901 76.1301 61.4501V62.0701C75.9601 62.1601 75.7501 62.2301 75.5201 62.2801C75.2901 62.3401 75.0401 62.3601 74.7901 62.3601C74.1701 62.3601 73.6901 62.1901 73.3601 61.8601C73.0301 61.5201 72.8701 61.0201 72.8701 60.3601C72.8701 59.7001 73.0301 59.2201 73.3501 58.8601C73.6701 58.5001 74.1101 58.3201 74.6901 58.3201C75.1701 58.3201 75.5501 58.4501 75.8101 58.7201C76.0701 58.9801 76.2101 59.3601 76.2101 59.8601C76.2101 60.1201 76.1901 60.3501 76.1401 60.5501H73.6901ZM74.6401 58.9701C74.3701 58.9701 74.1501 59.0601 73.9801 59.2401C73.8101 59.4201 73.7101 59.6601 73.6901 59.9701H75.4301V59.9101C75.4301 59.6101 75.3601 59.3701 75.2301 59.2201C75.0901 59.0601 74.9001 58.9701 74.6401 58.9701Z" fill="#242E3D"></path>
    <path d="M77.0703 62.2499V58.4299H77.8103L77.9303 58.9999C78.1303 58.7799 78.3203 58.6299 78.4903 58.5399C78.6603 58.4499 78.8503 58.3999 79.0603 58.3999C79.1503 58.3999 79.2503 58.3999 79.3603 58.4199V59.2299C79.2203 59.2099 79.0803 59.1999 78.9303 59.1999C78.5603 59.1999 78.2403 59.2899 77.9603 59.4799V62.2499H77.0703Z" fill="#242E3D"></path>
    <path d="M53.0704 67.3599C52.6504 67.1999 52.3404 67.0099 52.1404 66.7899C51.9504 66.5599 51.8604 66.2899 51.8604 65.9599C51.8604 65.4899 52.0203 65.1199 52.3503 64.8499C52.6803 64.5799 53.1203 64.4399 53.6703 64.4399C54.1303 64.4399 54.6004 64.5299 55.0804 64.7099V65.4399C54.5904 65.2899 54.1504 65.2199 53.7404 65.2199C53.0804 65.2199 52.7404 65.4399 52.7404 65.8899C52.7404 66.0599 52.8003 66.1999 52.9203 66.3099C53.0403 66.4199 53.2604 66.5299 53.5604 66.6399L54.2004 66.8699C54.6104 67.0299 54.9103 67.2099 55.1003 67.4299C55.2903 67.6499 55.3804 67.9299 55.3804 68.2699C55.3804 68.7699 55.2004 69.1699 54.8404 69.4499C54.4904 69.7399 54.0004 69.8799 53.3904 69.8799C53.1204 69.8799 52.8604 69.8499 52.5904 69.7999C52.3304 69.7499 52.0904 69.6699 51.9004 69.5799V68.8499C52.1404 68.9299 52.4004 68.9899 52.6604 69.0399C52.9304 69.0899 53.1804 69.1099 53.3904 69.1099C53.7404 69.1099 54.0104 69.0499 54.2004 68.9199C54.3904 68.7899 54.4904 68.5999 54.4904 68.3699C54.4904 68.1999 54.4304 68.0599 54.3104 67.9499C54.2004 67.8399 54.0004 67.7399 53.7104 67.6199L53.0404 67.3599H53.0704Z" fill="#242E3D"></path>
    <path d="M56.9401 68.0501C56.9501 68.4301 57.0601 68.7101 57.2601 68.8901C57.4601 69.0601 57.7701 69.1501 58.1701 69.1501C58.5501 69.1501 58.9501 69.0901 59.3801 68.9501V69.5701C59.2101 69.6601 59.0001 69.7301 58.7701 69.7801C58.5401 69.8301 58.2901 69.8601 58.0401 69.8601C57.4201 69.8601 56.9401 69.6901 56.6101 69.3601C56.2801 69.0201 56.1201 68.5201 56.1201 67.8601C56.1201 67.2001 56.2801 66.7201 56.6001 66.3601C56.9201 66.0001 57.3601 65.8201 57.9401 65.8201C58.4201 65.8201 58.8001 65.9501 59.0601 66.2201C59.3201 66.4801 59.4601 66.8601 59.4601 67.3601C59.4601 67.6201 59.4401 67.8501 59.3901 68.0501H56.9401ZM57.8901 66.4701C57.6201 66.4701 57.4001 66.5601 57.2301 66.7401C57.0601 66.9201 56.9601 67.1601 56.9401 67.4701H58.6701V67.4101C58.6701 67.1101 58.6001 66.8701 58.4701 66.7201C58.3301 66.5601 58.1401 66.4701 57.8801 66.4701H57.8901Z" fill="#242E3D"></path>
    <path d="M60.3203 69.7499V65.9299H61.0603L61.1803 66.4999C61.3803 66.2799 61.5703 66.1299 61.7403 66.0399C61.9103 65.9499 62.1003 65.8999 62.3203 65.8999C62.4103 65.8999 62.5103 65.8999 62.6203 65.9199V66.7299C62.4803 66.7099 62.3303 66.6999 62.1903 66.6999C61.8203 66.6999 61.5003 66.7899 61.2203 66.9799V69.7499H60.3303H60.3203Z" fill="#242E3D"></path>
    <path d="M64.2097 69.7499L62.7197 65.9299H63.6697L64.6397 68.9499L65.6197 65.9299H66.5197L65.0597 69.7499H64.1997H64.2097Z" fill="#242E3D"></path>
    <path d="M67.1496 69.75V65.93H68.0296V69.75H67.1496ZM67.5896 65.3C67.4296 65.3 67.2996 65.26 67.1996 65.17C67.1096 65.08 67.0596 64.95 67.0596 64.79C67.0596 64.63 67.1096 64.5 67.1996 64.41C67.2896 64.32 67.4196 64.27 67.5896 64.27C67.7596 64.27 67.8996 64.32 67.9896 64.41C68.0796 64.5 68.1296 64.62 68.1296 64.79C68.1296 64.96 68.0796 65.07 67.9896 65.17C67.8996 65.26 67.7596 65.3 67.5896 65.3Z" fill="#242E3D"></path>
    <path d="M71.8302 69.6001C71.5302 69.7601 71.1802 69.8301 70.7802 69.8301C70.1902 69.8301 69.7402 69.6601 69.4202 69.3301C69.1102 68.9901 68.9502 68.5101 68.9502 67.8801C68.9502 67.2501 69.1102 66.7401 69.4402 66.3901C69.7702 66.0301 70.2302 65.8501 70.8102 65.8501C71.1602 65.8501 71.5002 65.9301 71.8102 66.0701V66.7001C71.4702 66.6001 71.1902 66.5501 70.9502 66.5501C70.5702 66.5501 70.3002 66.6501 70.1202 66.8501C69.9402 67.0501 69.8502 67.3701 69.8502 67.8001V67.8901C69.8502 68.3101 69.9402 68.6301 70.1202 68.8301C70.3002 69.0301 70.5802 69.1201 70.9502 69.1201C71.2102 69.1201 71.5102 69.0701 71.8302 68.9701V69.5901V69.6001Z" fill="#242E3D"></path>
    <path d="M73.2399 68.0501C73.2599 68.4301 73.3599 68.7101 73.5599 68.8901C73.7599 69.0601 74.0699 69.1501 74.4699 69.1501C74.8499 69.1501 75.2499 69.0901 75.6799 68.9501V69.5701C75.5099 69.6601 75.2999 69.7301 75.0699 69.7801C74.8399 69.8301 74.5899 69.8601 74.3399 69.8601C73.7099 69.8601 73.2399 69.6901 72.9099 69.3601C72.5799 69.0201 72.4199 68.5201 72.4199 67.8601C72.4199 67.2001 72.5799 66.7201 72.8999 66.3601C73.2199 66.0001 73.6699 65.8201 74.2399 65.8201C74.7299 65.8201 75.0999 65.9501 75.3599 66.2201C75.6199 66.4801 75.7599 66.8601 75.7599 67.3601C75.7599 67.6201 75.7399 67.8501 75.6899 68.0501H73.2399ZM74.1899 66.4701C73.9299 66.4701 73.6999 66.5601 73.5299 66.7401C73.3599 66.9201 73.2599 67.1601 73.2399 67.4701H74.9799V67.4101C74.9799 67.1101 74.9099 66.8701 74.7799 66.7201C74.6399 66.5601 74.4499 66.4701 74.1899 66.4701Z" fill="#242E3D"></path>
    <path d="M78.3396 68.7201C78.3396 68.6101 78.2996 68.5201 78.2296 68.4501C78.1596 68.3801 78.0296 68.3101 77.8396 68.2401L77.2196 68.0101C76.6596 67.7901 76.3796 67.4401 76.3796 66.9601C76.3796 66.6101 76.5096 66.3401 76.7696 66.1401C77.0396 65.9401 77.3796 65.8401 77.8096 65.8401C78.2396 65.8401 78.6096 65.9201 78.9296 66.0801V66.7001C78.5496 66.5801 78.1896 66.5101 77.8596 66.5101C77.6296 66.5101 77.4696 66.5401 77.3596 66.6201C77.2496 66.6901 77.1996 66.7901 77.1996 66.9401C77.1996 67.0501 77.2396 67.1401 77.3196 67.2101C77.3896 67.2701 77.5296 67.3501 77.7296 67.4301L78.3196 67.6501C78.6196 67.7701 78.8296 67.9101 78.9596 68.0701C79.0896 68.2301 79.1596 68.4301 79.1596 68.6701C79.1596 69.0501 79.0196 69.3501 78.7496 69.5601C78.4796 69.7801 78.1096 69.8901 77.6296 69.8901C77.3996 69.8901 77.1696 69.8601 76.9396 69.8101C76.7196 69.7601 76.5296 69.6901 76.3496 69.6001V68.9801C76.8296 69.1401 77.2496 69.2101 77.6296 69.2101C77.8796 69.2101 78.0596 69.1701 78.1696 69.0901C78.2896 69.0201 78.3496 68.9001 78.3496 68.7401L78.3396 68.7201Z" fill="#242E3D"></path>
  </g>
  <defs>
    <clipPath id="clip0_8184_2">
      <rect width="90" height="90" fill="white"></rect>
    </clipPath>
  </defs>
</svg>
