<?xml version="1.0" encoding="UTF-8"?>
<svg xmlns="http://www.w3.org/2000/svg" width="90" height="90" viewBox="0 0 90 90" fill="none">
  <g clip-path="url(#clip0_8175_71)">
    <path d="M61.2 0H0V61.5L28.5 90H90V28.8L61.2 0Z" fill="white"></path>
    <path d="M60.45 1.88L88.13 29.56V88.13H29.25L1.88 60.75V1.88H60.45ZM61.2 0H0V61.5L28.5 90H90V28.8L61.2 0Z" fill="#242E3D"></path>
    <path d="M14.6202 50.7001V54.0001H12.7402V45.0001H16.1902C17.0102 44.9301 17.7602 45.2301 18.4402 45.7501C19.5602 46.9501 19.5602 48.7501 18.4402 49.9501C17.8402 50.4801 17.0102 50.7701 16.1902 50.7001H14.6202ZM14.6202 49.2701H15.9702C16.3502 49.2701 16.7202 49.2001 16.9402 48.8901C17.3902 48.2901 17.3902 47.3901 16.9402 46.7901C16.6402 46.5601 16.3402 46.4101 15.9702 46.4101H14.6202V49.2601V49.2701ZM27.1502 54.0001L26.5502 51.9801H23.4802L22.8802 54.0001H20.8602L24.0102 45.0001H26.1902L29.2602 54.0001H27.1602H27.1502ZM23.8502 50.5501H26.1002L24.9802 46.8001L23.8602 50.5501H23.8502ZM31.9502 54.0001V45.0001H35.4002C36.2302 44.9301 36.9802 45.2301 37.6502 45.7501C38.1802 46.2701 38.4802 47.0201 38.4802 47.7701C38.4802 48.3001 38.3302 48.7501 38.0302 49.2001C37.7302 49.6501 37.2802 49.9501 36.8302 50.1801L39.0802 54.0801H37.0602L35.1102 50.5601H33.8302V54.0101H31.9502V54.0001ZM33.8202 49.1201H35.1702C35.8502 49.1901 36.4402 48.7401 36.5202 48.0701V47.6901C36.6002 47.0101 36.1402 46.4201 35.5502 46.3401H33.9002V49.1101H33.8302L33.8202 49.1201ZM43.6502 54.0001V46.5701H40.8802V45.0001H48.3102V46.5701H45.5302V54.0001H43.6602H43.6502ZM53.0202 47.7701V54.0001H51.3002V45.0001H53.4002L57.0802 51.3001V45.0001H58.8102V54.0001H56.7102L53.0302 47.7701H53.0202ZM62.2502 54.0001V45.0001H68.1802V46.5001H64.2002V48.6001H67.4302V50.1001H64.2002V52.5001H68.1802V54.0001H62.2502ZM71.6202 54.0001V45.0001H75.0702C75.8902 44.9301 76.6402 45.2301 77.3202 45.7501C77.8502 46.2701 78.1402 47.0201 78.1402 47.7701C78.1402 48.3001 77.9902 48.7501 77.6902 49.2001C77.3902 49.6501 76.9402 49.9501 76.4902 50.1801L78.7402 54.0801H76.7202L74.7702 50.5601H73.5002V54.0101H71.6202V54.0001ZM73.5002 49.1201H74.8502C75.5202 49.1901 76.1202 48.7401 76.2002 48.0701V47.6901C76.2702 47.0101 75.8202 46.4201 75.2302 46.3401H73.5002V49.1101V49.1201Z" fill="#242E3D"></path>
    <path d="M20.0202 20.6201C20.0202 20.9201 20.0202 21.2201 20.1702 21.5201C20.2402 21.7501 20.3902 22.0501 20.4702 22.2701C20.5402 22.3501 20.5402 22.4201 20.5402 22.5001C20.5402 22.6501 20.4702 22.7301 20.3102 22.8001L19.6302 23.2501H19.4102C19.2602 23.2501 19.1802 23.1801 19.1102 23.1001C18.9602 22.9501 18.8102 22.8001 18.7302 22.6501C18.6602 22.5001 18.5002 22.2701 18.4302 22.0501C17.6802 22.9501 16.6302 23.4801 15.4302 23.4801C14.6802 23.5501 13.9302 23.2501 13.4102 22.7301C12.8802 22.2001 12.6602 21.5301 12.6602 20.7801C12.6602 19.9601 12.9602 19.2101 13.5602 18.6801C14.2402 18.1501 15.1302 17.8601 16.0402 17.8601C16.4202 17.8601 16.7902 17.8601 17.0902 17.9301L18.2102 18.1501V17.4001C18.2802 16.8001 18.1302 16.2001 17.7602 15.7501C17.3102 15.3701 16.7102 15.2301 16.1102 15.3001C15.7302 15.3001 15.3602 15.3701 14.9902 15.4501C14.6202 15.5301 14.2402 15.6801 13.8702 15.8301C13.7202 15.9001 13.6402 15.9001 13.4902 15.9801H13.3402C13.1902 15.9801 13.1102 15.9001 13.1102 15.6801V15.1501C13.1102 15.0001 13.1102 14.9301 13.1802 14.7701C13.2502 14.7001 13.3302 14.6201 13.4802 14.5501C13.8602 14.3201 14.3002 14.1701 14.7502 14.1001C15.2802 13.9501 15.8002 13.8701 16.3302 13.8701C17.3002 13.8001 18.2102 14.1001 18.9502 14.6901C19.5502 15.3701 19.8502 16.2601 19.7702 17.1701L19.9902 20.6201H20.0202ZM15.9002 22.1201C16.2802 22.1201 16.5802 22.0501 16.9502 21.9701C17.3302 21.8201 17.6302 21.5901 17.9302 21.2901C18.0802 21.1401 18.2302 20.9101 18.3102 20.6101C18.3902 20.3101 18.3802 20.0101 18.3802 19.7101V19.2601C18.0802 19.1901 17.7802 19.1101 17.4802 19.1101C17.1802 19.0401 16.8802 19.0401 16.5002 19.0401C15.9802 18.9701 15.4502 19.1101 15.0002 19.4201C14.4002 20.0201 14.3202 20.9901 14.8502 21.6701C15.1502 22.0501 15.5202 22.1901 15.9002 22.1201ZM24.0702 23.2501C23.9202 23.2501 23.7702 23.2501 23.6902 23.1801C23.6202 23.1101 23.5402 22.9501 23.4702 22.8001L21.0702 14.9201C21.0002 14.7701 21.0002 14.6201 21.0002 14.5401C21.0002 14.3901 21.0702 14.3101 21.1502 14.3101H22.2002C22.3502 14.3101 22.5002 14.3101 22.5802 14.3801C22.6502 14.4601 22.7302 14.6101 22.8102 14.7601L24.5302 21.4401L26.1102 14.7601C26.1102 14.6101 26.1802 14.4601 26.3302 14.3801C26.4802 14.3101 26.6302 14.3101 26.7102 14.3101H27.5302C27.6802 14.3101 27.8302 14.3101 27.9102 14.3801C27.9902 14.4601 28.0602 14.6101 28.1402 14.7601L29.7102 21.5901L31.4402 14.7601C31.4402 14.6101 31.5102 14.4601 31.6602 14.3801C31.8102 14.3101 31.8902 14.3101 32.0402 14.3101H33.0202C33.1702 14.3101 33.2502 14.3801 33.2502 14.4601V14.6801C33.2502 14.7501 33.1702 14.8301 33.1702 14.9101L30.7702 22.7101C30.7702 22.8601 30.7002 23.0101 30.5402 23.0901C30.4702 23.2401 30.3202 23.2401 30.1602 23.2401H29.2602C29.1102 23.2401 28.9602 23.2401 28.8802 23.1701C28.8102 23.0201 28.7302 22.9401 28.6502 22.7901L27.0802 16.2601L25.5102 22.7901C25.5102 22.9401 25.4402 23.0901 25.2802 23.1701C25.2102 23.2401 25.0602 23.2401 24.9802 23.2401H24.0802L24.0702 23.2501ZM37.1202 23.5501C36.6002 23.5501 36.0702 23.4801 35.5502 23.4001C35.1702 23.3301 34.7302 23.1801 34.3502 23.0201C34.1202 22.9501 33.9702 22.7201 33.9702 22.4201V21.8901C33.9702 21.6701 34.0402 21.5901 34.1902 21.5901H34.3402C34.4102 21.5901 34.4902 21.6601 34.5602 21.6601C34.9402 21.8101 35.3102 21.9601 35.6802 22.0401C36.0602 22.1101 36.5002 22.1901 36.8802 22.1901C37.4102 22.1901 37.9302 22.1201 38.3802 21.8101C38.6802 21.5901 38.9102 21.2101 38.9102 20.8401C38.9102 20.5401 38.8402 20.3101 38.6102 20.1601C38.3102 19.9301 37.9302 19.7101 37.5602 19.6301L36.0602 19.1801C35.4602 19.0301 34.8602 18.6601 34.4102 18.1301C34.1102 17.6801 33.8802 17.1601 33.8802 16.6301C33.8802 16.2501 33.9602 15.8801 34.1802 15.5101C34.3302 15.2101 34.6302 14.9101 34.9302 14.6901C35.2302 14.4701 35.6102 14.2401 35.9802 14.1701C36.4302 14.0201 36.8002 14.0201 37.2502 14.0201C37.4802 14.0201 37.7002 14.0201 37.9302 14.1001C38.1602 14.1001 38.3802 14.1701 38.6102 14.2501C38.8402 14.3301 38.9902 14.3201 39.2102 14.4001C39.3602 14.4801 39.5102 14.4801 39.6602 14.5501C39.8102 14.6201 39.8802 14.7001 39.9602 14.7701C40.0302 14.8501 40.0302 15.0001 40.0302 15.1501V15.6001C40.0302 15.8201 39.9602 15.9001 39.8002 15.9001C39.6402 15.9001 39.5002 15.8301 39.4202 15.7501C38.8202 15.4501 38.1502 15.3701 37.4702 15.3701C37.0202 15.3701 36.5702 15.4401 36.1202 15.6701C35.8202 15.8201 35.6002 16.1901 35.6702 16.5701C35.6702 16.8701 35.7402 17.1001 35.9702 17.3201C36.2702 17.6201 36.6502 17.7701 37.0902 17.8501L38.5202 18.3001C39.1202 18.4501 39.6402 18.8201 40.0902 19.2701C40.3902 19.6501 40.5402 20.1701 40.5402 20.7001C40.5402 21.0801 40.4702 21.5201 40.2402 21.9001C40.0902 22.2801 39.7902 22.5801 39.4902 22.8001C39.1902 23.0201 38.7402 23.2501 38.3702 23.4001C38.0702 23.4801 37.5502 23.5501 37.1002 23.5501H37.1202Z" fill="#242E3D"></path>
    <path d="M39.0001 28.4299C35.6201 30.8999 30.8201 32.1799 26.6201 32.1799C21.0701 32.1799 15.6701 30.1499 11.5501 26.3999C11.2501 26.0999 11.5501 25.7299 11.9301 25.9499C16.5001 28.6499 21.7501 29.9999 27.0001 29.9999C30.9801 29.9999 34.8801 29.1799 38.5501 27.6799C39.0701 27.4499 39.6001 28.0599 39.0001 28.4299ZM39.5201 30.6799C39.3701 30.9799 39.6701 31.1299 39.9701 30.8999C41.7701 29.3999 42.2201 26.2499 41.8501 25.7999C41.4701 25.3499 38.3201 24.9799 36.4501 26.3199C36.1501 26.5499 36.2301 26.8499 36.5201 26.7699C37.5701 26.6199 39.9701 26.3199 40.4201 26.9199C40.8701 27.5199 39.8901 29.6899 39.5201 30.6699V30.6799Z" fill="#FF9900"></path>
    <path d="M23.6992 62.25V57.05H25.4792C26.2492 57.05 26.8392 57.2701 27.2492 57.7201C27.6592 58.1701 27.8592 58.81 27.8592 59.64C27.8592 60.47 27.6492 61.13 27.2392 61.59C26.8192 62.03 26.2392 62.26 25.4792 62.26H23.6992V62.25ZM24.6192 57.7701V61.53H25.3692C26.4092 61.53 26.9292 60.93 26.9292 59.73V59.57C26.9292 58.38 26.4092 57.78 25.3692 57.78H24.6192V57.7701Z" fill="#242E3D"></path>
    <path d="M29.4098 60.5501C29.4298 60.9301 29.5298 61.2101 29.7298 61.3901C29.9298 61.5601 30.2398 61.6501 30.6398 61.6501C31.0198 61.6501 31.4198 61.5901 31.8498 61.4501V62.0701C31.6798 62.1601 31.4698 62.2301 31.2398 62.2801C31.0098 62.3401 30.7598 62.3601 30.5098 62.3601C29.8898 62.3601 29.4098 62.1901 29.0798 61.8601C28.7498 61.5201 28.5898 61.0201 28.5898 60.3601C28.5898 59.7001 28.7498 59.2201 29.0698 58.8601C29.3898 58.5001 29.8398 58.3201 30.4098 58.3201C30.8998 58.3201 31.2698 58.4501 31.5298 58.7201C31.7898 58.9801 31.9298 59.3601 31.9298 59.8601C31.9298 60.1201 31.9098 60.3501 31.8598 60.5501H29.4098ZM30.3598 58.9701C30.0898 58.9701 29.8698 59.0601 29.6998 59.2401C29.5298 59.4201 29.4298 59.6601 29.4098 59.9701H31.1498V59.9101C31.1498 59.6101 31.0798 59.3701 30.9498 59.2201C30.8098 59.0601 30.6198 58.9701 30.3598 58.9701Z" fill="#242E3D"></path>
    <path d="M33.7908 62.2499L32.3008 58.4299H33.2508L34.2208 61.4499L35.2008 58.4299H36.1008L34.6408 62.2499H33.7808H33.7908Z" fill="#242E3D"></path>
    <path d="M37.4791 59.6599C37.4791 60.2899 37.6091 60.7799 37.8691 61.1099C38.1291 61.4499 38.5191 61.6099 39.0291 61.6099C39.5391 61.6099 39.9191 61.4399 40.1891 61.1099C40.4491 60.7699 40.5891 60.2899 40.5891 59.6599C40.5891 59.0299 40.4491 58.5399 40.1891 58.2099C39.9191 57.8699 39.5391 57.7099 39.0291 57.7099C38.5191 57.7099 38.1291 57.8799 37.8691 58.2099C37.6091 58.5399 37.4791 59.0199 37.4791 59.6599ZM36.5391 59.6599C36.5391 59.0999 36.6391 58.6199 36.8291 58.2199C37.0191 57.8099 37.3091 57.4899 37.6891 57.2699C38.0691 57.0399 38.5091 56.9299 39.0291 56.9299C39.5491 56.9299 39.9591 57.0399 40.3291 57.2599C40.7091 57.4699 40.9891 57.7799 41.1991 58.1999C41.4091 58.6099 41.5191 59.0999 41.5191 59.6699C41.5191 60.2399 41.4191 60.6999 41.2291 61.1099C41.0291 61.5199 40.7491 61.8299 40.3691 62.0599C39.9891 62.2799 39.5491 62.3899 39.0291 62.3899C38.5091 62.3899 38.0891 62.2799 37.7191 62.0699C37.3491 61.8599 37.0591 61.5399 36.8491 61.1299C36.6491 60.7199 36.5391 60.2299 36.5391 59.6699V59.6599Z" fill="#242E3D"></path>
    <path d="M42.4395 63.8001V58.4301H43.1795L43.2595 58.8201C43.4295 58.6601 43.6195 58.5301 43.8295 58.4601C44.0495 58.3701 44.2695 58.3301 44.4995 58.3301C44.9695 58.3301 45.3595 58.5101 45.6395 58.8701C45.9195 59.2201 46.0595 59.7001 46.0595 60.2901C46.0595 60.7001 45.9895 61.0501 45.8595 61.3601C45.7395 61.6601 45.5495 61.9101 45.2995 62.0901C45.0595 62.2601 44.7695 62.3501 44.4395 62.3501C44.2295 62.3501 44.0295 62.3101 43.8295 62.2401C43.6295 62.1601 43.4695 62.0601 43.3295 61.9301V63.8101H42.4395V63.8001ZM44.2195 59.0201C43.8895 59.0201 43.5995 59.1101 43.3295 59.3001V61.3501C43.5995 61.5501 43.8995 61.6401 44.2195 61.6401C44.5395 61.6401 44.7695 61.5301 44.9195 61.3101C45.0795 61.1001 45.1495 60.7601 45.1495 60.3101C45.1495 59.8601 45.0695 59.5501 44.9195 59.3401C44.7695 59.1301 44.5395 59.0101 44.2195 59.0101V59.0201Z" fill="#242E3D"></path>
    <path d="M48.6697 61.2201C48.6697 61.1101 48.6297 61.0201 48.5597 60.9501C48.4897 60.8801 48.3597 60.8101 48.1697 60.7401L47.5497 60.5101C46.9897 60.2901 46.7097 59.9401 46.7097 59.4601C46.7097 59.1101 46.8397 58.8401 47.0997 58.6401C47.3697 58.4401 47.7097 58.3401 48.1397 58.3401C48.5697 58.3401 48.9397 58.4201 49.2597 58.5801V59.2001C48.8797 59.0801 48.5197 59.0101 48.1897 59.0101C47.9597 59.0101 47.7997 59.0401 47.6897 59.1201C47.5797 59.1901 47.5297 59.2901 47.5297 59.4401C47.5297 59.5501 47.5697 59.6401 47.6497 59.7101C47.7197 59.7701 47.8597 59.8501 48.0597 59.9301L48.6497 60.1501C48.9497 60.2701 49.1597 60.4101 49.2897 60.5701C49.4197 60.7301 49.4897 60.9301 49.4897 61.1701C49.4897 61.5501 49.3497 61.8501 49.0797 62.0601C48.8097 62.2801 48.4397 62.3901 47.9597 62.3901C47.7297 62.3901 47.4997 62.3601 47.2697 62.3101C47.0497 62.2601 46.8597 62.1901 46.6797 62.1001V61.4801C47.1597 61.6401 47.5797 61.7101 47.9597 61.7101C48.2097 61.7101 48.3897 61.6701 48.4997 61.5901C48.6197 61.5201 48.6797 61.4001 48.6797 61.2401L48.6697 61.2201Z" fill="#242E3D"></path>
    <path d="M53.2705 59.8599C52.8505 59.6999 52.5405 59.5099 52.3405 59.2899C52.1505 59.0599 52.0605 58.7899 52.0605 58.4599C52.0605 57.9899 52.2305 57.6199 52.5505 57.3499C52.8805 57.0799 53.3105 56.9399 53.8705 56.9399C54.3305 56.9399 54.8005 57.0299 55.2805 57.2099V57.9399C54.7905 57.7899 54.3505 57.7199 53.9405 57.7199C53.2805 57.7199 52.9405 57.9399 52.9405 58.3899C52.9405 58.5599 53.0005 58.6999 53.1205 58.8099C53.2405 58.9199 53.4605 59.0299 53.7605 59.1399L54.4105 59.3699C54.8205 59.5299 55.1205 59.7099 55.3105 59.9299C55.5005 60.1499 55.5905 60.4299 55.5905 60.7699C55.5905 61.2699 55.4105 61.6699 55.0505 61.9499C54.7005 62.2399 54.2105 62.3799 53.6005 62.3799C53.3305 62.3799 53.0705 62.3499 52.8005 62.2999C52.5305 62.2499 52.3005 62.1699 52.1105 62.0799V61.3499C52.3505 61.4299 52.6105 61.4899 52.8705 61.5399C53.1405 61.5899 53.3805 61.6099 53.6005 61.6099C53.9505 61.6099 54.2205 61.5499 54.4105 61.4199C54.6005 61.2899 54.7005 61.0999 54.7005 60.8699C54.7005 60.6999 54.6405 60.5599 54.5205 60.4499C54.4105 60.3399 54.2105 60.2399 53.9205 60.1199L53.2505 59.8599H53.2705Z" fill="#242E3D"></path>
    <path d="M57.1403 60.5501C57.1503 60.9301 57.2603 61.2101 57.4603 61.3901C57.6603 61.5601 57.9703 61.6501 58.3703 61.6501C58.7503 61.6501 59.1503 61.5901 59.5803 61.4501V62.0701C59.4103 62.1601 59.2003 62.2301 58.9703 62.2801C58.7303 62.3401 58.4903 62.3601 58.2403 62.3601C57.6103 62.3601 57.1403 62.1901 56.8103 61.8601C56.4803 61.5201 56.3203 61.0201 56.3203 60.3601C56.3203 59.7001 56.4803 59.2201 56.8003 58.8601C57.1203 58.5001 57.5703 58.3201 58.1403 58.3201C58.6203 58.3201 59.0003 58.4501 59.2603 58.7201C59.5203 58.9801 59.6603 59.3601 59.6603 59.8601C59.6603 60.1201 59.6403 60.3501 59.5903 60.5501H57.1403ZM58.0903 58.9701C57.8203 58.9701 57.6003 59.0601 57.4303 59.2401C57.2603 59.4201 57.1603 59.6601 57.1403 59.9701H58.8703V59.9101C58.8703 59.6101 58.8003 59.3701 58.6703 59.2201C58.5303 59.0601 58.3403 58.9701 58.0803 58.9701H58.0903Z" fill="#242E3D"></path>
    <path d="M60.5195 62.2499V58.4299H61.2595L61.3795 58.9999C61.5795 58.7799 61.7695 58.6299 61.9395 58.5399C62.1095 58.4499 62.2995 58.3999 62.5095 58.3999C62.5995 58.3999 62.6995 58.3999 62.8095 58.4199V59.2299C62.6695 59.2099 62.5195 59.1999 62.3795 59.1999C62.0095 59.1999 61.6895 59.2899 61.4095 59.4799V62.2499H60.5195Z" fill="#242E3D"></path>
    <path d="M64.4099 62.2499L62.9199 58.4299H63.8699L64.8399 61.4499L65.8199 58.4299H66.7199L65.2599 62.2499H64.3999H64.4099Z" fill="#242E3D"></path>
    <path d="M67.35 62.25V58.43H68.23V62.25H67.35ZM67.78 57.8C67.62 57.8 67.49 57.76 67.39 57.67C67.3 57.58 67.25 57.45 67.25 57.29C67.25 57.13 67.3 57 67.39 56.91C67.48 56.82 67.61 56.77 67.78 56.77C67.95 56.77 68.08 56.82 68.18 56.91C68.27 57 68.32 57.12 68.32 57.29C68.32 57.46 68.27 57.57 68.18 57.67C68.09 57.76 67.95 57.8 67.78 57.8Z" fill="#242E3D"></path>
    <path d="M72.0304 62.1001C71.7304 62.2601 71.3804 62.3301 70.9804 62.3301C70.3904 62.3301 69.9404 62.1601 69.6204 61.8301C69.3104 61.4901 69.1504 61.0101 69.1504 60.3801C69.1504 59.7501 69.3104 59.2401 69.6404 58.8901C69.9704 58.5301 70.4204 58.3501 71.0104 58.3501C71.3604 58.3501 71.7004 58.4301 72.0104 58.5701V59.2001C71.6704 59.1001 71.3904 59.0501 71.1504 59.0501C70.7704 59.0501 70.5004 59.1501 70.3204 59.3501C70.1404 59.5501 70.0504 59.8701 70.0504 60.3001V60.3901C70.0504 60.8101 70.1404 61.1301 70.3204 61.3301C70.5004 61.5301 70.7804 61.6201 71.1504 61.6201C71.4104 61.6201 71.7104 61.5701 72.0304 61.4701V62.0901V62.1001Z" fill="#242E3D"></path>
    <path d="M73.4391 60.5501C73.4591 60.9301 73.5591 61.2101 73.7591 61.3901C73.9591 61.5601 74.2691 61.6501 74.6691 61.6501C75.0491 61.6501 75.4491 61.5901 75.8791 61.4501V62.0701C75.7091 62.1601 75.4991 62.2301 75.2691 62.2801C75.0391 62.3401 74.7891 62.3601 74.5391 62.3601C73.9191 62.3601 73.4391 62.1901 73.1091 61.8601C72.7791 61.5201 72.6191 61.0201 72.6191 60.3601C72.6191 59.7001 72.7791 59.2201 73.0991 58.8601C73.4191 58.5001 73.8691 58.3201 74.4391 58.3201C74.9191 58.3201 75.2991 58.4501 75.5591 58.7201C75.8191 58.9801 75.9591 59.3601 75.9591 59.8601C75.9591 60.1201 75.9391 60.3501 75.8891 60.5501H73.4391ZM74.3891 58.9701C74.1191 58.9701 73.8991 59.0601 73.7291 59.2401C73.5591 59.4201 73.4591 59.6601 73.4391 59.9701H75.1791V59.9101C75.1791 59.6101 75.1091 59.3701 74.9791 59.2201C74.8391 59.0601 74.6491 58.9701 74.3891 58.9701Z" fill="#242E3D"></path>
    <path d="M78.5406 61.2201C78.5406 61.1101 78.5106 61.0201 78.4406 60.9501C78.3706 60.8801 78.2406 60.8101 78.0506 60.7401L77.4305 60.5101C76.8705 60.2901 76.5905 59.9401 76.5905 59.4601C76.5905 59.1101 76.7206 58.8401 76.9806 58.6401C77.2406 58.4401 77.5905 58.3401 78.0205 58.3401C78.4505 58.3401 78.8205 58.4201 79.1405 58.5801V59.2001C78.7605 59.0801 78.4005 59.0101 78.0705 59.0101C77.8405 59.0101 77.6805 59.0401 77.5705 59.1201C77.4605 59.1901 77.4106 59.2901 77.4106 59.4401C77.4106 59.5501 77.4505 59.6401 77.5305 59.7101C77.6005 59.7701 77.7406 59.8501 77.9406 59.9301L78.5305 60.1501C78.8305 60.2701 79.0405 60.4101 79.1705 60.5701C79.3005 60.7301 79.3706 60.9301 79.3706 61.1701C79.3706 61.5501 79.2305 61.8501 78.9605 62.0601C78.7005 62.2801 78.3205 62.3901 77.8405 62.3901C77.6105 62.3901 77.3806 62.3601 77.1506 62.3101C76.9306 62.2601 76.7405 62.1901 76.5605 62.1001V61.4801C77.0405 61.6401 77.4605 61.7101 77.8405 61.7101C78.0905 61.7101 78.2705 61.6701 78.3805 61.5901C78.5005 61.5201 78.5605 61.4001 78.5605 61.2401L78.5406 61.2201Z" fill="#242E3D"></path>
    <path d="M40.5204 69.61C40.1204 69.77 39.6704 69.84 39.1704 69.84C38.3304 69.84 37.7104 69.63 37.2804 69.18C36.8604 68.73 36.6504 68.08 36.6504 67.22C36.6504 66.36 36.8704 65.66 37.3104 65.18C37.7504 64.7 38.3804 64.45 39.2004 64.45C39.6504 64.45 40.0704 64.52 40.4404 64.66V65.41C39.9504 65.3 39.5604 65.25 39.2804 65.25C38.7204 65.25 38.3004 65.4 38.0304 65.7C37.7504 66 37.6204 66.46 37.6204 67.07V67.25C37.6204 67.86 37.7504 68.31 38.0204 68.61C38.2904 68.9 38.7104 69.04 39.2704 69.04C39.5804 69.04 40.0004 68.98 40.5204 68.85V69.6V69.61Z" fill="#242E3D"></path>
    <path d="M42.9496 69.8701C42.3696 69.8701 41.9196 69.6901 41.5896 69.3301C41.2596 68.9701 41.0996 68.4701 41.0996 67.8401C41.0996 67.2101 41.2596 66.7201 41.5896 66.3601C41.9196 66.0001 42.3696 65.8201 42.9496 65.8201C43.5296 65.8201 43.9696 66.0001 44.2996 66.3601C44.6296 66.7101 44.7896 67.2001 44.7896 67.8401C44.7896 68.4801 44.6296 68.9701 44.2996 69.3301C43.9796 69.6901 43.5296 69.8701 42.9496 69.8701ZM42.9496 69.1601C43.5796 69.1601 43.8996 68.7201 43.8996 67.8401C43.8996 66.9601 43.5796 66.5201 42.9496 66.5201C42.3196 66.5201 41.9996 66.9601 41.9996 67.8401C41.9996 68.7201 42.3196 69.1601 42.9496 69.1601Z" fill="#242E3D"></path>
    <path d="M50.5095 69.7501V67.1601C50.5095 66.9301 50.4595 66.7701 50.3695 66.6701C50.2795 66.5701 50.1395 66.5201 49.9395 66.5201C49.7795 66.5201 49.6095 66.5501 49.4395 66.6001C49.2695 66.6501 49.1195 66.7201 48.9895 66.8001V69.7501H48.0995V67.1601C48.0995 66.9301 48.0495 66.7701 47.9595 66.6701C47.8695 66.5701 47.7295 66.5201 47.5295 66.5201C47.3795 66.5201 47.2195 66.5401 47.0495 66.5901C46.8895 66.6401 46.7295 66.7101 46.5795 66.8001V69.7501H45.6895V65.9301H46.4295L46.5095 66.3201C46.7595 66.1501 46.9895 66.0201 47.2095 65.9401C47.4395 65.8601 47.6595 65.8201 47.8895 65.8201C48.3495 65.8201 48.6695 65.9901 48.8495 66.3401C49.3495 66.0001 49.8295 65.8201 50.2795 65.8201C50.6395 65.8201 50.9195 65.9201 51.1095 66.1101C51.3095 66.3001 51.3995 66.5701 51.3995 66.9401V69.7401H50.5095V69.7501Z" fill="#242E3D"></path>
    <path d="M52.4609 71.3001V65.9301H53.2009L53.2809 66.3201C53.4509 66.1601 53.6409 66.0301 53.8509 65.9601C54.0709 65.8701 54.2909 65.8301 54.5209 65.8301C54.9909 65.8301 55.3809 66.0101 55.6609 66.3701C55.9409 66.7201 56.0809 67.2001 56.0809 67.7901C56.0809 68.2001 56.0109 68.5501 55.8809 68.8601C55.7609 69.1601 55.5709 69.4101 55.3209 69.5901C55.0809 69.7601 54.7909 69.8501 54.4609 69.8501C54.2509 69.8501 54.0509 69.8101 53.8509 69.7401C53.6509 69.6601 53.4909 69.5601 53.3509 69.4301V71.3101H52.4609V71.3001ZM54.2409 66.5201C53.9209 66.5201 53.6209 66.6101 53.3509 66.8001V68.8501C53.6209 69.0501 53.9209 69.1401 54.2409 69.1401C54.5609 69.1401 54.8009 69.0301 54.9409 68.8101C55.1009 68.6001 55.1709 68.2601 55.1709 67.8101C55.1709 67.3601 55.0909 67.0501 54.9409 66.8401C54.7909 66.6301 54.5609 66.5101 54.2409 66.5101V66.5201Z" fill="#242E3D"></path>
    <path d="M57.5798 68.0501C57.5998 68.4301 57.6998 68.7101 57.8998 68.8901C58.0998 69.0601 58.4098 69.1501 58.8098 69.1501C59.1898 69.1501 59.5898 69.0901 60.0198 68.9501V69.5701C59.8498 69.6601 59.6398 69.7301 59.4098 69.7801C59.1798 69.8301 58.9298 69.8601 58.6798 69.8601C58.0598 69.8601 57.5798 69.6901 57.2498 69.3601C56.9198 69.0201 56.7598 68.5201 56.7598 67.8601C56.7598 67.2001 56.9198 66.7201 57.2398 66.3601C57.5598 66.0001 58.0098 65.8201 58.5798 65.8201C59.0598 65.8201 59.4398 65.9501 59.6998 66.2201C59.9598 66.4801 60.0998 66.8601 60.0998 67.3601C60.0998 67.6201 60.0798 67.8501 60.0298 68.0501H57.5798ZM58.5298 66.4701C58.2698 66.4701 58.0398 66.5601 57.8698 66.7401C57.6998 66.9201 57.5998 67.1601 57.5798 67.4701H59.3098V67.4101C59.3098 67.1101 59.2398 66.8701 59.1098 66.7201C58.9698 66.5601 58.7798 66.4701 58.5198 66.4701H58.5298Z" fill="#242E3D"></path>
    <path d="M63.1595 69.6599C62.8995 69.7499 62.6195 69.7999 62.3295 69.7999C61.9295 69.7999 61.6295 69.7099 61.4395 69.5299C61.2495 69.3399 61.1595 69.0599 61.1595 68.6699V66.6099H60.5195V66.0499L61.1995 65.9599L61.3295 64.8899H62.0595V65.9299H63.1495V66.6099H62.0595V68.6399C62.0595 68.7999 62.0995 68.9299 62.1795 68.9999C62.2695 69.0699 62.4095 69.1099 62.5995 69.1099C62.8095 69.1099 62.9995 69.0999 63.1695 69.0499V69.6599H63.1595Z" fill="#242E3D"></path>
    <path d="M64.4997 68.0501C64.5197 68.4301 64.6197 68.7101 64.8197 68.8901C65.0197 69.0601 65.3297 69.1501 65.7297 69.1501C66.1097 69.1501 66.5097 69.0901 66.9397 68.9501V69.5701C66.7697 69.6601 66.5597 69.7301 66.3297 69.7801C66.0997 69.8301 65.8497 69.8601 65.5997 69.8601C64.9797 69.8601 64.4997 69.6901 64.1697 69.3601C63.8397 69.0201 63.6797 68.5201 63.6797 67.8601C63.6797 67.2001 63.8397 66.7201 64.1597 66.3601C64.4797 66.0001 64.9297 65.8201 65.4997 65.8201C65.9797 65.8201 66.3597 65.9501 66.6197 66.2201C66.8797 66.4801 67.0197 66.8601 67.0197 67.3601C67.0197 67.6201 66.9997 67.8501 66.9497 68.0501H64.4997ZM65.4497 66.4701C65.1897 66.4701 64.9597 66.5601 64.7897 66.7401C64.6197 66.9201 64.5197 67.1601 64.4997 67.4701H66.2297V67.4101C66.2297 67.1101 66.1597 66.8701 66.0297 66.7201C65.8897 66.5601 65.6997 66.4701 65.4397 66.4701H65.4497Z" fill="#242E3D"></path>
    <path d="M70.4109 69.7501V67.2201C70.4109 66.9801 70.3609 66.8001 70.2609 66.6901C70.1609 66.5701 69.9909 66.5201 69.7809 66.5201C69.4509 66.5201 69.1209 66.6301 68.7709 66.8501V69.7601H67.8809V65.9401H68.6209L68.7009 66.3601C69.1709 66.0101 69.6709 65.8301 70.1809 65.8301C70.5509 65.8301 70.8209 65.9301 71.0109 66.1201C71.2009 66.3101 71.2909 66.5801 71.2909 66.9501V69.7501H70.4109Z" fill="#242E3D"></path>
    <path d="M75.0304 69.6001C74.7304 69.7601 74.3804 69.8301 73.9804 69.8301C73.3904 69.8301 72.9404 69.6601 72.6204 69.3301C72.3104 68.9901 72.1504 68.5101 72.1504 67.8801C72.1504 67.2501 72.3104 66.7401 72.6404 66.3901C72.9704 66.0301 73.4204 65.8501 74.0104 65.8501C74.3604 65.8501 74.7004 65.9301 75.0104 66.0701V66.7001C74.6704 66.6001 74.3904 66.5501 74.1504 66.5501C73.7704 66.5501 73.5004 66.6501 73.3204 66.8501C73.1404 67.0501 73.0504 67.3701 73.0504 67.8001V67.8901C73.0504 68.3101 73.1404 68.6301 73.3204 68.8301C73.5004 69.0301 73.7804 69.1201 74.1504 69.1201C74.4104 69.1201 74.7104 69.0701 75.0304 68.9701V69.5901V69.6001Z" fill="#242E3D"></path>
    <path d="M76.8301 69.7999L75.3301 65.9299H76.2801L77.2501 68.9499L78.2301 65.9299H79.1301L77.4201 70.3599C77.2801 70.7299 77.1101 70.9899 76.9201 71.1499C76.7301 71.3099 76.4901 71.3999 76.1801 71.3999C75.9601 71.3999 75.7501 71.3599 75.5601 71.2799V70.6599C75.6801 70.6899 75.8001 70.7099 75.9401 70.7099C76.1501 70.7099 76.3201 70.6699 76.4201 70.5899C76.5301 70.5099 76.6301 70.3399 76.7401 70.0599L76.8301 69.7999Z" fill="#242E3D"></path>
  </g>
  <defs>
    <clipPath id="clip0_8175_71">
      <rect width="90" height="90" fill="white"></rect>
    </clipPath>
  </defs>
</svg>
