<?xml version="1.0" encoding="UTF-8"?>
<svg xmlns="http://www.w3.org/2000/svg" width="90" height="90" viewBox="0 0 90 90" fill="none">
  <g clip-path="url(#clip0_8175_38)">
    <path d="M61.2 0H0V61.5L28.5 90H90V28.8L61.2 0Z" fill="white"></path>
    <path d="M60.45 1.88L88.13 29.56V88.13H29.25L1.88 60.75V1.88H60.45ZM61.2 0H0V61.5L28.5 90H90V28.8L61.2 0Z" fill="#242E3D"></path>
    <path d="M14.6202 50.7001V54.0001H12.7402V45.0001H16.1902C17.0102 44.9301 17.7602 45.2301 18.4402 45.7501C19.5602 46.9501 19.5602 48.7501 18.4402 49.9501C17.8402 50.4801 17.0102 50.7701 16.1902 50.7001H14.6202ZM14.6202 49.2701H15.9702C16.3502 49.2701 16.7202 49.2001 16.9402 48.8901C17.3902 48.2901 17.3902 47.3901 16.9402 46.7901C16.6402 46.5601 16.3402 46.4101 15.9702 46.4101H14.6202V49.2601V49.2701ZM27.1502 54.0001L26.5502 51.9801H23.4802L22.8802 54.0001H20.8602L24.0102 45.0001H26.1902L29.2602 54.0001H27.1602H27.1502ZM23.8502 50.5501H26.1002L24.9802 46.8001L23.8602 50.5501H23.8502ZM31.9502 54.0001V45.0001H35.4002C36.2302 44.9301 36.9802 45.2301 37.6502 45.7501C38.1802 46.2701 38.4802 47.0201 38.4802 47.7701C38.4802 48.3001 38.3302 48.7501 38.0302 49.2001C37.7302 49.6501 37.2802 49.9501 36.8302 50.1801L39.0802 54.0801H37.0602L35.1102 50.5601H33.8302V54.0101H31.9502V54.0001ZM33.8202 49.1201H35.1702C35.8502 49.1901 36.4402 48.7401 36.5202 48.0701V47.6901C36.6002 47.0101 36.1402 46.4201 35.5502 46.3401H33.9002V49.1101H33.8302L33.8202 49.1201ZM43.6502 54.0001V46.5701H40.8802V45.0001H48.3102V46.5701H45.5302V54.0001H43.6602H43.6502ZM53.0202 47.7701V54.0001H51.3002V45.0001H53.4002L57.0802 51.3001V45.0001H58.8102V54.0001H56.7102L53.0302 47.7701H53.0202ZM62.2502 54.0001V45.0001H68.1802V46.5001H64.2002V48.6001H67.4302V50.1001H64.2002V52.5001H68.1802V54.0001H62.2502ZM71.6202 54.0001V45.0001H75.0702C75.8902 44.9301 76.6402 45.2301 77.3202 45.7501C77.8502 46.2701 78.1402 47.0201 78.1402 47.7701C78.1402 48.3001 77.9902 48.7501 77.6902 49.2001C77.3902 49.6501 76.9402 49.9501 76.4902 50.1801L78.7402 54.0801H76.7202L74.7702 50.5601H73.5002V54.0101H71.6202V54.0001ZM73.5002 49.1201H74.8502C75.5202 49.1901 76.1202 48.7401 76.2002 48.0701V47.6901C76.2702 47.0101 75.8202 46.4201 75.2302 46.3401H73.5002V49.1101V49.1201Z" fill="#242E3D"></path>
    <path d="M20.0202 20.6201C20.0202 20.9201 20.0202 21.2201 20.1702 21.5201C20.2402 21.7501 20.3902 22.0501 20.4702 22.2701C20.5402 22.3501 20.5402 22.4201 20.5402 22.5001C20.5402 22.6501 20.4702 22.7301 20.3102 22.8001L19.6302 23.2501H19.4102C19.2602 23.2501 19.1802 23.1801 19.1102 23.1001C18.9602 22.9501 18.8102 22.8001 18.7302 22.6501C18.6602 22.5001 18.5002 22.2701 18.4302 22.0501C17.6802 22.9501 16.6302 23.4801 15.4302 23.4801C14.6802 23.5501 13.9302 23.2501 13.4102 22.7301C12.8802 22.2001 12.6602 21.5301 12.6602 20.7801C12.6602 19.9601 12.9602 19.2101 13.5602 18.6801C14.2402 18.1501 15.1302 17.8601 16.0402 17.8601C16.4202 17.8601 16.7902 17.8601 17.0902 17.9301L18.2102 18.1501V17.4001C18.2802 16.8001 18.1302 16.2001 17.7602 15.7501C17.3102 15.3701 16.7102 15.2301 16.1102 15.3001C15.7302 15.3001 15.3602 15.3701 14.9902 15.4501C14.6202 15.5301 14.2402 15.6801 13.8702 15.8301C13.7202 15.9001 13.6402 15.9001 13.4902 15.9801H13.3402C13.1902 15.9801 13.1102 15.9001 13.1102 15.6801V15.1501C13.1102 15.0001 13.1102 14.9301 13.1802 14.7701C13.2502 14.7001 13.3302 14.6201 13.4802 14.5501C13.8602 14.3201 14.3002 14.1701 14.7502 14.1001C15.2802 13.9501 15.8002 13.8701 16.3302 13.8701C17.3002 13.8001 18.2102 14.1001 18.9502 14.6901C19.5502 15.3701 19.8502 16.2601 19.7702 17.1701L19.9902 20.6201H20.0202ZM15.9002 22.1201C16.2802 22.1201 16.5802 22.0501 16.9502 21.9701C17.3302 21.8201 17.6302 21.5901 17.9302 21.2901C18.0802 21.1401 18.2302 20.9101 18.3102 20.6101C18.3902 20.3101 18.3802 20.0101 18.3802 19.7101V19.2601C18.0802 19.1901 17.7802 19.1101 17.4802 19.1101C17.1802 19.0401 16.8802 19.0401 16.5002 19.0401C15.9802 18.9701 15.4502 19.1101 15.0002 19.4201C14.4002 20.0201 14.3202 20.9901 14.8502 21.6701C15.1502 22.0501 15.5202 22.1901 15.9002 22.1201ZM24.0702 23.2501C23.9202 23.2501 23.7702 23.2501 23.6902 23.1801C23.6202 23.1101 23.5402 22.9501 23.4702 22.8001L21.0702 14.9201C21.0002 14.7701 21.0002 14.6201 21.0002 14.5401C21.0002 14.3901 21.0702 14.3101 21.1502 14.3101H22.2002C22.3502 14.3101 22.5002 14.3101 22.5802 14.3801C22.6502 14.4601 22.7302 14.6101 22.8102 14.7601L24.5302 21.4401L26.1102 14.7601C26.1102 14.6101 26.1802 14.4601 26.3302 14.3801C26.4802 14.3101 26.6302 14.3101 26.7102 14.3101H27.5302C27.6802 14.3101 27.8302 14.3101 27.9102 14.3801C27.9902 14.4601 28.0602 14.6101 28.1402 14.7601L29.7102 21.5901L31.4402 14.7601C31.4402 14.6101 31.5102 14.4601 31.6602 14.3801C31.8102 14.3101 31.8902 14.3101 32.0402 14.3101H33.0202C33.1702 14.3101 33.2502 14.3801 33.2502 14.4601V14.6801C33.2502 14.7501 33.1702 14.8301 33.1702 14.9101L30.7702 22.7101C30.7702 22.8601 30.7002 23.0101 30.5402 23.0901C30.4702 23.2401 30.3202 23.2401 30.1602 23.2401H29.2602C29.1102 23.2401 28.9602 23.2401 28.8802 23.1701C28.8102 23.0201 28.7302 22.9401 28.6502 22.7901L27.0802 16.2601L25.5102 22.7901C25.5102 22.9401 25.4402 23.0901 25.2802 23.1701C25.2102 23.2401 25.0602 23.2401 24.9802 23.2401H24.0802L24.0702 23.2501ZM37.1202 23.5501C36.6002 23.5501 36.0702 23.4801 35.5502 23.4001C35.1702 23.3301 34.7302 23.1801 34.3502 23.0201C34.1202 22.9501 33.9702 22.7201 33.9702 22.4201V21.8901C33.9702 21.6701 34.0402 21.5901 34.1902 21.5901H34.3402C34.4102 21.5901 34.4902 21.6601 34.5602 21.6601C34.9402 21.8101 35.3102 21.9601 35.6802 22.0401C36.0602 22.1101 36.5002 22.1901 36.8802 22.1901C37.4102 22.1901 37.9302 22.1201 38.3802 21.8101C38.6802 21.5901 38.9102 21.2101 38.9102 20.8401C38.9102 20.5401 38.8402 20.3101 38.6102 20.1601C38.3102 19.9301 37.9302 19.7101 37.5602 19.6301L36.0602 19.1801C35.4602 19.0301 34.8602 18.6601 34.4102 18.1301C34.1102 17.6801 33.8802 17.1601 33.8802 16.6301C33.8802 16.2501 33.9602 15.8801 34.1802 15.5101C34.3302 15.2101 34.6302 14.9101 34.9302 14.6901C35.2302 14.4701 35.6102 14.2401 35.9802 14.1701C36.4302 14.0201 36.8002 14.0201 37.2502 14.0201C37.4802 14.0201 37.7002 14.0201 37.9302 14.1001C38.1602 14.1001 38.3802 14.1701 38.6102 14.2501C38.8402 14.3301 38.9902 14.3201 39.2102 14.4001C39.3602 14.4801 39.5102 14.4801 39.6602 14.5501C39.8102 14.6201 39.8802 14.7001 39.9602 14.7701C40.0302 14.8501 40.0302 15.0001 40.0302 15.1501V15.6001C40.0302 15.8201 39.9602 15.9001 39.8002 15.9001C39.6402 15.9001 39.5002 15.8301 39.4202 15.7501C38.8202 15.4501 38.1502 15.3701 37.4702 15.3701C37.0202 15.3701 36.5702 15.4401 36.1202 15.6701C35.8202 15.8201 35.6002 16.1901 35.6702 16.5701C35.6702 16.8701 35.7402 17.1001 35.9702 17.3201C36.2702 17.6201 36.6502 17.7701 37.0902 17.8501L38.5202 18.3001C39.1202 18.4501 39.6402 18.8201 40.0902 19.2701C40.3902 19.6501 40.5402 20.1701 40.5402 20.7001C40.5402 21.0801 40.4702 21.5201 40.2402 21.9001C40.0902 22.2801 39.7902 22.5801 39.4902 22.8001C39.1902 23.0201 38.7402 23.2501 38.3702 23.4001C38.0702 23.4801 37.5502 23.5501 37.1002 23.5501H37.1202Z" fill="#242E3D"></path>
    <path d="M39.0001 28.4299C35.6201 30.8999 30.8201 32.1799 26.6201 32.1799C21.0701 32.1799 15.6701 30.1499 11.5501 26.3999C11.2501 26.0999 11.5501 25.7299 11.9301 25.9499C16.5001 28.6499 21.7501 29.9999 27.0001 29.9999C30.9801 29.9999 34.8801 29.1799 38.5501 27.6799C39.0701 27.4499 39.6001 28.0599 39.0001 28.4299ZM39.5201 30.6799C39.3701 30.9799 39.6701 31.1299 39.9701 30.8999C41.7701 29.3999 42.2201 26.2499 41.8501 25.7999C41.4701 25.3499 38.3201 24.9799 36.4501 26.3199C36.1501 26.5499 36.2301 26.8499 36.5201 26.7699C37.5701 26.6199 39.9701 26.3199 40.4201 26.9199C40.8701 27.5199 39.8901 29.6899 39.5201 30.6699V30.6799Z" fill="#FF9900"></path>
    <path d="M32.67 60.7501V57.6301L31.58 59.7001H30.92L29.87 57.6401V60.7401H29.21V56.5801H30.02L31.27 59.0601L32.55 56.5801H33.32V60.7401H32.66L32.67 60.7501Z" fill="#242E3D"></path>
    <path d="M34.2802 60.7501V57.6901H34.9802V60.7501H34.2802ZM34.6302 57.1901C34.5002 57.1901 34.3902 57.1501 34.3102 57.0801C34.2402 57.0101 34.2002 56.9101 34.2002 56.7901C34.2002 56.6601 34.2402 56.5601 34.3102 56.4801C34.3802 56.4101 34.4902 56.3701 34.6302 56.3701C34.7702 56.3701 34.8602 56.4101 34.9302 56.4801C35.0102 56.5501 35.0502 56.6501 35.0502 56.7901C35.0502 56.9101 35.0102 57.0101 34.9302 57.0801C34.8602 57.1501 34.7602 57.1901 34.6302 57.1901Z" fill="#242E3D"></path>
    <path d="M37.8197 60.3501C37.5597 60.5801 37.2697 60.6901 36.9397 60.6901C36.5597 60.6901 36.2597 60.5601 36.0497 60.2801C35.8297 60.0001 35.7197 59.6201 35.7197 59.1601C35.7197 58.8601 35.7697 58.5901 35.8597 58.3601C35.9597 58.1301 36.1097 57.9401 36.2897 57.8101C36.4797 57.6801 36.6997 57.6101 36.9597 57.6101C37.3097 57.6101 37.6097 57.7301 37.8597 57.9701L37.9197 57.6901H38.5197V60.5401C38.5197 61.0201 38.3897 61.4001 38.1197 61.6601C37.8597 61.9201 37.4897 62.0601 37.0097 62.0601C36.6397 62.0601 36.2997 61.9801 35.9697 61.8101V61.3101C36.3397 61.4301 36.6597 61.4901 36.9697 61.4901C37.2797 61.4901 37.4797 61.4201 37.6097 61.2801C37.7497 61.1501 37.8197 60.9201 37.8197 60.6101V60.3501ZM37.1497 60.1401C37.3797 60.1401 37.6097 60.0601 37.8197 59.9001V58.3701C37.6197 58.2301 37.3897 58.1601 37.1497 58.1601C36.9097 58.1601 36.7297 58.2401 36.6097 58.4101C36.4897 58.5701 36.4297 58.8101 36.4297 59.1401C36.4297 59.8201 36.6697 60.1501 37.1397 60.1501L37.1497 60.1401Z" fill="#242E3D"></path>
    <path d="M39.3896 60.7499V57.6899H39.9796L40.0696 58.1499C40.2296 57.9799 40.3896 57.8599 40.5296 57.7899C40.6696 57.7099 40.8197 57.6699 40.9897 57.6699C41.0597 57.6699 41.1397 57.6699 41.2397 57.6899V58.3299C41.1197 58.3099 41.0096 58.3099 40.8896 58.3099C40.5896 58.3099 40.3296 58.3899 40.0996 58.5299V60.7399H39.3997L39.3896 60.7499Z" fill="#242E3D"></path>
    <path d="M43.47 60.7501L43.42 60.4601C43.28 60.5801 43.12 60.6701 42.95 60.7401C42.78 60.8101 42.61 60.8501 42.45 60.8501C42.17 60.8501 41.94 60.7701 41.76 60.6001C41.59 60.4301 41.5 60.2101 41.5 59.9301C41.5 59.6301 41.6 59.4001 41.82 59.2301C42.04 59.0501 42.33 58.9601 42.69 58.9601C42.9 58.9601 43.14 58.9901 43.39 59.0501V58.7001C43.39 58.5001 43.34 58.3601 43.25 58.2801C43.16 58.1901 43.01 58.1501 42.79 58.1501C42.48 58.1501 42.11 58.2201 41.71 58.3501V57.8601C41.85 57.7801 42.04 57.7301 42.25 57.6901C42.46 57.6401 42.69 57.6201 42.91 57.6201C43.3 57.6201 43.59 57.7001 43.78 57.8701C43.97 58.0301 44.06 58.2801 44.06 58.6101V60.7701H43.47V60.7501ZM42.65 60.3401C42.77 60.3401 42.89 60.3201 43.01 60.2701C43.14 60.2201 43.26 60.1401 43.39 60.0501V59.4801C43.18 59.4301 42.99 59.4101 42.83 59.4101C42.41 59.4101 42.2 59.5701 42.2 59.9001C42.2 60.0401 42.24 60.1501 42.32 60.2301C42.41 60.3101 42.52 60.3501 42.66 60.3501L42.65 60.3401Z" fill="#242E3D"></path>
    <path d="M46.6596 60.6801C46.4596 60.7601 46.2296 60.8001 45.9896 60.8001C45.6796 60.8001 45.4396 60.7301 45.2896 60.5801C45.1396 60.4301 45.0696 60.2001 45.0696 59.9001V58.2301H44.5596V57.8001L45.0996 57.7201L45.2096 56.8601H45.7796V57.6901H46.6496V58.2301H45.7796V59.8601C45.7796 60.0001 45.8096 60.0901 45.8696 60.1501C45.9396 60.2101 46.0496 60.2301 46.2096 60.2301C46.3696 60.2301 46.5296 60.2101 46.6696 60.1801V60.6701L46.6596 60.6801Z" fill="#242E3D"></path>
    <path d="M47.2597 60.7501V57.6901H47.9597V60.7501H47.2597ZM47.6097 57.1901C47.4797 57.1901 47.3697 57.1501 47.2897 57.0801C47.2197 57.0101 47.1797 56.9101 47.1797 56.7901C47.1797 56.6601 47.2197 56.5601 47.2897 56.4801C47.3597 56.4101 47.4697 56.3701 47.6097 56.3701C47.7497 56.3701 47.8397 56.4101 47.9097 56.4801C47.9897 56.5501 48.0297 56.6501 48.0297 56.7901C48.0297 56.9101 47.9897 57.0101 47.9097 57.0801C47.8397 57.1501 47.7397 57.1901 47.6097 57.1901Z" fill="#242E3D"></path>
    <path d="M50.1802 60.8401C49.7102 60.8401 49.3502 60.7001 49.0902 60.4101C48.8302 60.1201 48.7002 59.7201 48.7002 59.2101C48.7002 58.7001 48.8302 58.3101 49.0902 58.0301C49.3502 57.7501 49.7102 57.6101 50.1802 57.6101C50.6502 57.6101 51.0002 57.7501 51.2602 58.0301C51.5202 58.3101 51.6502 58.7101 51.6502 59.2101C51.6502 59.7101 51.5202 60.1201 51.2602 60.4101C51.0002 60.7001 50.6402 60.8401 50.1802 60.8401ZM50.1802 60.2801C50.6802 60.2801 50.9302 59.9301 50.9302 59.2101C50.9302 58.4901 50.6802 58.1601 50.1802 58.1601C49.6802 58.1601 49.4202 58.5101 49.4202 59.2101C49.4202 59.9101 49.6702 60.2801 50.1802 60.2801Z" fill="#242E3D"></path>
    <path d="M54.3696 60.7501V58.7201C54.3696 58.5201 54.3296 58.3801 54.2496 58.3001C54.1696 58.2101 54.0396 58.1601 53.8596 58.1601C53.5996 58.1601 53.3296 58.2501 53.0496 58.4301V60.7501H52.3496V57.6901H52.9396L53.0096 58.0301C53.3896 57.7501 53.7696 57.6101 54.1896 57.6101C54.4796 57.6101 54.6996 57.6901 54.8496 57.8401C55.0096 57.9901 55.0796 58.2101 55.0796 58.5101V60.7501H54.3696Z" fill="#242E3D"></path>
    <path d="M58.3604 58.84C58.0204 58.71 57.7804 58.55 57.6204 58.38C57.4704 58.2 57.4004 57.98 57.4004 57.7C57.4004 57.33 57.5304 57.04 57.7904 56.82C58.0604 56.6 58.4104 56.49 58.8604 56.49C59.2304 56.49 59.6004 56.56 59.9804 56.7V57.29C59.5904 57.17 59.2304 57.11 58.9104 57.11C58.3804 57.11 58.1104 57.29 58.1104 57.64C58.1104 57.78 58.1604 57.89 58.2504 57.98C58.3504 58.07 58.5204 58.15 58.7604 58.24L59.2604 58.43C59.5904 58.55 59.8404 58.71 59.9904 58.89C60.1504 59.06 60.2204 59.28 60.2204 59.56C60.2204 59.97 60.0804 60.29 59.7904 60.52C59.5104 60.75 59.1204 60.86 58.6304 60.86C58.4104 60.86 58.2004 60.84 57.9904 60.79C57.7804 60.75 57.6004 60.69 57.4404 60.61V60.04C57.6304 60.1 57.8404 60.15 58.0504 60.19C58.2604 60.22 58.4604 60.24 58.6404 60.24C58.9204 60.24 59.1404 60.19 59.2804 60.09C59.4404 59.99 59.5104 59.84 59.5104 59.64C59.5104 59.51 59.4604 59.4 59.3704 59.31C59.2804 59.22 59.1204 59.13 58.8904 59.04L58.3504 58.84H58.3604Z" fill="#242E3D"></path>
    <path d="M61.4603 59.3901C61.4803 59.6901 61.5603 59.9301 61.7203 60.0701C61.8803 60.2101 62.1203 60.2801 62.4503 60.2801C62.7503 60.2801 63.0703 60.2201 63.4103 60.1001V60.6001C63.2803 60.6701 63.1203 60.7201 62.9303 60.7601C62.7403 60.8101 62.5503 60.8301 62.3603 60.8301C61.8503 60.8301 61.4703 60.7001 61.2103 60.4201C60.9503 60.1501 60.8203 59.7501 60.8203 59.2201C60.8203 58.6901 60.9403 58.3101 61.2003 58.0201C61.4603 57.7301 61.8103 57.5901 62.2703 57.5901C62.6603 57.5901 62.9603 57.7001 63.1703 57.9101C63.3803 58.1201 63.4903 58.4301 63.4903 58.8201C63.4903 59.0201 63.4703 59.2101 63.4303 59.3701H61.4703L61.4603 59.3901ZM62.2203 58.1201C62.0103 58.1201 61.8303 58.1901 61.6903 58.3401C61.5603 58.4801 61.4803 58.6801 61.4603 58.9101H62.8503V58.8601C62.8503 58.6201 62.8003 58.4301 62.6903 58.3101C62.5803 58.1801 62.4203 58.1101 62.2203 58.1101V58.1201Z" fill="#242E3D"></path>
    <path d="M64.1699 60.7499V57.6899H64.7599L64.8499 58.1499C65.0099 57.9799 65.1699 57.8599 65.3099 57.7899C65.4499 57.7099 65.5999 57.6699 65.7699 57.6699C65.8399 57.6699 65.9199 57.6699 66.0199 57.6899V58.3299C65.8999 58.3099 65.7799 58.3099 65.6699 58.3099C65.3699 58.3099 65.1099 58.3899 64.8799 58.5299V60.7399H64.1799L64.1699 60.7499Z" fill="#242E3D"></path>
    <path d="M67.2696 60.7499L66.0996 57.6899H66.8496L67.6196 60.1199L68.3996 57.6899H69.1296L67.9596 60.7499H67.2696Z" fill="#242E3D"></path>
    <path d="M69.6298 60.7501V57.6901H70.3298V60.7501H69.6298ZM69.9798 57.1901C69.8498 57.1901 69.7398 57.1501 69.6598 57.0801C69.5898 57.0101 69.5498 56.9101 69.5498 56.7901C69.5498 56.6601 69.5898 56.5601 69.6598 56.4801C69.7298 56.4101 69.8398 56.3701 69.9798 56.3701C70.1198 56.3701 70.2198 56.4101 70.2898 56.4801C70.3698 56.5501 70.4098 56.6501 70.4098 56.7901C70.4098 56.9101 70.3698 57.0101 70.2898 57.0801C70.2198 57.1501 70.1198 57.1901 69.9798 57.1901Z" fill="#242E3D"></path>
    <path d="M73.3703 60.6299C73.1403 60.7599 72.8503 60.8199 72.5303 60.8199C72.0603 60.8199 71.7003 60.6899 71.4503 60.4099C71.2003 60.1399 71.0703 59.7499 71.0703 59.2499C71.0703 58.7499 71.2003 58.3399 71.4603 58.0599C71.7203 57.7799 72.0803 57.6399 72.5503 57.6399C72.8303 57.6399 73.1003 57.6999 73.3503 57.8199V58.3199C73.0803 58.2499 72.8603 58.1999 72.6703 58.1999C72.3603 58.1999 72.1403 58.2799 72.0003 58.4499C71.8603 58.6099 71.7903 58.8599 71.7903 59.1999V59.2799C71.7903 59.6199 71.8603 59.8699 72.0003 60.0299C72.1403 60.1899 72.3603 60.2599 72.6703 60.2599C72.8803 60.2599 73.1103 60.2199 73.3703 60.1299V60.6299Z" fill="#242E3D"></path>
    <path d="M74.5004 59.3901C74.5204 59.6901 74.6004 59.9301 74.7604 60.0701C74.9204 60.2101 75.1603 60.2801 75.4903 60.2801C75.7903 60.2801 76.1103 60.2201 76.4503 60.1001V60.6001C76.3203 60.6701 76.1604 60.7201 75.9704 60.7601C75.7804 60.8101 75.5904 60.8301 75.4004 60.8301C74.8904 60.8301 74.5104 60.7001 74.2504 60.4201C73.9904 60.1501 73.8604 59.7501 73.8604 59.2201C73.8604 58.6901 73.9803 58.3101 74.2403 58.0201C74.5003 57.7301 74.8503 57.5901 75.3103 57.5901C75.7003 57.5901 76.0004 57.7001 76.2104 57.9101C76.4204 58.1201 76.5303 58.4301 76.5303 58.8201C76.5303 59.0201 76.5104 59.2101 76.4704 59.3701H74.5104L74.5004 59.3901ZM75.2703 58.1201C75.0603 58.1201 74.8803 58.1901 74.7403 58.3401C74.6103 58.4801 74.5304 58.6801 74.5104 58.9101H75.9004V58.8601C75.9004 58.6201 75.8503 58.4301 75.7403 58.3101C75.6303 58.1801 75.4803 58.1101 75.2703 58.1101V58.1201Z" fill="#242E3D"></path>
    <path d="M78.5897 59.9201C78.5897 59.8301 78.5597 59.7601 78.4997 59.7101C78.4397 59.6601 78.3397 59.6001 78.1997 59.5501L77.6997 59.3601C77.2497 59.1901 77.0297 58.9101 77.0297 58.5201C77.0297 58.2401 77.1297 58.0201 77.3297 57.8601C77.5397 57.7001 77.8197 57.6101 78.1697 57.6101C78.4997 57.6101 78.7897 57.6801 79.0697 57.8001V58.3001C78.7597 58.2001 78.4697 58.1501 78.1997 58.1501C78.0197 58.1501 77.8897 58.1801 77.7997 58.2301C77.7097 58.2801 77.6697 58.3701 77.6697 58.4801C77.6697 58.5701 77.6997 58.6501 77.7597 58.7001C77.8197 58.7601 77.9297 58.8101 78.0897 58.8801L78.5597 59.0601C78.7897 59.1501 78.9597 59.2701 79.0597 59.4001C79.1697 59.5201 79.2197 59.6901 79.2197 59.8801C79.2197 60.1801 79.1097 60.4101 78.8897 60.5901C78.6797 60.7601 78.3797 60.8501 77.9997 60.8501C77.8097 60.8501 77.6297 60.8301 77.4497 60.7801C77.2697 60.7401 77.1097 60.6901 76.9697 60.6201V60.1301C77.3597 60.2501 77.6997 60.3201 77.9897 60.3201C78.1897 60.3201 78.3397 60.2901 78.4297 60.2301C78.5197 60.1701 78.5697 60.0701 78.5697 59.9401L78.5897 59.9201Z" fill="#242E3D"></path>
    <path d="M48.1601 66.63C47.8501 66.76 47.4801 66.82 47.0801 66.82C46.4201 66.82 45.9101 66.65 45.5801 66.29C45.2401 65.94 45.0801 65.42 45.0801 64.73C45.0801 64.04 45.2501 63.48 45.6001 63.1C45.9501 62.72 46.4501 62.53 47.1101 62.53C47.4701 62.53 47.8001 62.58 48.1101 62.68V63.29C47.7101 63.2 47.4001 63.16 47.1801 63.16C46.7301 63.16 46.3901 63.28 46.1701 63.51C45.9501 63.74 45.8401 64.11 45.8401 64.6V64.75C45.8401 65.24 45.9401 65.59 46.1601 65.83C46.3801 66.06 46.7201 66.18 47.1701 66.18C47.4201 66.18 47.7501 66.13 48.1701 66.03V66.63H48.1601Z" fill="#242E3D"></path>
    <path d="M50.1196 66.8401C49.6496 66.8401 49.2896 66.7001 49.0296 66.4101C48.7696 66.1201 48.6396 65.7201 48.6396 65.2101C48.6396 64.7001 48.7696 64.3101 49.0296 64.0301C49.2896 63.7501 49.6496 63.6101 50.1196 63.6101C50.5896 63.6101 50.9396 63.7501 51.1996 64.0301C51.4596 64.3101 51.5896 64.7101 51.5896 65.2101C51.5896 65.7101 51.4596 66.1201 51.1996 66.4101C50.9396 66.7001 50.5796 66.8401 50.1196 66.8401ZM50.1196 66.2801C50.6196 66.2801 50.8696 65.9301 50.8696 65.2101C50.8696 64.4901 50.6196 64.1601 50.1196 64.1601C49.6196 64.1601 49.3596 64.5101 49.3596 65.2101C49.3596 65.9101 49.6096 66.2801 50.1196 66.2801Z" fill="#242E3D"></path>
    <path d="M56.16 66.7501V64.6801C56.16 64.5001 56.12 64.3701 56.04 64.2901C55.97 64.2001 55.85 64.1601 55.69 64.1601C55.56 64.1601 55.43 64.1801 55.29 64.2301C55.15 64.2701 55.02 64.3201 54.93 64.3801V66.7501H54.23V64.6801C54.23 64.5001 54.19 64.3701 54.11 64.2901C54.04 64.2001 53.92 64.1601 53.76 64.1601C53.64 64.1601 53.52 64.1801 53.38 64.2201C53.24 64.2601 53.12 64.3101 52.99 64.3801V66.7501H52.29V63.6901H52.88L52.95 64.0101C53.15 63.8701 53.33 63.7701 53.51 63.7101C53.69 63.6501 53.87 63.6201 54.05 63.6201C54.42 63.6201 54.67 63.7601 54.81 64.0301C55.21 63.7601 55.6 63.6201 55.97 63.6201C56.25 63.6201 56.47 63.7001 56.63 63.8501C56.79 64.0001 56.86 64.2201 56.86 64.5201V66.7601H56.16V66.7501Z" fill="#242E3D"></path>
    <path d="M57.71 67.9801V63.6901H58.3L58.37 64.0101C58.51 63.8801 58.66 63.7801 58.83 63.7201C59 63.6501 59.18 63.6101 59.37 63.6101C59.75 63.6101 60.05 63.7501 60.27 64.0301C60.5 64.3101 60.61 64.6901 60.61 65.1801C60.61 65.5001 60.56 65.7901 60.46 66.0401C60.36 66.2801 60.21 66.4701 60 66.6101C59.81 66.7501 59.58 66.8201 59.32 66.8201C59.15 66.8201 58.98 66.7901 58.83 66.7401C58.67 66.6801 58.54 66.5901 58.42 66.4801V67.9801H57.72H57.71ZM59.14 64.1601C58.87 64.1601 58.63 64.2401 58.41 64.3901V66.0201C58.64 66.1801 58.87 66.2501 59.12 66.2501C59.37 66.2501 59.57 66.1601 59.69 65.9901C59.82 65.8101 59.88 65.5401 59.88 65.1901C59.88 64.8401 59.82 64.5801 59.69 64.4001C59.57 64.2301 59.38 64.1401 59.13 64.1401L59.14 64.1601Z" fill="#242E3D"></path>
    <path d="M61.8099 65.3901C61.8299 65.6901 61.9099 65.9301 62.0699 66.0701C62.2299 66.2101 62.4699 66.2801 62.7999 66.2801C63.0999 66.2801 63.4199 66.2201 63.7599 66.1001V66.6001C63.6299 66.6701 63.4699 66.7201 63.2799 66.7601C63.0899 66.8101 62.8999 66.8301 62.7099 66.8301C62.1999 66.8301 61.8199 66.7001 61.5599 66.4201C61.2999 66.1501 61.1699 65.7501 61.1699 65.2201C61.1699 64.6901 61.2899 64.3101 61.5499 64.0201C61.8099 63.7301 62.1599 63.5901 62.6199 63.5901C63.0099 63.5901 63.3099 63.7001 63.5199 63.9101C63.7299 64.1201 63.8399 64.4301 63.8399 64.8201C63.8399 65.0201 63.8199 65.2101 63.7799 65.3701H61.8199L61.8099 65.3901ZM62.5699 64.1201C62.3599 64.1201 62.1799 64.1901 62.0399 64.3401C61.9099 64.4801 61.8299 64.6801 61.7999 64.9101H63.1999V64.8601C63.1999 64.6201 63.1399 64.4301 63.0399 64.3101C62.9299 64.1801 62.7699 64.1101 62.5699 64.1101V64.1201Z" fill="#242E3D"></path>
    <path d="M66.2799 66.6801C66.0799 66.7601 65.8499 66.8001 65.6099 66.8001C65.2999 66.8001 65.0599 66.7301 64.9099 66.5801C64.7599 66.4301 64.6899 66.2001 64.6899 65.9001V64.2301H64.1699V63.8001L64.7099 63.7201L64.8099 62.8601H65.3799V63.6901H66.2499V64.2301H65.3799V65.8601C65.3799 66.0001 65.4099 66.0901 65.4699 66.1501C65.5399 66.2101 65.6499 66.2301 65.8099 66.2301C65.9699 66.2301 66.1299 66.2101 66.2699 66.1801V66.6701L66.2799 66.6801Z" fill="#242E3D"></path>
    <path d="M67.3402 65.3901C67.3502 65.6901 67.4402 65.9301 67.6002 66.0701C67.7602 66.2101 68.0002 66.2801 68.3302 66.2801C68.6302 66.2801 68.9502 66.2201 69.2902 66.1001V66.6001C69.1602 66.6701 69.0002 66.7201 68.8102 66.7601C68.6202 66.8101 68.4302 66.8301 68.2402 66.8301C67.7302 66.8301 67.3502 66.7001 67.0902 66.4201C66.8302 66.1501 66.7002 65.7501 66.7002 65.2201C66.7002 64.6901 66.8202 64.3101 67.0802 64.0201C67.3402 63.7301 67.6902 63.5901 68.1502 63.5901C68.5402 63.5901 68.8402 63.7001 69.0502 63.9101C69.2602 64.1201 69.3702 64.4301 69.3702 64.8201C69.3702 65.0201 69.3502 65.2101 69.3102 65.3701H67.3502L67.3402 65.3901ZM68.1002 64.1201C67.8902 64.1201 67.7102 64.1901 67.5702 64.3401C67.4402 64.4801 67.3602 64.6801 67.3402 64.9101H68.7302V64.8601C68.7302 64.6201 68.6802 64.4301 68.5702 64.3101C68.4602 64.1801 68.3102 64.1101 68.1002 64.1101V64.1201Z" fill="#242E3D"></path>
    <path d="M72.0698 66.7501V64.7201C72.0698 64.5201 72.0298 64.3801 71.9498 64.3001C71.8698 64.2101 71.7398 64.1601 71.5598 64.1601C71.2998 64.1601 71.0298 64.2501 70.7498 64.4301V66.7501H70.0498V63.6901H70.6398L70.7098 64.0301C71.0898 63.7501 71.4798 63.6101 71.8898 63.6101C72.1798 63.6101 72.3998 63.6901 72.5498 63.8401C72.7098 63.9901 72.7798 64.2101 72.7798 64.5101V66.7501H72.0698Z" fill="#242E3D"></path>
    <path d="M75.7697 66.6299C75.5397 66.7599 75.2597 66.8199 74.9297 66.8199C74.4597 66.8199 74.0997 66.6899 73.8497 66.4099C73.5997 66.1399 73.4697 65.7499 73.4697 65.2499C73.4697 64.7499 73.5997 64.3399 73.8597 64.0499C74.1197 63.7699 74.4797 63.6299 74.9497 63.6299C75.2297 63.6299 75.4997 63.6899 75.7497 63.8099V64.3099C75.4797 64.2399 75.2597 64.1899 75.0697 64.1899C74.7697 64.1899 74.5397 64.2699 74.3997 64.4399C74.2597 64.5999 74.1897 64.8499 74.1897 65.1899V65.2699C74.1897 65.6099 74.2597 65.8599 74.3997 66.0199C74.5397 66.1799 74.7597 66.2499 75.0697 66.2499C75.2797 66.2499 75.5197 66.2099 75.7697 66.1199V66.6199V66.6299Z" fill="#242E3D"></path>
    <path d="M77.2103 66.79L76.0303 63.7H76.7803L77.5503 66.1299L78.3403 63.7H79.0703L77.7003 67.2399C77.5903 67.5399 77.4603 67.75 77.3003 67.87C77.1503 68 76.9503 68.07 76.7103 68.07C76.5303 68.07 76.3603 68.04 76.2103 67.98V67.4899C76.3003 67.5099 76.4103 67.5299 76.5103 67.5299C76.6803 67.5299 76.8103 67.5 76.9003 67.44C76.9903 67.38 77.0703 67.2399 77.1503 67.0199L77.2203 66.8099L77.2103 66.79Z" fill="#242E3D"></path>
  </g>
  <defs>
    <clipPath id="clip0_8175_38">
      <rect width="90" height="90" fill="white"></rect>
    </clipPath>
  </defs>
</svg>
