<?xml version="1.0" encoding="UTF-8"?>
<svg xmlns="http://www.w3.org/2000/svg" width="90" height="90" viewBox="0 0 90 90" fill="none">
  <g clip-path="url(#clip0_8190_2)">
    <path d="M61.2 0H0V61.5L28.5 90H90V28.8L61.2 0Z" fill="white"></path>
    <path d="M60.45 1.88L88.13 29.56V88.13H29.25L1.88 60.75V1.88H60.45ZM61.2 0H0V61.5L28.5 90H90V28.8L61.2 0Z" fill="#242E3D"></path>
    <path d="M14.6202 50.7001V54.0001H12.7402V45.0001H16.1902C17.0102 44.9301 17.7602 45.2301 18.4402 45.7501C19.5602 46.9501 19.5602 48.7501 18.4402 49.9501C17.8402 50.4801 17.0102 50.7701 16.1902 50.7001H14.6202ZM14.6202 49.2701H15.9702C16.3502 49.2701 16.7202 49.2001 16.9402 48.8901C17.3902 48.2901 17.3902 47.3901 16.9402 46.7901C16.6402 46.5601 16.3402 46.4101 15.9702 46.4101H14.6202V49.2601V49.2701ZM27.1502 54.0001L26.5502 51.9801H23.4802L22.8802 54.0001H20.8602L24.0102 45.0001H26.1902L29.2602 54.0001H27.1602H27.1502ZM23.8502 50.5501H26.1002L24.9802 46.8001L23.8602 50.5501H23.8502ZM31.9502 54.0001V45.0001H35.4002C36.2302 44.9301 36.9802 45.2301 37.6502 45.7501C38.1802 46.2701 38.4802 47.0201 38.4802 47.7701C38.4802 48.3001 38.3302 48.7501 38.0302 49.2001C37.7302 49.6501 37.2802 49.9501 36.8302 50.1801L39.0802 54.0801H37.0602L35.1102 50.5601H33.8302V54.0101H31.9502V54.0001ZM33.8202 49.1201H35.1702C35.8502 49.1901 36.4402 48.7401 36.5202 48.0701V47.6901C36.6002 47.0101 36.1402 46.4201 35.5502 46.3401H33.9002V49.1101H33.8302L33.8202 49.1201ZM43.6502 54.0001V46.5701H40.8802V45.0001H48.3102V46.5701H45.5302V54.0001H43.6602H43.6502ZM53.0202 47.7701V54.0001H51.3002V45.0001H53.4002L57.0802 51.3001V45.0001H58.8102V54.0001H56.7102L53.0302 47.7701H53.0202ZM62.2502 54.0001V45.0001H68.1802V46.5001H64.2002V48.6001H67.4302V50.1001H64.2002V52.5001H68.1802V54.0001H62.2502ZM71.6202 54.0001V45.0001H75.0702C75.8902 44.9301 76.6402 45.2301 77.3202 45.7501C77.8502 46.2701 78.1402 47.0201 78.1402 47.7701C78.1402 48.3001 77.9902 48.7501 77.6902 49.2001C77.3902 49.6501 76.9402 49.9501 76.4902 50.1801L78.7402 54.0801H76.7202L74.7702 50.5601H73.5002V54.0101H71.6202V54.0001ZM73.5002 49.1201H74.8502C75.5202 49.1901 76.1202 48.7401 76.2002 48.0701V47.6901C76.2702 47.0101 75.8202 46.4201 75.2302 46.3401H73.5002V49.1101V49.1201Z" fill="#242E3D"></path>
    <path d="M20.0202 20.6201C20.0202 20.9201 20.0202 21.2201 20.1702 21.5201C20.2402 21.7501 20.3902 22.0501 20.4702 22.2701C20.5402 22.3501 20.5402 22.4201 20.5402 22.5001C20.5402 22.6501 20.4702 22.7301 20.3102 22.8001L19.6302 23.2501H19.4102C19.2602 23.2501 19.1802 23.1801 19.1102 23.1001C18.9602 22.9501 18.8102 22.8001 18.7302 22.6501C18.6602 22.5001 18.5002 22.2701 18.4302 22.0501C17.6802 22.9501 16.6302 23.4801 15.4302 23.4801C14.6802 23.5501 13.9302 23.2501 13.4102 22.7301C12.8802 22.2001 12.6602 21.5301 12.6602 20.7801C12.6602 19.9601 12.9602 19.2101 13.5602 18.6801C14.2402 18.1501 15.1302 17.8601 16.0402 17.8601C16.4202 17.8601 16.7902 17.8601 17.0902 17.9301L18.2102 18.1501V17.4001C18.2802 16.8001 18.1302 16.2001 17.7602 15.7501C17.3102 15.3701 16.7102 15.2301 16.1102 15.3001C15.7302 15.3001 15.3602 15.3701 14.9902 15.4501C14.6202 15.5301 14.2402 15.6801 13.8702 15.8301C13.7202 15.9001 13.6402 15.9001 13.4902 15.9801H13.3402C13.1902 15.9801 13.1102 15.9001 13.1102 15.6801V15.1501C13.1102 15.0001 13.1102 14.9301 13.1802 14.7701C13.2502 14.7001 13.3302 14.6201 13.4802 14.5501C13.8602 14.3201 14.3002 14.1701 14.7502 14.1001C15.2802 13.9501 15.8002 13.8701 16.3302 13.8701C17.3002 13.8001 18.2102 14.1001 18.9502 14.6901C19.5502 15.3701 19.8502 16.2601 19.7702 17.1701L19.9902 20.6201H20.0202ZM15.9002 22.1201C16.2802 22.1201 16.5802 22.0501 16.9502 21.9701C17.3302 21.8201 17.6302 21.5901 17.9302 21.2901C18.0802 21.1401 18.2302 20.9101 18.3102 20.6101C18.3902 20.3101 18.3802 20.0101 18.3802 19.7101V19.2601C18.0802 19.1901 17.7802 19.1101 17.4802 19.1101C17.1802 19.0401 16.8802 19.0401 16.5002 19.0401C15.9802 18.9701 15.4502 19.1101 15.0002 19.4201C14.4002 20.0201 14.3202 20.9901 14.8502 21.6701C15.1502 22.0501 15.5202 22.1901 15.9002 22.1201ZM24.0702 23.2501C23.9202 23.2501 23.7702 23.2501 23.6902 23.1801C23.6202 23.1101 23.5402 22.9501 23.4702 22.8001L21.0702 14.9201C21.0002 14.7701 21.0002 14.6201 21.0002 14.5401C21.0002 14.3901 21.0702 14.3101 21.1502 14.3101H22.2002C22.3502 14.3101 22.5002 14.3101 22.5802 14.3801C22.6502 14.4601 22.7302 14.6101 22.8102 14.7601L24.5302 21.4401L26.1102 14.7601C26.1102 14.6101 26.1802 14.4601 26.3302 14.3801C26.4802 14.3101 26.6302 14.3101 26.7102 14.3101H27.5302C27.6802 14.3101 27.8302 14.3101 27.9102 14.3801C27.9902 14.4601 28.0602 14.6101 28.1402 14.7601L29.7102 21.5901L31.4402 14.7601C31.4402 14.6101 31.5102 14.4601 31.6602 14.3801C31.8102 14.3101 31.8902 14.3101 32.0402 14.3101H33.0202C33.1702 14.3101 33.2502 14.3801 33.2502 14.4601V14.6801C33.2502 14.7501 33.1702 14.8301 33.1702 14.9101L30.7702 22.7101C30.7702 22.8601 30.7002 23.0101 30.5402 23.0901C30.4702 23.2401 30.3202 23.2401 30.1602 23.2401H29.2602C29.1102 23.2401 28.9602 23.2401 28.8802 23.1701C28.8102 23.0201 28.7302 22.9401 28.6502 22.7901L27.0802 16.2601L25.5102 22.7901C25.5102 22.9401 25.4402 23.0901 25.2802 23.1701C25.2102 23.2401 25.0602 23.2401 24.9802 23.2401H24.0802L24.0702 23.2501ZM37.1202 23.5501C36.6002 23.5501 36.0702 23.4801 35.5502 23.4001C35.1702 23.3301 34.7302 23.1801 34.3502 23.0201C34.1202 22.9501 33.9702 22.7201 33.9702 22.4201V21.8901C33.9702 21.6701 34.0402 21.5901 34.1902 21.5901H34.3402C34.4102 21.5901 34.4902 21.6601 34.5602 21.6601C34.9402 21.8101 35.3102 21.9601 35.6802 22.0401C36.0602 22.1101 36.5002 22.1901 36.8802 22.1901C37.4102 22.1901 37.9302 22.1201 38.3802 21.8101C38.6802 21.5901 38.9102 21.2101 38.9102 20.8401C38.9102 20.5401 38.8402 20.3101 38.6102 20.1601C38.3102 19.9301 37.9302 19.7101 37.5602 19.6301L36.0602 19.1801C35.4602 19.0301 34.8602 18.6601 34.4102 18.1301C34.1102 17.6801 33.8802 17.1601 33.8802 16.6301C33.8802 16.2501 33.9602 15.8801 34.1802 15.5101C34.3302 15.2101 34.6302 14.9101 34.9302 14.6901C35.2302 14.4701 35.6102 14.2401 35.9802 14.1701C36.4302 14.0201 36.8002 14.0201 37.2502 14.0201C37.4802 14.0201 37.7002 14.0201 37.9302 14.1001C38.1602 14.1001 38.3802 14.1701 38.6102 14.2501C38.8402 14.3301 38.9902 14.3201 39.2102 14.4001C39.3602 14.4801 39.5102 14.4801 39.6602 14.5501C39.8102 14.6201 39.8802 14.7001 39.9602 14.7701C40.0302 14.8501 40.0302 15.0001 40.0302 15.1501V15.6001C40.0302 15.8201 39.9602 15.9001 39.8002 15.9001C39.6402 15.9001 39.5002 15.8301 39.4202 15.7501C38.8202 15.4501 38.1502 15.3701 37.4702 15.3701C37.0202 15.3701 36.5702 15.4401 36.1202 15.6701C35.8202 15.8201 35.6002 16.1901 35.6702 16.5701C35.6702 16.8701 35.7402 17.1001 35.9702 17.3201C36.2702 17.6201 36.6502 17.7701 37.0902 17.8501L38.5202 18.3001C39.1202 18.4501 39.6402 18.8201 40.0902 19.2701C40.3902 19.6501 40.5402 20.1701 40.5402 20.7001C40.5402 21.0801 40.4702 21.5201 40.2402 21.9001C40.0902 22.2801 39.7902 22.5801 39.4902 22.8001C39.1902 23.0201 38.7402 23.2501 38.3702 23.4001C38.0702 23.4801 37.5502 23.5501 37.1002 23.5501H37.1202Z" fill="#242E3D"></path>
    <path d="M39.0001 28.4299C35.6201 30.8999 30.8201 32.1799 26.6201 32.1799C21.0701 32.1799 15.6701 30.1499 11.5501 26.3999C11.2501 26.0999 11.5501 25.7299 11.9301 25.9499C16.5001 28.6499 21.7501 29.9999 27.0001 29.9999C30.9801 29.9999 34.8801 29.1799 38.5501 27.6799C39.0701 27.4499 39.6001 28.0599 39.0001 28.4299ZM39.5201 30.6799C39.3701 30.9799 39.6701 31.1299 39.9701 30.8999C41.7701 29.3999 42.2201 26.2499 41.8501 25.7999C41.4701 25.3499 38.3201 24.9799 36.4501 26.3199C36.1501 26.5499 36.2301 26.8499 36.5201 26.7699C37.5701 26.6199 39.9701 26.3199 40.4201 26.9199C40.8701 27.5199 39.8901 29.6899 39.5201 30.6699V30.6799Z" fill="#FF9900"></path>
    <path d="M39.54 62.25L39.11 60.9501H37.12L36.7 62.25H35.75L37.64 57.05H38.64L40.53 62.25H39.56H39.54ZM37.32 60.28H38.89L38.1 57.8801L37.31 60.28H37.32Z" fill="#242E3D"></path>
    <path d="M45.9294 62.2501V59.6601C45.9294 59.4301 45.8794 59.2701 45.7894 59.1701C45.6994 59.0701 45.5594 59.0201 45.3594 59.0201C45.1994 59.0201 45.0394 59.0501 44.8594 59.1001C44.6894 59.1501 44.5394 59.2201 44.4094 59.3001V62.2501H43.5194V59.6601C43.5194 59.4301 43.4694 59.2701 43.3794 59.1701C43.2894 59.0701 43.1494 59.0201 42.9494 59.0201C42.7994 59.0201 42.6394 59.0401 42.4694 59.0901C42.3094 59.1401 42.1494 59.2101 41.9994 59.3001V62.2501H41.1094V58.4301H41.8494L41.9294 58.8201C42.1794 58.6501 42.4094 58.5201 42.6294 58.4401C42.8594 58.3601 43.0794 58.3201 43.3094 58.3201C43.7694 58.3201 44.0894 58.4901 44.2694 58.8401C44.7694 58.5001 45.2494 58.3201 45.6994 58.3201C46.0594 58.3201 46.3394 58.4201 46.5294 58.6101C46.7294 58.8001 46.8194 59.0701 46.8194 59.4401V62.2401H45.9294V62.2501Z" fill="#242E3D"></path>
    <path d="M50.1009 62.2501L50.0309 61.8901C49.8509 62.0401 49.6509 62.1501 49.4409 62.2401C49.2309 62.3301 49.0209 62.3701 48.8109 62.3701C48.4609 62.3701 48.1709 62.2601 47.9509 62.0501C47.7409 61.8401 47.6309 61.5701 47.6309 61.2301C47.6309 60.8601 47.7609 60.5701 48.0309 60.3501C48.2909 60.1201 48.6509 60.0101 49.1109 60.0101C49.3709 60.0101 49.6609 60.0501 49.9809 60.1301V59.6901C49.9809 59.4301 49.9309 59.2601 49.8209 59.1601C49.7109 59.0601 49.5209 59.0101 49.2509 59.0101C48.8609 59.0101 48.4109 59.0901 47.9009 59.2601V58.6401C48.0909 58.5501 48.3109 58.4701 48.5809 58.4201C48.8409 58.3701 49.1209 58.3401 49.3909 58.3401C49.8709 58.3401 50.2309 58.4401 50.4709 58.6401C50.7009 58.8401 50.8209 59.1401 50.8209 59.5701V62.2601H50.1109L50.1009 62.2501ZM49.0609 61.7301C49.2109 61.7301 49.3609 61.7001 49.5209 61.6401C49.6809 61.5801 49.8409 61.4901 49.9909 61.3701V60.6501C49.7309 60.6001 49.4909 60.5701 49.2909 60.5701C48.7709 60.5701 48.5109 60.7701 48.5109 61.1701C48.5109 61.3501 48.5609 61.4901 48.6609 61.5901C48.7609 61.6801 48.9009 61.7301 49.0709 61.7301H49.0609Z" fill="#242E3D"></path>
    <path d="M51.5898 62.2499V61.5899L53.7198 59.1099H51.6598V58.4299H54.6698V59.0899L52.5398 61.5699H54.6998V62.2499H51.5898Z" fill="#242E3D"></path>
    <path d="M57.1391 62.3701C56.5591 62.3701 56.1091 62.1901 55.7791 61.8301C55.4491 61.4701 55.2891 60.9701 55.2891 60.3401C55.2891 59.7101 55.4491 59.2201 55.7791 58.8601C56.1091 58.5001 56.5591 58.3201 57.1391 58.3201C57.7191 58.3201 58.1591 58.5001 58.4891 58.8601C58.8191 59.2101 58.9791 59.7001 58.9791 60.3401C58.9791 60.9801 58.8191 61.4701 58.4891 61.8301C58.1691 62.1901 57.7191 62.3701 57.1391 62.3701ZM57.1391 61.6601C57.7691 61.6601 58.0891 61.2201 58.0891 60.3401C58.0891 59.4601 57.7691 59.0201 57.1391 59.0201C56.5091 59.0201 56.1891 59.4601 56.1891 60.3401C56.1891 61.2201 56.5091 61.6601 57.1391 61.6601Z" fill="#242E3D"></path>
    <path d="M62.3991 62.2501V59.7201C62.3991 59.4801 62.3491 59.3001 62.2491 59.1901C62.1491 59.0701 61.9791 59.0201 61.7691 59.0201C61.4391 59.0201 61.0991 59.1301 60.7591 59.3501V62.2601H59.8691V58.4401H60.6091L60.6891 58.8601C61.1591 58.5101 61.6591 58.3301 62.1691 58.3301C62.5391 58.3301 62.8091 58.4301 62.9991 58.6201C63.1891 58.8101 63.2791 59.0801 63.2791 59.4501V62.2501H62.3991Z" fill="#242E3D"></path>
    <path d="M66.3691 62.25V57.05H69.6891V57.7901H67.2991V59.2201H69.2791V59.96H67.2991V61.5201H69.6891V62.26H66.3691V62.25Z" fill="#242E3D"></path>
    <path d="M70.6309 62.25V57.05H71.5609V59.35L73.5909 57.05H74.6509L72.4309 59.51L74.8709 62.25H73.7309L71.5609 59.78V62.25H70.6309Z" fill="#242E3D"></path>
    <path d="M76.4698 59.8599C76.0498 59.6999 75.7398 59.5099 75.5398 59.2899C75.3498 59.0599 75.2598 58.7899 75.2598 58.4599C75.2598 57.9899 75.4198 57.6199 75.7498 57.3499C76.0798 57.0799 76.5098 56.9399 77.0698 56.9399C77.5298 56.9399 77.9998 57.0299 78.4798 57.2099V57.9399C77.9898 57.7899 77.5498 57.7199 77.1398 57.7199C76.4798 57.7199 76.1398 57.9399 76.1398 58.3899C76.1398 58.5599 76.1998 58.6999 76.3198 58.8099C76.4398 58.9199 76.6598 59.0299 76.9698 59.1399L77.6098 59.3699C78.0198 59.5299 78.3298 59.7099 78.5098 59.9299C78.6998 60.1499 78.7898 60.4299 78.7898 60.7699C78.7898 61.2699 78.6098 61.6699 78.2498 61.9499C77.8998 62.2399 77.4098 62.3799 76.7998 62.3799C76.5398 62.3799 76.2698 62.3499 75.9998 62.2999C75.7298 62.2499 75.4998 62.1699 75.3098 62.0799V61.3499C75.5498 61.4299 75.8098 61.4899 76.0698 61.5399C76.3398 61.5899 76.5898 61.6099 76.7998 61.6099C77.1498 61.6099 77.4198 61.5499 77.6098 61.4199C77.7998 61.2899 77.8998 61.0999 77.8998 60.8699C77.8998 60.6999 77.8398 60.5599 77.7198 60.4499C77.6098 60.3399 77.4098 60.2399 77.1198 60.1199L76.4498 59.8599H76.4698Z" fill="#242E3D"></path>
    <path d="M51.8809 69.75V64.55H53.6609C54.4309 64.55 55.0209 64.77 55.4309 65.22C55.8409 65.67 56.0409 66.31 56.0409 67.14C56.0409 67.97 55.8309 68.63 55.4209 69.09C55.0009 69.53 54.4209 69.76 53.6609 69.76H51.8809V69.75ZM52.8009 65.27V69.03H53.5509C54.5909 69.03 55.1109 68.43 55.1109 67.22V67.06C55.1109 65.87 54.5909 65.27 53.5509 65.27H52.8009Z" fill="#242E3D"></path>
    <path d="M57.5895 68.0501C57.5995 68.4301 57.7095 68.7101 57.9095 68.8901C58.1095 69.0601 58.4195 69.1501 58.8195 69.1501C59.1995 69.1501 59.5995 69.0901 60.0295 68.9501V69.5701C59.8595 69.6601 59.6495 69.7301 59.4195 69.7801C59.1895 69.8301 58.9395 69.8601 58.6895 69.8601C58.0595 69.8601 57.5895 69.6901 57.2595 69.3601C56.9295 69.0201 56.7695 68.5201 56.7695 67.8601C56.7695 67.2001 56.9295 66.7201 57.2495 66.3601C57.5695 66.0001 58.0195 65.8201 58.5895 65.8201C59.0695 65.8201 59.4495 65.9501 59.7095 66.2201C59.9695 66.4801 60.1095 66.8601 60.1095 67.3601C60.1095 67.6201 60.0895 67.8501 60.0395 68.0501H57.5895ZM58.5395 66.4701C58.2695 66.4701 58.0495 66.5601 57.8795 66.7401C57.7095 66.9201 57.6095 67.1601 57.5895 67.4701H59.3195V67.4101C59.3195 67.1101 59.2495 66.8701 59.1195 66.7201C58.9795 66.5601 58.7895 66.4701 58.5295 66.4701H58.5395Z" fill="#242E3D"></path>
    <path d="M62.4509 69.6899C62.2709 69.7599 62.0709 69.7999 61.8609 69.7999C61.5609 69.7999 61.3409 69.7199 61.1809 69.5499C61.0309 69.3799 60.9609 69.1399 60.9609 68.8099V64.1899H61.8509V68.7399C61.8509 68.8599 61.8709 68.9499 61.9209 69.0099C61.9709 69.0599 62.0409 69.0899 62.1509 69.0899C62.2409 69.0899 62.3309 69.0899 62.4409 69.0699V69.6899H62.4509Z" fill="#242E3D"></path>
    <path d="M63.2602 69.75V65.93H64.1402V69.75H63.2602ZM63.6902 65.3C63.5302 65.3 63.4002 65.26 63.3002 65.17C63.2102 65.08 63.1602 64.95 63.1602 64.79C63.1602 64.63 63.2102 64.5 63.3002 64.41C63.3902 64.32 63.5202 64.27 63.6902 64.27C63.8602 64.27 64.0002 64.32 64.0902 64.41C64.1802 64.5 64.2302 64.62 64.2302 64.79C64.2302 64.96 64.1802 65.07 64.0902 65.17C64.0002 65.26 63.8602 65.3 63.6902 65.3Z" fill="#242E3D"></path>
    <path d="M66.2498 69.7499L64.7598 65.9299H65.7098L66.6798 68.9499L67.6598 65.9299H68.5598L67.0998 69.7499H66.2398H66.2498Z" fill="#242E3D"></path>
    <path d="M69.7809 68.0501C69.8009 68.4301 69.9009 68.7101 70.1009 68.8901C70.3009 69.0601 70.6109 69.1501 71.0109 69.1501C71.3909 69.1501 71.7909 69.0901 72.2209 68.9501V69.5701C72.0509 69.6601 71.8409 69.7301 71.6109 69.7801C71.3809 69.8301 71.1309 69.8601 70.8809 69.8601C70.2609 69.8601 69.7809 69.6901 69.4509 69.3601C69.1209 69.0201 68.9609 68.5201 68.9609 67.8601C68.9609 67.2001 69.1209 66.7201 69.4409 66.3601C69.7609 66.0001 70.2009 65.8201 70.7809 65.8201C71.2709 65.8201 71.6409 65.9501 71.9009 66.2201C72.1609 66.4801 72.3009 66.8601 72.3009 67.3601C72.3009 67.6201 72.2809 67.8501 72.2309 68.0501H69.7809ZM70.7309 66.4701C70.4609 66.4701 70.2409 66.5601 70.0709 66.7401C69.9009 66.9201 69.8009 67.1601 69.7809 67.4701H71.5209V67.4101C71.5209 67.1101 71.4509 66.8701 71.3209 66.7201C71.1809 66.5601 70.9909 66.4701 70.7409 66.4701H70.7309Z" fill="#242E3D"></path>
    <path d="M73.1504 69.7499V65.9299H73.8904L74.0104 66.4999C74.2104 66.2799 74.4004 66.1299 74.5704 66.0399C74.7404 65.9499 74.9304 65.8999 75.1404 65.8999C75.2304 65.8999 75.3304 65.8999 75.4404 65.9199V66.7299C75.3004 66.7099 75.1604 66.6999 75.0104 66.6999C74.6404 66.6999 74.3204 66.7899 74.0404 66.9799V69.7499H73.1504Z" fill="#242E3D"></path>
    <path d="M77.0508 69.7999L75.5508 65.9299H76.5008L77.4708 68.9499L78.4508 65.9299H79.3508L77.6408 70.3599C77.5008 70.7299 77.3308 70.9899 77.1408 71.1499C76.9508 71.3099 76.7108 71.3999 76.4008 71.3999C76.1808 71.3999 75.9708 71.3599 75.7808 71.2799V70.6599C75.9008 70.6899 76.0208 70.7099 76.1608 70.7099C76.3808 70.7099 76.5408 70.6699 76.6408 70.5899C76.7508 70.5099 76.8508 70.3399 76.9608 70.0599L77.0508 69.7999Z" fill="#242E3D"></path>
  </g>
  <defs>
    <clipPath id="clip0_8190_2">
      <rect width="90" height="90" fill="white"></rect>
    </clipPath>
  </defs>
</svg>
