<?xml version="1.0" encoding="UTF-8"?>
<svg xmlns="http://www.w3.org/2000/svg" width="90" height="90" viewBox="0 0 90 90" fill="none">
  <g clip-path="url(#clip0_8184_27)">
    <path d="M61.2 0H0V61.5L28.5 90H90V28.8L61.2 0Z" fill="white"></path>
    <path d="M60.45 1.88L88.13 29.56V88.13H29.25L1.88 60.75V1.88H60.45ZM61.2 0H0V61.5L28.5 90H90V28.8L61.2 0Z" fill="#242E3D"></path>
    <path d="M14.6202 50.7001V54.0001H12.7402V45.0001H16.1902C17.0102 44.9301 17.7602 45.2301 18.4402 45.7501C19.5602 46.9501 19.5602 48.7501 18.4402 49.9501C17.8402 50.4801 17.0102 50.7701 16.1902 50.7001H14.6202ZM14.6202 49.2701H15.9702C16.3502 49.2701 16.7202 49.2001 16.9402 48.8901C17.3902 48.2901 17.3902 47.3901 16.9402 46.7901C16.6402 46.5601 16.3402 46.4101 15.9702 46.4101H14.6202V49.2601V49.2701ZM27.1502 54.0001L26.5502 51.9801H23.4802L22.8802 54.0001H20.8602L24.0102 45.0001H26.1902L29.2602 54.0001H27.1602H27.1502ZM23.8502 50.5501H26.1002L24.9802 46.8001L23.8602 50.5501H23.8502ZM31.9502 54.0001V45.0001H35.4002C36.2302 44.9301 36.9802 45.2301 37.6502 45.7501C38.1802 46.2701 38.4802 47.0201 38.4802 47.7701C38.4802 48.3001 38.3302 48.7501 38.0302 49.2001C37.7302 49.6501 37.2802 49.9501 36.8302 50.1801L39.0802 54.0801H37.0602L35.1102 50.5601H33.8302V54.0101H31.9502V54.0001ZM33.8202 49.1201H35.1702C35.8502 49.1901 36.4402 48.7401 36.5202 48.0701V47.6901C36.6002 47.0101 36.1402 46.4201 35.5502 46.3401H33.9002V49.1101H33.8302L33.8202 49.1201ZM43.6502 54.0001V46.5701H40.8802V45.0001H48.3102V46.5701H45.5302V54.0001H43.6602H43.6502ZM53.0202 47.7701V54.0001H51.3002V45.0001H53.4002L57.0802 51.3001V45.0001H58.8102V54.0001H56.7102L53.0302 47.7701H53.0202ZM62.2502 54.0001V45.0001H68.1802V46.5001H64.2002V48.6001H67.4302V50.1001H64.2002V52.5001H68.1802V54.0001H62.2502ZM71.6202 54.0001V45.0001H75.0702C75.8902 44.9301 76.6402 45.2301 77.3202 45.7501C77.8502 46.2701 78.1402 47.0201 78.1402 47.7701C78.1402 48.3001 77.9902 48.7501 77.6902 49.2001C77.3902 49.6501 76.9402 49.9501 76.4902 50.1801L78.7402 54.0801H76.7202L74.7702 50.5601H73.5002V54.0101H71.6202V54.0001ZM73.5002 49.1201H74.8502C75.5202 49.1901 76.1202 48.7401 76.2002 48.0701V47.6901C76.2702 47.0101 75.8202 46.4201 75.2302 46.3401H73.5002V49.1101V49.1201Z" fill="#242E3D"></path>
    <path d="M20.0202 20.6201C20.0202 20.9201 20.0202 21.2201 20.1702 21.5201C20.2402 21.7501 20.3902 22.0501 20.4702 22.2701C20.5402 22.3501 20.5402 22.4201 20.5402 22.5001C20.5402 22.6501 20.4702 22.7301 20.3102 22.8001L19.6302 23.2501H19.4102C19.2602 23.2501 19.1802 23.1801 19.1102 23.1001C18.9602 22.9501 18.8102 22.8001 18.7302 22.6501C18.6602 22.5001 18.5002 22.2701 18.4302 22.0501C17.6802 22.9501 16.6302 23.4801 15.4302 23.4801C14.6802 23.5501 13.9302 23.2501 13.4102 22.7301C12.8802 22.2001 12.6602 21.5301 12.6602 20.7801C12.6602 19.9601 12.9602 19.2101 13.5602 18.6801C14.2402 18.1501 15.1302 17.8601 16.0402 17.8601C16.4202 17.8601 16.7902 17.8601 17.0902 17.9301L18.2102 18.1501V17.4001C18.2802 16.8001 18.1302 16.2001 17.7602 15.7501C17.3102 15.3701 16.7102 15.2301 16.1102 15.3001C15.7302 15.3001 15.3602 15.3701 14.9902 15.4501C14.6202 15.5301 14.2402 15.6801 13.8702 15.8301C13.7202 15.9001 13.6402 15.9001 13.4902 15.9801H13.3402C13.1902 15.9801 13.1102 15.9001 13.1102 15.6801V15.1501C13.1102 15.0001 13.1102 14.9301 13.1802 14.7701C13.2502 14.7001 13.3302 14.6201 13.4802 14.5501C13.8602 14.3201 14.3002 14.1701 14.7502 14.1001C15.2802 13.9501 15.8002 13.8701 16.3302 13.8701C17.3002 13.8001 18.2102 14.1001 18.9502 14.6901C19.5502 15.3701 19.8502 16.2601 19.7702 17.1701L19.9902 20.6201H20.0202ZM15.9002 22.1201C16.2802 22.1201 16.5802 22.0501 16.9502 21.9701C17.3302 21.8201 17.6302 21.5901 17.9302 21.2901C18.0802 21.1401 18.2302 20.9101 18.3102 20.6101C18.3902 20.3101 18.3802 20.0101 18.3802 19.7101V19.2601C18.0802 19.1901 17.7802 19.1101 17.4802 19.1101C17.1802 19.0401 16.8802 19.0401 16.5002 19.0401C15.9802 18.9701 15.4502 19.1101 15.0002 19.4201C14.4002 20.0201 14.3202 20.9901 14.8502 21.6701C15.1502 22.0501 15.5202 22.1901 15.9002 22.1201ZM24.0702 23.2501C23.9202 23.2501 23.7702 23.2501 23.6902 23.1801C23.6202 23.1101 23.5402 22.9501 23.4702 22.8001L21.0702 14.9201C21.0002 14.7701 21.0002 14.6201 21.0002 14.5401C21.0002 14.3901 21.0702 14.3101 21.1502 14.3101H22.2002C22.3502 14.3101 22.5002 14.3101 22.5802 14.3801C22.6502 14.4601 22.7302 14.6101 22.8102 14.7601L24.5302 21.4401L26.1102 14.7601C26.1102 14.6101 26.1802 14.4601 26.3302 14.3801C26.4802 14.3101 26.6302 14.3101 26.7102 14.3101H27.5302C27.6802 14.3101 27.8302 14.3101 27.9102 14.3801C27.9902 14.4601 28.0602 14.6101 28.1402 14.7601L29.7102 21.5901L31.4402 14.7601C31.4402 14.6101 31.5102 14.4601 31.6602 14.3801C31.8102 14.3101 31.8902 14.3101 32.0402 14.3101H33.0202C33.1702 14.3101 33.2502 14.3801 33.2502 14.4601V14.6801C33.2502 14.7501 33.1702 14.8301 33.1702 14.9101L30.7702 22.7101C30.7702 22.8601 30.7002 23.0101 30.5402 23.0901C30.4702 23.2401 30.3202 23.2401 30.1602 23.2401H29.2602C29.1102 23.2401 28.9602 23.2401 28.8802 23.1701C28.8102 23.0201 28.7302 22.9401 28.6502 22.7901L27.0802 16.2601L25.5102 22.7901C25.5102 22.9401 25.4402 23.0901 25.2802 23.1701C25.2102 23.2401 25.0602 23.2401 24.9802 23.2401H24.0802L24.0702 23.2501ZM37.1202 23.5501C36.6002 23.5501 36.0702 23.4801 35.5502 23.4001C35.1702 23.3301 34.7302 23.1801 34.3502 23.0201C34.1202 22.9501 33.9702 22.7201 33.9702 22.4201V21.8901C33.9702 21.6701 34.0402 21.5901 34.1902 21.5901H34.3402C34.4102 21.5901 34.4902 21.6601 34.5602 21.6601C34.9402 21.8101 35.3102 21.9601 35.6802 22.0401C36.0602 22.1101 36.5002 22.1901 36.8802 22.1901C37.4102 22.1901 37.9302 22.1201 38.3802 21.8101C38.6802 21.5901 38.9102 21.2101 38.9102 20.8401C38.9102 20.5401 38.8402 20.3101 38.6102 20.1601C38.3102 19.9301 37.9302 19.7101 37.5602 19.6301L36.0602 19.1801C35.4602 19.0301 34.8602 18.6601 34.4102 18.1301C34.1102 17.6801 33.8802 17.1601 33.8802 16.6301C33.8802 16.2501 33.9602 15.8801 34.1802 15.5101C34.3302 15.2101 34.6302 14.9101 34.9302 14.6901C35.2302 14.4701 35.6102 14.2401 35.9802 14.1701C36.4302 14.0201 36.8002 14.0201 37.2502 14.0201C37.4802 14.0201 37.7002 14.0201 37.9302 14.1001C38.1602 14.1001 38.3802 14.1701 38.6102 14.2501C38.8402 14.3301 38.9902 14.3201 39.2102 14.4001C39.3602 14.4801 39.5102 14.4801 39.6602 14.5501C39.8102 14.6201 39.8802 14.7001 39.9602 14.7701C40.0302 14.8501 40.0302 15.0001 40.0302 15.1501V15.6001C40.0302 15.8201 39.9602 15.9001 39.8002 15.9001C39.6402 15.9001 39.5002 15.8301 39.4202 15.7501C38.8202 15.4501 38.1502 15.3701 37.4702 15.3701C37.0202 15.3701 36.5702 15.4401 36.1202 15.6701C35.8202 15.8201 35.6002 16.1901 35.6702 16.5701C35.6702 16.8701 35.7402 17.1001 35.9702 17.3201C36.2702 17.6201 36.6502 17.7701 37.0902 17.8501L38.5202 18.3001C39.1202 18.4501 39.6402 18.8201 40.0902 19.2701C40.3902 19.6501 40.5402 20.1701 40.5402 20.7001C40.5402 21.0801 40.4702 21.5201 40.2402 21.9001C40.0902 22.2801 39.7902 22.5801 39.4902 22.8001C39.1902 23.0201 38.7402 23.2501 38.3702 23.4001C38.0702 23.4801 37.5502 23.5501 37.1002 23.5501H37.1202Z" fill="#242E3D"></path>
    <path d="M39.0001 28.4299C35.6201 30.8999 30.8201 32.1799 26.6201 32.1799C21.0701 32.1799 15.6701 30.1499 11.5501 26.3999C11.2501 26.0999 11.5501 25.7299 11.9301 25.9499C16.5001 28.6499 21.7501 29.9999 27.0001 29.9999C30.9801 29.9999 34.8801 29.1799 38.5501 27.6799C39.0701 27.4499 39.6001 28.0599 39.0001 28.4299ZM39.5201 30.6799C39.3701 30.9799 39.6701 31.1299 39.9701 30.8999C41.7701 29.3999 42.2201 26.2499 41.8501 25.7999C41.4701 25.3499 38.3201 24.9799 36.4501 26.3199C36.1501 26.5499 36.2301 26.8499 36.5201 26.7699C37.5701 26.6199 39.9701 26.3199 40.4201 26.9199C40.8701 27.5199 39.8901 29.6899 39.5201 30.6699V30.6799Z" fill="#FF9900"></path>
    <path d="M29.1795 57.05H28.2695V62.25H29.1795V57.05Z" fill="#242E3D"></path>
    <path d="M35.1909 62.2501V59.6601C35.1909 59.4301 35.1409 59.2701 35.0509 59.1701C34.9609 59.0701 34.8209 59.0201 34.6209 59.0201C34.4609 59.0201 34.3009 59.0501 34.1209 59.1001C33.9509 59.1501 33.8009 59.2201 33.6809 59.3001V62.2501H32.7909V59.6601C32.7909 59.4301 32.7409 59.2701 32.6509 59.1701C32.5609 59.0701 32.4209 59.0201 32.2209 59.0201C32.0709 59.0201 31.9109 59.0401 31.7409 59.0901C31.5809 59.1401 31.4109 59.2101 31.2709 59.3001V62.2501H30.3809V58.4301H31.1209L31.2009 58.8201C31.4509 58.6501 31.6809 58.5201 31.9009 58.4401C32.1309 58.3601 32.3509 58.3201 32.5809 58.3201C33.0409 58.3201 33.3609 58.4901 33.5409 58.8401C34.0409 58.5001 34.5209 58.3201 34.9709 58.3201C35.3209 58.3201 35.6109 58.4201 35.8009 58.6101C35.9909 58.8001 36.0909 59.0701 36.0909 59.4401V62.2401H35.2009L35.1909 62.2501Z" fill="#242E3D"></path>
    <path d="M41.9606 62.2501V59.6601C41.9606 59.4301 41.9106 59.2701 41.8206 59.1701C41.7306 59.0701 41.5906 59.0201 41.3906 59.0201C41.2306 59.0201 41.0706 59.0501 40.8906 59.1001C40.7206 59.1501 40.5606 59.2201 40.4406 59.3001V62.2501H39.5506V59.6601C39.5506 59.4301 39.5006 59.2701 39.4106 59.1701C39.3206 59.0701 39.1806 59.0201 38.9806 59.0201C38.8306 59.0201 38.6706 59.0401 38.5006 59.0901C38.3406 59.1401 38.1806 59.2101 38.0306 59.3001V62.2501H37.1406V58.4301H37.8806L37.9606 58.8201C38.2106 58.6501 38.4406 58.5201 38.6606 58.4401C38.8906 58.3601 39.1106 58.3201 39.3406 58.3201C39.8006 58.3201 40.1206 58.4901 40.3006 58.8401C40.8006 58.5001 41.2806 58.3201 41.7306 58.3201C42.0906 58.3201 42.3706 58.4201 42.5606 58.6101C42.7606 58.8001 42.8506 59.0701 42.8506 59.4401V62.2401H41.9606V62.2501Z" fill="#242E3D"></path>
    <path d="M44.5309 60.5501C44.5509 60.9301 44.6509 61.2101 44.8509 61.3901C45.0509 61.5601 45.3609 61.6501 45.7609 61.6501C46.1409 61.6501 46.5409 61.5901 46.9709 61.4501V62.0701C46.8009 62.1601 46.5909 62.2301 46.3609 62.2801C46.1309 62.3401 45.8809 62.3601 45.6309 62.3601C45.0109 62.3601 44.5309 62.1901 44.2009 61.8601C43.8709 61.5201 43.7109 61.0201 43.7109 60.3601C43.7109 59.7001 43.8709 59.2201 44.1909 58.8601C44.5109 58.5001 44.9609 58.3201 45.5309 58.3201C46.0209 58.3201 46.3909 58.4501 46.6609 58.7201C46.9209 58.9801 47.0609 59.3601 47.0609 59.8601C47.0609 60.1201 47.0409 60.3501 46.9909 60.5501H44.5409H44.5309ZM45.4809 58.9701C45.2209 58.9701 44.9909 59.0601 44.8209 59.2401C44.6509 59.4201 44.5509 59.6601 44.5309 59.9701H46.2709V59.9101C46.2709 59.6101 46.2009 59.3701 46.0709 59.2201C45.9309 59.0601 45.7409 58.9701 45.4809 58.9701Z" fill="#242E3D"></path>
    <path d="M47.9102 62.2499V58.4299H48.6502L48.7702 58.9999C48.9702 58.7799 49.1602 58.6299 49.3302 58.5399C49.5002 58.4499 49.6902 58.3999 49.9002 58.3999C49.9902 58.3999 50.0902 58.3999 50.2102 58.4199V59.2299C50.0702 59.2099 49.9202 59.1999 49.7802 59.1999C49.4102 59.1999 49.0902 59.2899 48.8102 59.4799V62.2499H47.9202H47.9102Z" fill="#242E3D"></path>
    <path d="M52.5191 61.2201C52.5191 61.1101 52.4791 61.0201 52.4091 60.9501C52.3391 60.8801 52.2091 60.8101 52.0191 60.7401L51.3991 60.5101C50.8391 60.2901 50.5591 59.9401 50.5591 59.4601C50.5591 59.1101 50.6891 58.8401 50.9491 58.6401C51.2191 58.4401 51.5591 58.3401 51.9891 58.3401C52.4191 58.3401 52.7891 58.4201 53.1091 58.5801V59.2001C52.7291 59.0801 52.3691 59.0101 52.0391 59.0101C51.8091 59.0101 51.6391 59.0401 51.5391 59.1201C51.4291 59.1901 51.3791 59.2901 51.3791 59.4401C51.3791 59.5501 51.4191 59.6401 51.4991 59.7101C51.5691 59.7701 51.7191 59.8501 51.9091 59.9301L52.4991 60.1501C52.7991 60.2701 53.0091 60.4101 53.1491 60.5701C53.2791 60.7301 53.3491 60.9301 53.3491 61.1701C53.3491 61.5501 53.2091 61.8501 52.9391 62.0601C52.6691 62.2801 52.2991 62.3901 51.8191 62.3901C51.5791 62.3901 51.3591 62.3601 51.1291 62.3101C50.9091 62.2601 50.7191 62.1901 50.5391 62.1001V61.4801C51.0191 61.6401 51.4391 61.7101 51.8191 61.7101C52.0691 61.7101 52.2391 61.6701 52.3591 61.5901C52.4791 61.5201 52.5391 61.4001 52.5391 61.2401L52.5191 61.2201Z" fill="#242E3D"></path>
    <path d="M54.1195 62.25V58.43H54.9995V62.25H54.1195ZM54.5495 57.8C54.3895 57.8 54.2595 57.76 54.1595 57.67C54.0695 57.58 54.0195 57.45 54.0195 57.29C54.0195 57.13 54.0695 57 54.1595 56.91C54.2495 56.82 54.3795 56.77 54.5495 56.77C54.7195 56.77 54.8495 56.82 54.9495 56.91C55.0395 57 55.0895 57.12 55.0895 57.29C55.0895 57.46 55.0395 57.57 54.9495 57.67C54.8595 57.76 54.7195 57.8 54.5495 57.8Z" fill="#242E3D"></path>
    <path d="M57.7602 62.3701C57.1802 62.3701 56.7302 62.1901 56.4002 61.8301C56.0702 61.4701 55.9102 60.9701 55.9102 60.3401C55.9102 59.7101 56.0702 59.2201 56.4002 58.8601C56.7302 58.5001 57.1802 58.3201 57.7602 58.3201C58.3402 58.3201 58.7802 58.5001 59.1102 58.8601C59.4402 59.2101 59.6002 59.7001 59.6002 60.3401C59.6002 60.9801 59.4402 61.4701 59.1102 61.8301C58.7902 62.1901 58.3402 62.3701 57.7602 62.3701ZM57.7602 61.6601C58.3902 61.6601 58.7102 61.2201 58.7102 60.3401C58.7102 59.4601 58.3902 59.0201 57.7602 59.0201C57.1302 59.0201 56.8102 59.4601 56.8102 60.3401C56.8102 61.2201 57.1302 61.6601 57.7602 61.6601Z" fill="#242E3D"></path>
    <path d="M63.0202 62.2501V59.7201C63.0202 59.4801 62.9702 59.3001 62.8702 59.1901C62.7702 59.0701 62.6102 59.0201 62.3902 59.0201C62.0602 59.0201 61.7302 59.1301 61.3802 59.3501V62.2601H60.4902V58.4401H61.2302L61.3102 58.8601C61.7802 58.5101 62.2702 58.3301 62.7902 58.3301C63.1602 58.3301 63.4402 58.4301 63.6202 58.6201C63.8102 58.8101 63.9002 59.0801 63.9002 59.4501V62.2501H63.0202Z" fill="#242E3D"></path>
    <path d="M66.9902 62.25V57.05H68.7702C69.5402 57.05 70.1302 57.2701 70.5402 57.7201C70.9502 58.1701 71.1502 58.81 71.1502 59.64C71.1502 60.47 70.9402 61.13 70.5302 61.59C70.1102 62.03 69.5302 62.26 68.7702 62.26H66.9902V62.25ZM67.9202 57.7701V61.53H68.6702C69.7102 61.53 70.2302 60.93 70.2302 59.73V59.57C70.2302 58.38 69.7102 57.78 68.6702 57.78H67.9202V57.7701Z" fill="#242E3D"></path>
    <path d="M74.3098 62.2501L74.2398 61.8901C74.0598 62.0401 73.8598 62.1501 73.6498 62.2401C73.4398 62.3301 73.2298 62.3701 73.0198 62.3701C72.6698 62.3701 72.3799 62.2601 72.1599 62.0501C71.9499 61.8401 71.8398 61.5701 71.8398 61.2301C71.8398 60.8601 71.9698 60.5701 72.2398 60.3501C72.4998 60.1201 72.8598 60.0101 73.3198 60.0101C73.5798 60.0101 73.8798 60.0501 74.1898 60.1301V59.6901C74.1898 59.4301 74.1398 59.2601 74.0298 59.1601C73.9198 59.0601 73.7298 59.0101 73.4598 59.0101C73.0698 59.0101 72.6198 59.0901 72.1098 59.2601V58.6401C72.2998 58.5501 72.5198 58.4701 72.7898 58.4201C73.0498 58.3701 73.3198 58.3401 73.5998 58.3401C74.0798 58.3401 74.4398 58.4401 74.6798 58.6401C74.9098 58.8401 75.0298 59.1401 75.0298 59.5701V62.2601H74.3198L74.3098 62.2501ZM73.2698 61.7301C73.4198 61.7301 73.5699 61.7001 73.7299 61.6401C73.8899 61.5801 74.0498 61.4901 74.1998 61.3701V60.6501C73.9398 60.6001 73.6998 60.5701 73.4998 60.5701C72.9798 60.5701 72.7198 60.7701 72.7198 61.1701C72.7198 61.3501 72.7699 61.4901 72.8699 61.5901C72.9699 61.6801 73.1098 61.7301 73.2798 61.7301H73.2698Z" fill="#242E3D"></path>
    <path d="M77.0898 62.2999L75.5898 58.4299H76.5398L77.5098 61.4499L78.4898 58.4299H79.3898L77.6798 62.8599C77.5398 63.2299 77.3698 63.4899 77.1798 63.6499C76.9898 63.8099 76.7498 63.8999 76.4398 63.8999C76.2198 63.8999 76.0098 63.8599 75.8198 63.7799V63.1599C75.9398 63.1899 76.0598 63.2099 76.1998 63.2099C76.4198 63.2099 76.5798 63.1699 76.6798 63.0899C76.7898 63.0099 76.8898 62.8399 76.9998 62.5599L77.0898 62.2999Z" fill="#242E3D"></path>
  </g>
  <defs>
    <clipPath id="clip0_8184_27">
      <rect width="90" height="90" fill="white"></rect>
    </clipPath>
  </defs>
</svg>
