<?xml version="1.0" encoding="UTF-8"?>
<svg xmlns="http://www.w3.org/2000/svg" width="90" height="90" viewBox="0 0 90 90" fill="none">
  <g clip-path="url(#clip0_8184_45)">
    <path d="M61.2 0H0V61.5L28.5 90H90V28.8L61.2 0Z" fill="white"></path>
    <path d="M60.45 1.88L88.13 29.56V88.13H29.25L1.88 60.75V1.88H60.45ZM61.2 0H0V61.5L28.5 90H90V28.8L61.2 0Z" fill="#242E3D"></path>
    <path d="M14.6202 50.7001V54.0001H12.7402V45.0001H16.1902C17.0102 44.9301 17.7602 45.2301 18.4402 45.7501C19.5602 46.9501 19.5602 48.7501 18.4402 49.9501C17.8402 50.4801 17.0102 50.7701 16.1902 50.7001H14.6202ZM14.6202 49.2701H15.9702C16.3502 49.2701 16.7202 49.2001 16.9402 48.8901C17.3902 48.2901 17.3902 47.3901 16.9402 46.7901C16.6402 46.5601 16.3402 46.4101 15.9702 46.4101H14.6202V49.2601V49.2701ZM27.1502 54.0001L26.5502 51.9801H23.4802L22.8802 54.0001H20.8602L24.0102 45.0001H26.1902L29.2602 54.0001H27.1602H27.1502ZM23.8502 50.5501H26.1002L24.9802 46.8001L23.8602 50.5501H23.8502ZM31.9502 54.0001V45.0001H35.4002C36.2302 44.9301 36.9802 45.2301 37.6502 45.7501C38.1802 46.2701 38.4802 47.0201 38.4802 47.7701C38.4802 48.3001 38.3302 48.7501 38.0302 49.2001C37.7302 49.6501 37.2802 49.9501 36.8302 50.1801L39.0802 54.0801H37.0602L35.1102 50.5601H33.8302V54.0101H31.9502V54.0001ZM33.8202 49.1201H35.1702C35.8502 49.1901 36.4402 48.7401 36.5202 48.0701V47.6901C36.6002 47.0101 36.1402 46.4201 35.5502 46.3401H33.9002V49.1101H33.8302L33.8202 49.1201ZM43.6502 54.0001V46.5701H40.8802V45.0001H48.3102V46.5701H45.5302V54.0001H43.6602H43.6502ZM53.0202 47.7701V54.0001H51.3002V45.0001H53.4002L57.0802 51.3001V45.0001H58.8102V54.0001H56.7102L53.0302 47.7701H53.0202ZM62.2502 54.0001V45.0001H68.1802V46.5001H64.2002V48.6001H67.4302V50.1001H64.2002V52.5001H68.1802V54.0001H62.2502ZM71.6202 54.0001V45.0001H75.0702C75.8902 44.9301 76.6402 45.2301 77.3202 45.7501C77.8502 46.2701 78.1402 47.0201 78.1402 47.7701C78.1402 48.3001 77.9902 48.7501 77.6902 49.2001C77.3902 49.6501 76.9402 49.9501 76.4902 50.1801L78.7402 54.0801H76.7202L74.7702 50.5601H73.5002V54.0101H71.6202V54.0001ZM73.5002 49.1201H74.8502C75.5202 49.1901 76.1202 48.7401 76.2002 48.0701V47.6901C76.2702 47.0101 75.8202 46.4201 75.2302 46.3401H73.5002V49.1101V49.1201Z" fill="#242E3D"></path>
    <path d="M20.0202 20.6201C20.0202 20.9201 20.0202 21.2201 20.1702 21.5201C20.2402 21.7501 20.3902 22.0501 20.4702 22.2701C20.5402 22.3501 20.5402 22.4201 20.5402 22.5001C20.5402 22.6501 20.4702 22.7301 20.3102 22.8001L19.6302 23.2501H19.4102C19.2602 23.2501 19.1802 23.1801 19.1102 23.1001C18.9602 22.9501 18.8102 22.8001 18.7302 22.6501C18.6602 22.5001 18.5002 22.2701 18.4302 22.0501C17.6802 22.9501 16.6302 23.4801 15.4302 23.4801C14.6802 23.5501 13.9302 23.2501 13.4102 22.7301C12.8802 22.2001 12.6602 21.5301 12.6602 20.7801C12.6602 19.9601 12.9602 19.2101 13.5602 18.6801C14.2402 18.1501 15.1302 17.8601 16.0402 17.8601C16.4202 17.8601 16.7902 17.8601 17.0902 17.9301L18.2102 18.1501V17.4001C18.2802 16.8001 18.1302 16.2001 17.7602 15.7501C17.3102 15.3701 16.7102 15.2301 16.1102 15.3001C15.7302 15.3001 15.3602 15.3701 14.9902 15.4501C14.6202 15.5301 14.2402 15.6801 13.8702 15.8301C13.7202 15.9001 13.6402 15.9001 13.4902 15.9801H13.3402C13.1902 15.9801 13.1102 15.9001 13.1102 15.6801V15.1501C13.1102 15.0001 13.1102 14.9301 13.1802 14.7701C13.2502 14.7001 13.3302 14.6201 13.4802 14.5501C13.8602 14.3201 14.3002 14.1701 14.7502 14.1001C15.2802 13.9501 15.8002 13.8701 16.3302 13.8701C17.3002 13.8001 18.2102 14.1001 18.9502 14.6901C19.5502 15.3701 19.8502 16.2601 19.7702 17.1701L19.9902 20.6201H20.0202ZM15.9002 22.1201C16.2802 22.1201 16.5802 22.0501 16.9502 21.9701C17.3302 21.8201 17.6302 21.5901 17.9302 21.2901C18.0802 21.1401 18.2302 20.9101 18.3102 20.6101C18.3902 20.3101 18.3802 20.0101 18.3802 19.7101V19.2601C18.0802 19.1901 17.7802 19.1101 17.4802 19.1101C17.1802 19.0401 16.8802 19.0401 16.5002 19.0401C15.9802 18.9701 15.4502 19.1101 15.0002 19.4201C14.4002 20.0201 14.3202 20.9901 14.8502 21.6701C15.1502 22.0501 15.5202 22.1901 15.9002 22.1201ZM24.0702 23.2501C23.9202 23.2501 23.7702 23.2501 23.6902 23.1801C23.6202 23.1101 23.5402 22.9501 23.4702 22.8001L21.0702 14.9201C21.0002 14.7701 21.0002 14.6201 21.0002 14.5401C21.0002 14.3901 21.0702 14.3101 21.1502 14.3101H22.2002C22.3502 14.3101 22.5002 14.3101 22.5802 14.3801C22.6502 14.4601 22.7302 14.6101 22.8102 14.7601L24.5302 21.4401L26.1102 14.7601C26.1102 14.6101 26.1802 14.4601 26.3302 14.3801C26.4802 14.3101 26.6302 14.3101 26.7102 14.3101H27.5302C27.6802 14.3101 27.8302 14.3101 27.9102 14.3801C27.9902 14.4601 28.0602 14.6101 28.1402 14.7601L29.7102 21.5901L31.4402 14.7601C31.4402 14.6101 31.5102 14.4601 31.6602 14.3801C31.8102 14.3101 31.8902 14.3101 32.0402 14.3101H33.0202C33.1702 14.3101 33.2502 14.3801 33.2502 14.4601V14.6801C33.2502 14.7501 33.1702 14.8301 33.1702 14.9101L30.7702 22.7101C30.7702 22.8601 30.7002 23.0101 30.5402 23.0901C30.4702 23.2401 30.3202 23.2401 30.1602 23.2401H29.2602C29.1102 23.2401 28.9602 23.2401 28.8802 23.1701C28.8102 23.0201 28.7302 22.9401 28.6502 22.7901L27.0802 16.2601L25.5102 22.7901C25.5102 22.9401 25.4402 23.0901 25.2802 23.1701C25.2102 23.2401 25.0602 23.2401 24.9802 23.2401H24.0802L24.0702 23.2501ZM37.1202 23.5501C36.6002 23.5501 36.0702 23.4801 35.5502 23.4001C35.1702 23.3301 34.7302 23.1801 34.3502 23.0201C34.1202 22.9501 33.9702 22.7201 33.9702 22.4201V21.8901C33.9702 21.6701 34.0402 21.5901 34.1902 21.5901H34.3402C34.4102 21.5901 34.4902 21.6601 34.5602 21.6601C34.9402 21.8101 35.3102 21.9601 35.6802 22.0401C36.0602 22.1101 36.5002 22.1901 36.8802 22.1901C37.4102 22.1901 37.9302 22.1201 38.3802 21.8101C38.6802 21.5901 38.9102 21.2101 38.9102 20.8401C38.9102 20.5401 38.8402 20.3101 38.6102 20.1601C38.3102 19.9301 37.9302 19.7101 37.5602 19.6301L36.0602 19.1801C35.4602 19.0301 34.8602 18.6601 34.4102 18.1301C34.1102 17.6801 33.8802 17.1601 33.8802 16.6301C33.8802 16.2501 33.9602 15.8801 34.1802 15.5101C34.3302 15.2101 34.6302 14.9101 34.9302 14.6901C35.2302 14.4701 35.6102 14.2401 35.9802 14.1701C36.4302 14.0201 36.8002 14.0201 37.2502 14.0201C37.4802 14.0201 37.7002 14.0201 37.9302 14.1001C38.1602 14.1001 38.3802 14.1701 38.6102 14.2501C38.8402 14.3301 38.9902 14.3201 39.2102 14.4001C39.3602 14.4801 39.5102 14.4801 39.6602 14.5501C39.8102 14.6201 39.8802 14.7001 39.9602 14.7701C40.0302 14.8501 40.0302 15.0001 40.0302 15.1501V15.6001C40.0302 15.8201 39.9602 15.9001 39.8002 15.9001C39.6402 15.9001 39.5002 15.8301 39.4202 15.7501C38.8202 15.4501 38.1502 15.3701 37.4702 15.3701C37.0202 15.3701 36.5702 15.4401 36.1202 15.6701C35.8202 15.8201 35.6002 16.1901 35.6702 16.5701C35.6702 16.8701 35.7402 17.1001 35.9702 17.3201C36.2702 17.6201 36.6502 17.7701 37.0902 17.8501L38.5202 18.3001C39.1202 18.4501 39.6402 18.8201 40.0902 19.2701C40.3902 19.6501 40.5402 20.1701 40.5402 20.7001C40.5402 21.0801 40.4702 21.5201 40.2402 21.9001C40.0902 22.2801 39.7902 22.5801 39.4902 22.8001C39.1902 23.0201 38.7402 23.2501 38.3702 23.4001C38.0702 23.4801 37.5502 23.5501 37.1002 23.5501H37.1202Z" fill="#242E3D"></path>
    <path d="M39.0001 28.4299C35.6201 30.8999 30.8201 32.1799 26.6201 32.1799C21.0701 32.1799 15.6701 30.1499 11.5501 26.3999C11.2501 26.0999 11.5501 25.7299 11.9301 25.9499C16.5001 28.6499 21.7501 29.9999 27.0001 29.9999C30.9801 29.9999 34.8801 29.1799 38.5501 27.6799C39.0701 27.4499 39.6001 28.0599 39.0001 28.4299ZM39.5201 30.6799C39.3701 30.9799 39.6701 31.1299 39.9701 30.8999C41.7701 29.3999 42.2201 26.2499 41.8501 25.7999C41.4701 25.3499 38.3201 24.9799 36.4501 26.3199C36.1501 26.5499 36.2301 26.8499 36.5201 26.7699C37.5701 26.6199 39.9701 26.3199 40.4201 26.9199C40.8701 27.5199 39.8901 29.6899 39.5201 30.6699V30.6799Z" fill="#FF9900"></path>
    <path d="M33.5495 60.7501L33.1995 59.7101H31.6095L31.2795 60.7501H30.5195L32.0295 56.5901H32.8295L34.3295 60.7501H33.5595H33.5495ZM31.7795 59.1701H33.0295L32.3995 57.2601L31.7795 59.1701Z" fill="#242E3D"></path>
    <path d="M37.9307 60.7501L37.1907 57.6201L36.4507 60.7501H35.6507L34.4707 56.5901H35.2707L36.0707 59.9501L36.8107 56.7001H37.5907L38.3407 59.9501L39.1407 56.5901H39.9107L38.7307 60.7501H37.9307Z" fill="#242E3D"></path>
    <path d="M41.2901 58.84C40.9501 58.71 40.7101 58.55 40.5501 58.38C40.4001 58.2 40.3301 57.98 40.3301 57.7C40.3301 57.33 40.4601 57.04 40.7201 56.82C40.9901 56.6 41.3401 56.49 41.7901 56.49C42.1601 56.49 42.5301 56.56 42.9101 56.7V57.29C42.5201 57.17 42.1601 57.11 41.8401 57.11C41.3101 57.11 41.0401 57.29 41.0401 57.64C41.0401 57.78 41.0901 57.89 41.1801 57.98C41.2801 58.07 41.4501 58.15 41.6901 58.24L42.1901 58.43C42.5201 58.55 42.7701 58.71 42.9201 58.89C43.0801 59.06 43.1501 59.28 43.1501 59.56C43.1501 59.97 43.0101 60.29 42.7201 60.52C42.4401 60.75 42.0501 60.86 41.5601 60.86C41.3401 60.86 41.1301 60.84 40.9201 60.79C40.7101 60.75 40.5301 60.69 40.3701 60.61V60.04C40.5601 60.1 40.7701 60.15 40.9801 60.19C41.2001 60.22 41.4001 60.24 41.5701 60.24C41.8501 60.24 42.0701 60.19 42.2201 60.09C42.3801 59.99 42.4501 59.84 42.4501 59.64C42.4501 59.51 42.4001 59.4 42.3101 59.31C42.2201 59.22 42.0601 59.13 41.8301 59.04L41.2901 58.84Z" fill="#242E3D"></path>
    <path d="M48.9795 60.7501V57.6301L47.8895 59.7001H47.2295L46.1795 57.6401V60.7401H45.5195V56.5801H46.3295L47.5795 59.0601L48.8595 56.5801H49.6295V60.7401H48.9695L48.9795 60.7501Z" fill="#242E3D"></path>
    <path d="M52.3294 60.7501L52.2794 60.4601C52.1394 60.5801 51.9794 60.6701 51.8094 60.7401C51.6394 60.8101 51.4694 60.8501 51.3094 60.8501C51.0294 60.8501 50.7994 60.7701 50.6194 60.6001C50.4494 60.4301 50.3594 60.2101 50.3594 59.9301C50.3594 59.6301 50.4694 59.4001 50.6794 59.2301C50.8994 59.0501 51.1894 58.9601 51.5494 58.9601C51.7594 58.9601 51.9894 58.9901 52.2494 59.0501V58.7001C52.2494 58.5001 52.1994 58.3601 52.1094 58.2801C52.0194 58.1901 51.8694 58.1501 51.6494 58.1501C51.3394 58.1501 50.9694 58.2201 50.5694 58.3501V57.8601C50.7094 57.7801 50.8994 57.7301 51.1094 57.6901C51.3294 57.6401 51.5494 57.6201 51.7694 57.6201C52.1594 57.6201 52.4494 57.7001 52.6394 57.8701C52.8294 58.0301 52.9194 58.2801 52.9194 58.6101V60.7701H52.3294V60.7501ZM51.5094 60.3401C51.6294 60.3401 51.7494 60.3201 51.8694 60.2701C51.9894 60.2201 52.1194 60.1401 52.2494 60.0501V59.4801C52.0394 59.4301 51.8494 59.4101 51.6894 59.4101C51.2694 59.4101 51.0594 59.5701 51.0594 59.9001C51.0594 60.0401 51.0994 60.1501 51.1794 60.2301C51.2694 60.3101 51.3794 60.3501 51.5194 60.3501L51.5094 60.3401Z" fill="#242E3D"></path>
    <path d="M53.7598 60.7499V57.6899H54.3498L54.4398 58.1499C54.5998 57.9799 54.7598 57.8599 54.8998 57.7899C55.0398 57.7099 55.1898 57.6699 55.3598 57.6699C55.4298 57.6699 55.5098 57.6699 55.6098 57.6899V58.3299C55.4898 58.3099 55.3698 58.3099 55.2598 58.3099C54.9598 58.3099 54.6998 58.3899 54.4698 58.5299V60.7399H53.7698L53.7598 60.7499Z" fill="#242E3D"></path>
    <path d="M56.0801 60.7501V56.3101H56.7801V59.0201L57.9901 57.6901H58.8301L57.4601 59.1501L58.9401 60.7401H58.0601L56.7801 59.3201V60.7401H56.0801V60.7501Z" fill="#242E3D"></path>
    <path d="M59.8607 59.3901C59.8807 59.6901 59.9607 59.9301 60.1207 60.0701C60.2807 60.2101 60.5207 60.2801 60.8507 60.2801C61.1507 60.2801 61.4707 60.2201 61.8107 60.1001V60.6001C61.6807 60.6701 61.5207 60.7201 61.3307 60.7601C61.1407 60.8101 60.9507 60.8301 60.7607 60.8301C60.2507 60.8301 59.8707 60.7001 59.6107 60.4201C59.3507 60.1501 59.2207 59.7501 59.2207 59.2201C59.2207 58.6901 59.3407 58.3101 59.6007 58.0201C59.8607 57.7301 60.2107 57.5901 60.6707 57.5901C61.0607 57.5901 61.3607 57.7001 61.5707 57.9101C61.7807 58.1201 61.8907 58.4301 61.8907 58.8201C61.8907 59.0201 61.8707 59.2101 61.8307 59.3701H59.8707L59.8607 59.3901ZM60.6207 58.1201C60.4107 58.1201 60.2307 58.1901 60.0907 58.3401C59.9607 58.4801 59.8807 58.6801 59.8507 58.9101H61.2507V58.8601C61.2507 58.6201 61.2007 58.4301 61.0907 58.3101C60.9807 58.1801 60.8207 58.1101 60.6207 58.1101V58.1201Z" fill="#242E3D"></path>
    <path d="M64.3209 60.6801C64.1209 60.7601 63.8909 60.8001 63.6509 60.8001C63.3409 60.8001 63.1009 60.7301 62.9509 60.5801C62.8009 60.4301 62.7309 60.2001 62.7309 59.9001V58.2301H62.2109V57.8001L62.7509 57.7201L62.8509 56.8601H63.4209V57.6901H64.2909V58.2301H63.4209V59.8601C63.4209 60.0001 63.4509 60.0901 63.5109 60.1501C63.5809 60.2101 63.6909 60.2301 63.8509 60.2301C64.0109 60.2301 64.1709 60.2101 64.3109 60.1801V60.6701L64.3209 60.6801Z" fill="#242E3D"></path>
    <path d="M64.9004 61.9801V57.6901H65.4904L65.5604 58.0101C65.7004 57.8801 65.8504 57.7801 66.0204 57.7201C66.1904 57.6501 66.3704 57.6101 66.5604 57.6101C66.9404 57.6101 67.2404 57.7501 67.4604 58.0301C67.6904 58.3101 67.8004 58.6901 67.8004 59.1801C67.8004 59.5001 67.7504 59.7801 67.6504 60.0401C67.5504 60.2801 67.4004 60.4701 67.1904 60.6101C66.9904 60.7501 66.7704 60.8201 66.5104 60.8201C66.3404 60.8201 66.1704 60.7901 66.0204 60.7401C65.8604 60.6801 65.7304 60.5901 65.6104 60.4801V61.9801H64.9104H64.9004ZM66.3304 58.1601C66.0604 58.1601 65.8204 58.2401 65.6004 58.3901V60.0201C65.8304 60.1801 66.0604 60.2501 66.3104 60.2501C66.5604 60.2501 66.7604 60.1601 66.8904 59.9901C67.0104 59.8101 67.0804 59.5501 67.0804 59.1901C67.0804 58.8301 67.0204 58.5801 66.8904 58.4001C66.7704 58.2301 66.5804 58.1401 66.3304 58.1401V58.1601Z" fill="#242E3D"></path>
    <path d="M69.7 60.7001C69.55 60.7501 69.39 60.78 69.22 60.78C68.99 60.78 68.8 60.7101 68.68 60.5801C68.56 60.4501 68.5 60.2501 68.5 59.9901V56.3H69.2V59.93C69.2 60.03 69.22 60.1101 69.26 60.1501C69.3 60.1901 69.36 60.21 69.45 60.21C69.52 60.21 69.6 60.2101 69.7 60.2001V60.69V60.7001Z" fill="#242E3D"></path>
    <path d="M72.0794 60.7501L72.0294 60.4601C71.8894 60.5801 71.7294 60.6701 71.5594 60.7401C71.3894 60.8101 71.2194 60.8501 71.0594 60.8501C70.7794 60.8501 70.5494 60.7701 70.3694 60.6001C70.1994 60.4301 70.1094 60.2101 70.1094 59.9301C70.1094 59.6301 70.2194 59.4001 70.4294 59.2301C70.6494 59.0501 70.9394 58.9601 71.2994 58.9601C71.5094 58.9601 71.7494 58.9901 71.9994 59.0501V58.7001C71.9994 58.5001 71.9494 58.3601 71.8594 58.2801C71.7694 58.1901 71.6194 58.1501 71.3994 58.1501C71.0894 58.1501 70.7194 58.2201 70.3194 58.3501V57.8601C70.4594 57.7801 70.6494 57.7301 70.8594 57.6901C71.0694 57.6401 71.2994 57.6201 71.5194 57.6201C71.9094 57.6201 72.1994 57.7001 72.3894 57.8701C72.5794 58.0301 72.6694 58.2801 72.6694 58.6101V60.7701H72.0794V60.7501ZM71.2594 60.3401C71.3794 60.3401 71.4994 60.3201 71.6194 60.2701C71.7394 60.2201 71.8694 60.1401 71.9994 60.0501V59.4801C71.7894 59.4301 71.5994 59.4101 71.4394 59.4101C71.0194 59.4101 70.8094 59.5701 70.8094 59.9001C70.8094 60.0401 70.8494 60.1501 70.9294 60.2301C71.0194 60.3101 71.1294 60.3501 71.2694 60.3501L71.2594 60.3401Z" fill="#242E3D"></path>
    <path d="M75.6496 60.6299C75.4196 60.7599 75.1296 60.8199 74.8096 60.8199C74.3396 60.8199 73.9796 60.6899 73.7296 60.4099C73.4796 60.1399 73.3496 59.7499 73.3496 59.2499C73.3496 58.7499 73.4796 58.3399 73.7396 58.0599C73.9996 57.7799 74.3596 57.6399 74.8296 57.6399C75.1196 57.6399 75.3896 57.6999 75.6296 57.8199V58.3199C75.3596 58.2499 75.1396 58.1999 74.9496 58.1999C74.6496 58.1999 74.4196 58.2799 74.2796 58.4499C74.1396 58.6099 74.0696 58.8599 74.0696 59.1999V59.2799C74.0696 59.6199 74.1396 59.8699 74.2796 60.0299C74.4196 60.1899 74.6396 60.2599 74.9496 60.2599C75.1596 60.2599 75.3996 60.2199 75.6496 60.1299V60.6299Z" fill="#242E3D"></path>
    <path d="M76.7806 59.3901C76.8006 59.6901 76.8806 59.9301 77.0406 60.0701C77.2006 60.2101 77.4406 60.2801 77.7706 60.2801C78.0706 60.2801 78.3906 60.2201 78.7306 60.1001V60.6001C78.6006 60.6701 78.4406 60.7201 78.2506 60.7601C78.0606 60.8101 77.8706 60.8301 77.6806 60.8301C77.1706 60.8301 76.7906 60.7001 76.5306 60.4201C76.2706 60.1501 76.1406 59.7501 76.1406 59.2201C76.1406 58.6901 76.2606 58.3101 76.5206 58.0201C76.7806 57.7301 77.1306 57.5901 77.5906 57.5901C77.9806 57.5901 78.2806 57.7001 78.4906 57.9101C78.7006 58.1201 78.8106 58.4301 78.8106 58.8201C78.8106 59.0201 78.7906 59.2101 78.7506 59.3701H76.7906L76.7806 59.3901ZM77.5506 58.1201C77.3406 58.1201 77.1606 58.1901 77.0206 58.3401C76.8906 58.4801 76.8106 58.6801 76.7906 58.9101H78.1906V58.8601C78.1906 58.6201 78.1306 58.4301 78.0306 58.3101C77.9206 58.1801 77.7606 58.1101 77.5606 58.1101L77.5506 58.1201Z" fill="#242E3D"></path>
    <path d="M62.0303 64.84C61.6903 64.71 61.4503 64.55 61.2903 64.38C61.1403 64.2 61.0703 63.98 61.0703 63.7C61.0703 63.33 61.2003 63.04 61.4603 62.82C61.7303 62.6 62.0803 62.49 62.5303 62.49C62.9003 62.49 63.2703 62.56 63.6503 62.7V63.29C63.2503 63.17 62.9003 63.11 62.5803 63.11C62.0503 63.11 61.7803 63.29 61.7803 63.64C61.7803 63.78 61.8303 63.89 61.9203 63.98C62.0203 64.07 62.1903 64.15 62.4403 64.24L62.9403 64.43C63.2703 64.55 63.5203 64.71 63.6703 64.89C63.8303 65.06 63.9003 65.28 63.9003 65.56C63.9003 65.97 63.7603 66.29 63.4703 66.52C63.1903 66.75 62.8003 66.86 62.3103 66.86C62.0903 66.86 61.8803 66.84 61.6703 66.79C61.4603 66.75 61.2803 66.69 61.1203 66.61V66.04C61.3103 66.1 61.5203 66.15 61.7303 66.19C61.9403 66.22 62.1403 66.24 62.3203 66.24C62.6003 66.24 62.8203 66.19 62.9603 66.09C63.1203 65.99 63.2003 65.84 63.2003 65.64C63.2003 65.51 63.1503 65.4 63.0603 65.31C62.9703 65.22 62.8103 65.13 62.5803 65.04L62.0403 64.84H62.0303Z" fill="#242E3D"></path>
    <path d="M64.6309 66.7501V62.3101H65.3309V65.0201L66.5409 63.6901H67.3809L66.0109 65.1501L67.4909 66.7401H66.6109L65.3309 65.3201V66.7401H64.6309V66.7501Z" fill="#242E3D"></path>
    <path d="M67.9391 66.7501V63.6901H68.6391V66.7501H67.9391ZM68.2991 63.1901C68.1691 63.1901 68.0591 63.1501 67.9791 63.0801C67.9091 63.0101 67.8691 62.9101 67.8691 62.7901C67.8691 62.6601 67.9091 62.5601 67.9791 62.4801C68.0491 62.4101 68.1591 62.3701 68.2991 62.3701C68.4391 62.3701 68.5291 62.4101 68.6091 62.4801C68.6891 62.5501 68.7291 62.6501 68.7291 62.7901C68.7291 62.9101 68.6891 63.0101 68.6091 63.0801C68.5391 63.1501 68.4391 63.1901 68.2991 63.1901Z" fill="#242E3D"></path>
    <path d="M70.7391 66.7C70.5891 66.75 70.4291 66.78 70.2591 66.78C70.0191 66.78 69.8391 66.7101 69.7191 66.5801C69.5991 66.4501 69.5391 66.25 69.5391 65.99V62.3H70.2391V65.93C70.2391 66.03 70.2591 66.1101 70.2991 66.1501C70.3391 66.1901 70.3991 66.21 70.4891 66.21C70.5591 66.21 70.6391 66.21 70.7391 66.2V66.6901V66.7Z" fill="#242E3D"></path>
    <path d="M72.5398 66.7C72.3898 66.75 72.2298 66.78 72.0598 66.78C71.8298 66.78 71.6398 66.7101 71.5198 66.5801C71.3998 66.4501 71.3398 66.25 71.3398 65.99V62.3H72.0398V65.93C72.0398 66.03 72.0498 66.1101 72.0998 66.1501C72.1398 66.1901 72.1998 66.21 72.2898 66.21C72.3598 66.21 72.4398 66.21 72.5398 66.2V66.6901V66.7Z" fill="#242E3D"></path>
    <path d="M73.64 65.3901C73.66 65.6901 73.74 65.9301 73.9 66.0701C74.06 66.2101 74.3 66.2801 74.63 66.2801C74.93 66.2801 75.25 66.2201 75.59 66.1001V66.6001C75.46 66.6701 75.3 66.7201 75.11 66.7601C74.92 66.8101 74.73 66.8301 74.54 66.8301C74.03 66.8301 73.65 66.7001 73.39 66.4201C73.13 66.1501 73 65.7501 73 65.2201C73 64.6901 73.12 64.3101 73.38 64.0201C73.64 63.7301 73.99 63.5901 74.45 63.5901C74.84 63.5901 75.14 63.7001 75.35 63.9101C75.56 64.1201 75.67 64.4301 75.67 64.8201C75.67 65.0201 75.65 65.2101 75.61 65.3701H73.65L73.64 65.3901ZM74.41 64.1201C74.2 64.1201 74.02 64.1901 73.88 64.3401C73.75 64.4801 73.67 64.6801 73.65 64.9101H75.04V64.8601C75.04 64.6201 74.99 64.4301 74.88 64.3101C74.77 64.1801 74.61 64.1101 74.41 64.1101V64.1201Z" fill="#242E3D"></path>
    <path d="M78.4695 66.7501L78.3995 66.4601C78.1195 66.7001 77.8094 66.8201 77.4594 66.8201C77.0694 66.8201 76.7594 66.6801 76.5294 66.3901C76.2994 66.1001 76.1895 65.7201 76.1895 65.2301C76.1895 64.9201 76.2394 64.6401 76.3394 64.4001C76.4394 64.1501 76.5894 63.9601 76.7794 63.8201C76.9794 63.6801 77.2095 63.6101 77.4795 63.6101C77.7995 63.6101 78.0894 63.7101 78.3494 63.9201V62.3101H79.0594V66.7501H78.4494H78.4695ZM77.6895 66.2601C77.9195 66.2601 78.1495 66.1901 78.3695 66.0401V64.3901C78.1695 64.2501 77.9394 64.1701 77.6994 64.1701C77.4194 64.1701 77.2294 64.2601 77.0994 64.4301C76.9794 64.6001 76.9095 64.8601 76.9095 65.2201C76.9095 65.9201 77.1695 66.2701 77.6795 66.2701L77.6895 66.2601Z" fill="#242E3D"></path>
    <path d="M53.2402 72.63C52.9302 72.76 52.5602 72.82 52.1602 72.82C51.5002 72.82 50.9902 72.65 50.6602 72.29C50.3202 71.94 50.1602 71.42 50.1602 70.73C50.1602 70.04 50.3302 69.48 50.6802 69.1C51.0302 68.72 51.5302 68.53 52.1902 68.53C52.5502 68.53 52.8802 68.58 53.1902 68.68V69.29C52.7902 69.2 52.4802 69.16 52.2602 69.16C51.8102 69.16 51.4702 69.28 51.2502 69.51C51.0302 69.74 50.9202 70.11 50.9202 70.6V70.75C50.9202 71.24 51.0302 71.59 51.2402 71.83C51.4602 72.06 51.8002 72.18 52.2502 72.18C52.5002 72.18 52.8302 72.13 53.2502 72.03V72.63H53.2402Z" fill="#242E3D"></path>
    <path d="M55.2007 72.8401C54.7307 72.8401 54.3707 72.7001 54.1107 72.4101C53.8507 72.1201 53.7207 71.7201 53.7207 71.2101C53.7207 70.7001 53.8507 70.3101 54.1107 70.0301C54.3707 69.7501 54.7307 69.6101 55.2007 69.6101C55.6707 69.6101 56.0207 69.7501 56.2807 70.0301C56.5407 70.3101 56.6707 70.7101 56.6707 71.2101C56.6707 71.7101 56.5407 72.1201 56.2807 72.4101C56.0207 72.7001 55.6607 72.8401 55.2007 72.8401ZM55.2007 72.2801C55.7007 72.2801 55.9507 71.9301 55.9507 71.2101C55.9507 70.4901 55.7007 70.1601 55.2007 70.1601C54.7007 70.1601 54.4407 70.5101 54.4407 71.2101C54.4407 71.9101 54.6907 72.2801 55.2007 72.2801Z" fill="#242E3D"></path>
    <path d="M59.3891 72.7501V70.7201C59.3891 70.5201 59.3491 70.3801 59.2691 70.3001C59.1891 70.2101 59.0591 70.1601 58.8791 70.1601C58.6191 70.1601 58.3491 70.2501 58.0691 70.4301V72.7501H57.3691V69.6901H57.9591L58.0291 70.0301C58.4091 69.7501 58.7991 69.6101 59.2091 69.6101C59.4991 69.6101 59.7191 69.6901 59.8691 69.8401C60.0291 69.9901 60.0991 70.2101 60.0991 70.5101V72.7501H59.3891Z" fill="#242E3D"></path>
    <path d="M62.3407 71.9201C62.3407 71.8301 62.3107 71.7601 62.2507 71.7101C62.2007 71.6601 62.0907 71.6001 61.9507 71.5501L61.4507 71.3601C61.0007 71.1901 60.7807 70.9101 60.7807 70.5201C60.7807 70.2401 60.8807 70.0201 61.0807 69.8601C61.2907 69.7001 61.5707 69.6101 61.9207 69.6101C62.2507 69.6101 62.5407 69.6801 62.8207 69.8001V70.3001C62.5107 70.2001 62.2107 70.1501 61.9507 70.1501C61.7707 70.1501 61.6407 70.1801 61.5507 70.2301C61.4607 70.2801 61.4207 70.3701 61.4207 70.4801C61.4207 70.5701 61.4507 70.6501 61.5107 70.7001C61.5707 70.7601 61.6807 70.8101 61.8407 70.8801L62.3107 71.0601C62.5407 71.1501 62.7107 71.2701 62.8107 71.4001C62.9207 71.5201 62.9707 71.6901 62.9707 71.8801C62.9707 72.1801 62.8607 72.4101 62.6407 72.5901C62.4307 72.7601 62.1307 72.8501 61.7507 72.8501C61.5607 72.8501 61.3807 72.8301 61.2007 72.7801C61.0207 72.7401 60.8607 72.6901 60.7207 72.6201V72.1301C61.1107 72.2501 61.4507 72.3201 61.7407 72.3201C61.9407 72.3201 62.0907 72.2901 62.1807 72.2301C62.2707 72.1701 62.3207 72.0701 62.3207 71.9401L62.3407 71.9201Z" fill="#242E3D"></path>
    <path d="M65.6308 72.7499L65.5608 72.4099C65.1808 72.6999 64.8108 72.8399 64.4408 72.8399C64.1608 72.8399 63.9408 72.7599 63.7808 72.6099C63.6208 72.4499 63.5508 72.2199 63.5508 71.9199V69.6899H64.2708V71.7099C64.2708 71.9099 64.3108 72.0599 64.3908 72.1499C64.4708 72.2399 64.5908 72.2799 64.7808 72.2799C65.0208 72.2799 65.2708 72.1999 65.5308 72.0299V69.6899H66.2308V72.7499H65.6408H65.6308Z" fill="#242E3D"></path>
    <path d="M68.2801 72.7C68.1301 72.75 67.9701 72.78 67.8001 72.78C67.5601 72.78 67.3801 72.71 67.2601 72.58C67.1401 72.45 67.0801 72.25 67.0801 71.99V68.3H67.7801V71.93C67.7801 72.03 67.8001 72.11 67.8401 72.15C67.8801 72.19 67.9401 72.21 68.0301 72.21C68.1001 72.21 68.1801 72.21 68.2801 72.2V72.69V72.7Z" fill="#242E3D"></path>
    <path d="M70.6393 72.6801C70.4393 72.7601 70.2093 72.8001 69.9693 72.8001C69.6593 72.8001 69.4193 72.7301 69.2693 72.5801C69.1193 72.4301 69.0493 72.2001 69.0493 71.9001V70.2301H68.5293V69.8001L69.0693 69.7201L69.1793 68.8601H69.7493V69.6901H70.6193V70.2301H69.7493V71.8601C69.7493 72.0001 69.7793 72.0901 69.8393 72.1501C69.9093 72.2101 70.0193 72.2301 70.1793 72.2301C70.3393 72.2301 70.4993 72.2101 70.6393 72.1801V72.6701V72.6801Z" fill="#242E3D"></path>
    <path d="M71.2499 72.7501V69.6901H71.9499V72.7501H71.2499ZM71.5999 69.1901C71.4699 69.1901 71.3599 69.1501 71.2799 69.0801C71.2099 69.0101 71.1699 68.9101 71.1699 68.7901C71.1699 68.6601 71.2099 68.5601 71.2799 68.4801C71.3499 68.4101 71.4599 68.3701 71.5999 68.3701C71.7399 68.3701 71.8299 68.4101 71.8999 68.4801C71.9799 68.5501 72.0199 68.6501 72.0199 68.7901C72.0199 68.9101 71.9799 69.0101 71.8999 69.0801C71.8299 69.1501 71.7299 69.1901 71.5999 69.1901Z" fill="#242E3D"></path>
    <path d="M74.8598 72.7501V70.7201C74.8598 70.5201 74.8198 70.3801 74.7398 70.3001C74.6598 70.2101 74.5298 70.1601 74.3498 70.1601C74.0898 70.1601 73.8198 70.2501 73.5398 70.4301V72.7501H72.8398V69.6901H73.4298L73.4998 70.0301C73.8798 69.7501 74.2698 69.6101 74.6798 69.6101C74.9698 69.6101 75.1898 69.6901 75.3398 69.8401C75.4998 69.9901 75.5698 70.2101 75.5698 70.5101V72.7501H74.8598Z" fill="#242E3D"></path>
    <path d="M78.3598 72.3501C78.0998 72.5801 77.8098 72.6901 77.4798 72.6901C77.0998 72.6901 76.8098 72.5601 76.5898 72.2801C76.3698 72.0001 76.2598 71.6201 76.2598 71.1601C76.2598 70.8601 76.3098 70.5901 76.3998 70.3601C76.4998 70.1301 76.6498 69.9401 76.8298 69.8101C77.0198 69.6801 77.2398 69.6101 77.4998 69.6101C77.8498 69.6101 78.1498 69.7301 78.3998 69.9701L78.4598 69.6901H79.0598V72.5401C79.0598 73.0201 78.9298 73.4001 78.6598 73.6601C78.3998 73.9201 78.0298 74.0601 77.5498 74.0601C77.1798 74.0601 76.8298 73.9801 76.5098 73.8101V73.3101C76.8798 73.4301 77.1998 73.4901 77.5098 73.4901C77.8198 73.4901 78.0198 73.4201 78.1498 73.2801C78.2898 73.1501 78.3598 72.9201 78.3598 72.6101V72.3501ZM77.6898 72.1401C77.9298 72.1401 78.1498 72.0601 78.3598 71.9001V70.3701C78.1598 70.2301 77.9298 70.1601 77.6898 70.1601C77.4498 70.1601 77.2698 70.2401 77.1498 70.4101C77.0298 70.5701 76.9698 70.8101 76.9698 71.1401C76.9698 71.8201 77.2098 72.1501 77.6798 72.1501L77.6898 72.1401Z" fill="#242E3D"></path>
  </g>
  <defs>
    <clipPath id="clip0_8184_45">
      <rect width="90" height="90" fill="white"></rect>
    </clipPath>
  </defs>
</svg>
