<?xml version="1.0" encoding="UTF-8"?>
<svg xmlns="http://www.w3.org/2000/svg" width="90" height="90" viewBox="0 0 90 90" fill="none">
  <g clip-path="url(#clip0_8175_131)">
    <path d="M61.2 0H0V61.5L28.5 90H90V28.8L61.2 0Z" fill="white"></path>
    <path d="M60.45 1.88L88.13 29.56V88.13H29.25L1.88 60.75V1.88H60.45ZM61.2 0H0V61.5L28.5 90H90V28.8L61.2 0Z" fill="#242E3D"></path>
    <path d="M14.6202 50.7001V54.0001H12.7402V45.0001H16.1902C17.0102 44.9301 17.7602 45.2301 18.4402 45.7501C19.5602 46.9501 19.5602 48.7501 18.4402 49.9501C17.8402 50.4801 17.0102 50.7701 16.1902 50.7001H14.6202ZM14.6202 49.2701H15.9702C16.3502 49.2701 16.7202 49.2001 16.9402 48.8901C17.3902 48.2901 17.3902 47.3901 16.9402 46.7901C16.6402 46.5601 16.3402 46.4101 15.9702 46.4101H14.6202V49.2601V49.2701ZM27.1502 54.0001L26.5502 51.9801H23.4802L22.8802 54.0001H20.8602L24.0102 45.0001H26.1902L29.2602 54.0001H27.1602H27.1502ZM23.8502 50.5501H26.1002L24.9802 46.8001L23.8602 50.5501H23.8502ZM31.9502 54.0001V45.0001H35.4002C36.2302 44.9301 36.9802 45.2301 37.6502 45.7501C38.1802 46.2701 38.4802 47.0201 38.4802 47.7701C38.4802 48.3001 38.3302 48.7501 38.0302 49.2001C37.7302 49.6501 37.2802 49.9501 36.8302 50.1801L39.0802 54.0801H37.0602L35.1102 50.5601H33.8302V54.0101H31.9502V54.0001ZM33.8202 49.1201H35.1702C35.8502 49.1901 36.4402 48.7401 36.5202 48.0701V47.6901C36.6002 47.0101 36.1402 46.4201 35.5502 46.3401H33.9002V49.1101H33.8302L33.8202 49.1201ZM43.6502 54.0001V46.5701H40.8802V45.0001H48.3102V46.5701H45.5302V54.0001H43.6602H43.6502ZM53.0202 47.7701V54.0001H51.3002V45.0001H53.4002L57.0802 51.3001V45.0001H58.8102V54.0001H56.7102L53.0302 47.7701H53.0202ZM62.2502 54.0001V45.0001H68.1802V46.5001H64.2002V48.6001H67.4302V50.1001H64.2002V52.5001H68.1802V54.0001H62.2502ZM71.6202 54.0001V45.0001H75.0702C75.8902 44.9301 76.6402 45.2301 77.3202 45.7501C77.8502 46.2701 78.1402 47.0201 78.1402 47.7701C78.1402 48.3001 77.9902 48.7501 77.6902 49.2001C77.3902 49.6501 76.9402 49.9501 76.4902 50.1801L78.7402 54.0801H76.7202L74.7702 50.5601H73.5002V54.0101H71.6202V54.0001ZM73.5002 49.1201H74.8502C75.5202 49.1901 76.1202 48.7401 76.2002 48.0701V47.6901C76.2702 47.0101 75.8202 46.4201 75.2302 46.3401H73.5002V49.1101V49.1201Z" fill="#242E3D"></path>
    <path d="M20.0202 20.6201C20.0202 20.9201 20.0202 21.2201 20.1702 21.5201C20.2402 21.7501 20.3902 22.0501 20.4702 22.2701C20.5402 22.3501 20.5402 22.4201 20.5402 22.5001C20.5402 22.6501 20.4702 22.7301 20.3102 22.8001L19.6302 23.2501H19.4102C19.2602 23.2501 19.1802 23.1801 19.1102 23.1001C18.9602 22.9501 18.8102 22.8001 18.7302 22.6501C18.6602 22.5001 18.5002 22.2701 18.4302 22.0501C17.6802 22.9501 16.6302 23.4801 15.4302 23.4801C14.6802 23.5501 13.9302 23.2501 13.4102 22.7301C12.8802 22.2001 12.6602 21.5301 12.6602 20.7801C12.6602 19.9601 12.9602 19.2101 13.5602 18.6801C14.2402 18.1501 15.1302 17.8601 16.0402 17.8601C16.4202 17.8601 16.7902 17.8601 17.0902 17.9301L18.2102 18.1501V17.4001C18.2802 16.8001 18.1302 16.2001 17.7602 15.7501C17.3102 15.3701 16.7102 15.2301 16.1102 15.3001C15.7302 15.3001 15.3602 15.3701 14.9902 15.4501C14.6202 15.5301 14.2402 15.6801 13.8702 15.8301C13.7202 15.9001 13.6402 15.9001 13.4902 15.9801H13.3402C13.1902 15.9801 13.1102 15.9001 13.1102 15.6801V15.1501C13.1102 15.0001 13.1102 14.9301 13.1802 14.7701C13.2502 14.7001 13.3302 14.6201 13.4802 14.5501C13.8602 14.3201 14.3002 14.1701 14.7502 14.1001C15.2802 13.9501 15.8002 13.8701 16.3302 13.8701C17.3002 13.8001 18.2102 14.1001 18.9502 14.6901C19.5502 15.3701 19.8502 16.2601 19.7702 17.1701L19.9902 20.6201H20.0202ZM15.9002 22.1201C16.2802 22.1201 16.5802 22.0501 16.9502 21.9701C17.3302 21.8201 17.6302 21.5901 17.9302 21.2901C18.0802 21.1401 18.2302 20.9101 18.3102 20.6101C18.3902 20.3101 18.3802 20.0101 18.3802 19.7101V19.2601C18.0802 19.1901 17.7802 19.1101 17.4802 19.1101C17.1802 19.0401 16.8802 19.0401 16.5002 19.0401C15.9802 18.9701 15.4502 19.1101 15.0002 19.4201C14.4002 20.0201 14.3202 20.9901 14.8502 21.6701C15.1502 22.0501 15.5202 22.1901 15.9002 22.1201ZM24.0702 23.2501C23.9202 23.2501 23.7702 23.2501 23.6902 23.1801C23.6202 23.1101 23.5402 22.9501 23.4702 22.8001L21.0702 14.9201C21.0002 14.7701 21.0002 14.6201 21.0002 14.5401C21.0002 14.3901 21.0702 14.3101 21.1502 14.3101H22.2002C22.3502 14.3101 22.5002 14.3101 22.5802 14.3801C22.6502 14.4601 22.7302 14.6101 22.8102 14.7601L24.5302 21.4401L26.1102 14.7601C26.1102 14.6101 26.1802 14.4601 26.3302 14.3801C26.4802 14.3101 26.6302 14.3101 26.7102 14.3101H27.5302C27.6802 14.3101 27.8302 14.3101 27.9102 14.3801C27.9902 14.4601 28.0602 14.6101 28.1402 14.7601L29.7102 21.5901L31.4402 14.7601C31.4402 14.6101 31.5102 14.4601 31.6602 14.3801C31.8102 14.3101 31.8902 14.3101 32.0402 14.3101H33.0202C33.1702 14.3101 33.2502 14.3801 33.2502 14.4601V14.6801C33.2502 14.7501 33.1702 14.8301 33.1702 14.9101L30.7702 22.7101C30.7702 22.8601 30.7002 23.0101 30.5402 23.0901C30.4702 23.2401 30.3202 23.2401 30.1602 23.2401H29.2602C29.1102 23.2401 28.9602 23.2401 28.8802 23.1701C28.8102 23.0201 28.7302 22.9401 28.6502 22.7901L27.0802 16.2601L25.5102 22.7901C25.5102 22.9401 25.4402 23.0901 25.2802 23.1701C25.2102 23.2401 25.0602 23.2401 24.9802 23.2401H24.0802L24.0702 23.2501ZM37.1202 23.5501C36.6002 23.5501 36.0702 23.4801 35.5502 23.4001C35.1702 23.3301 34.7302 23.1801 34.3502 23.0201C34.1202 22.9501 33.9702 22.7201 33.9702 22.4201V21.8901C33.9702 21.6701 34.0402 21.5901 34.1902 21.5901H34.3402C34.4102 21.5901 34.4902 21.6601 34.5602 21.6601C34.9402 21.8101 35.3102 21.9601 35.6802 22.0401C36.0602 22.1101 36.5002 22.1901 36.8802 22.1901C37.4102 22.1901 37.9302 22.1201 38.3802 21.8101C38.6802 21.5901 38.9102 21.2101 38.9102 20.8401C38.9102 20.5401 38.8402 20.3101 38.6102 20.1601C38.3102 19.9301 37.9302 19.7101 37.5602 19.6301L36.0602 19.1801C35.4602 19.0301 34.8602 18.6601 34.4102 18.1301C34.1102 17.6801 33.8802 17.1601 33.8802 16.6301C33.8802 16.2501 33.9602 15.8801 34.1802 15.5101C34.3302 15.2101 34.6302 14.9101 34.9302 14.6901C35.2302 14.4701 35.6102 14.2401 35.9802 14.1701C36.4302 14.0201 36.8002 14.0201 37.2502 14.0201C37.4802 14.0201 37.7002 14.0201 37.9302 14.1001C38.1602 14.1001 38.3802 14.1701 38.6102 14.2501C38.8402 14.3301 38.9902 14.3201 39.2102 14.4001C39.3602 14.4801 39.5102 14.4801 39.6602 14.5501C39.8102 14.6201 39.8802 14.7001 39.9602 14.7701C40.0302 14.8501 40.0302 15.0001 40.0302 15.1501V15.6001C40.0302 15.8201 39.9602 15.9001 39.8002 15.9001C39.6402 15.9001 39.5002 15.8301 39.4202 15.7501C38.8202 15.4501 38.1502 15.3701 37.4702 15.3701C37.0202 15.3701 36.5702 15.4401 36.1202 15.6701C35.8202 15.8201 35.6002 16.1901 35.6702 16.5701C35.6702 16.8701 35.7402 17.1001 35.9702 17.3201C36.2702 17.6201 36.6502 17.7701 37.0902 17.8501L38.5202 18.3001C39.1202 18.4501 39.6402 18.8201 40.0902 19.2701C40.3902 19.6501 40.5402 20.1701 40.5402 20.7001C40.5402 21.0801 40.4702 21.5201 40.2402 21.9001C40.0902 22.2801 39.7902 22.5801 39.4902 22.8001C39.1902 23.0201 38.7402 23.2501 38.3702 23.4001C38.0702 23.4801 37.5502 23.5501 37.1002 23.5501H37.1202Z" fill="#242E3D"></path>
    <path d="M39.0001 28.4299C35.6201 30.8999 30.8201 32.1799 26.6201 32.1799C21.0701 32.1799 15.6701 30.1499 11.5501 26.3999C11.2501 26.0999 11.5501 25.7299 11.9301 25.9499C16.5001 28.6499 21.7501 29.9999 27.0001 29.9999C30.9801 29.9999 34.8801 29.1799 38.5501 27.6799C39.0701 27.4499 39.6001 28.0599 39.0001 28.4299ZM39.5201 30.6799C39.3701 30.9799 39.6701 31.1299 39.9701 30.8999C41.7701 29.3999 42.2201 26.2499 41.8501 25.7999C41.4701 25.3499 38.3201 24.9799 36.4501 26.3199C36.1501 26.5499 36.2301 26.8499 36.5201 26.7699C37.5701 26.6199 39.9701 26.3199 40.4201 26.9199C40.8701 27.5199 39.8901 29.6899 39.5201 30.6699V30.6799Z" fill="#FF9900"></path>
    <path d="M23.1709 59.8599C22.7509 59.6999 22.4409 59.5099 22.2409 59.2899C22.0509 59.0599 21.9609 58.7899 21.9609 58.4599C21.9609 57.9899 22.1209 57.6199 22.4509 57.3499C22.7809 57.0799 23.2209 56.9399 23.7709 56.9399C24.2309 56.9399 24.7009 57.0299 25.1809 57.2099V57.9399C24.6909 57.7899 24.2509 57.7199 23.8409 57.7199C23.1809 57.7199 22.8409 57.9399 22.8409 58.3899C22.8409 58.5599 22.9009 58.6999 23.0209 58.8099C23.1409 58.9199 23.3609 59.0299 23.6609 59.1399L24.3009 59.3699C24.7109 59.5299 25.0109 59.7099 25.2009 59.9299C25.3909 60.1499 25.4809 60.4299 25.4809 60.7699C25.4809 61.2699 25.3009 61.6699 24.9409 61.9499C24.5909 62.2399 24.1009 62.3799 23.4909 62.3799C23.2209 62.3799 22.9609 62.3499 22.6909 62.2999C22.4209 62.2499 22.1909 62.1699 22.0009 62.0799V61.3499C22.2409 61.4299 22.5009 61.4899 22.7609 61.5399C23.0309 61.5899 23.2809 61.6099 23.4909 61.6099C23.8409 61.6099 24.1109 61.5499 24.3009 61.4199C24.4909 61.2899 24.5909 61.0999 24.5909 60.8699C24.5909 60.6999 24.5309 60.5599 24.4109 60.4499C24.3009 60.3399 24.1009 60.2399 23.8109 60.1199L23.1409 59.8599H23.1709Z" fill="#242E3D"></path>
    <path d="M27.0407 60.5501C27.0607 60.9301 27.1607 61.2101 27.3607 61.3901C27.5607 61.5601 27.8707 61.6501 28.2707 61.6501C28.6507 61.6501 29.0507 61.5901 29.4807 61.4501V62.0701C29.3107 62.1601 29.1007 62.2301 28.8707 62.2801C28.6407 62.3401 28.3907 62.3601 28.1407 62.3601C27.5207 62.3601 27.0407 62.1901 26.7107 61.8601C26.3807 61.5201 26.2207 61.0201 26.2207 60.3601C26.2207 59.7001 26.3807 59.2201 26.7007 58.8601C27.0207 58.5001 27.4707 58.3201 28.0407 58.3201C28.5207 58.3201 28.9007 58.4501 29.1607 58.7201C29.4207 58.9801 29.5607 59.3601 29.5607 59.8601C29.5607 60.1201 29.5407 60.3501 29.4907 60.5501H27.0407ZM27.9907 58.9701C27.7307 58.9701 27.5007 59.0601 27.3307 59.2401C27.1607 59.4201 27.0607 59.6601 27.0407 59.9701H28.7707V59.9101C28.7707 59.6101 28.7007 59.3701 28.5707 59.2201C28.4307 59.0601 28.2407 58.9701 27.9807 58.9701H27.9907Z" fill="#242E3D"></path>
    <path d="M33.1007 62.1001C32.8007 62.2601 32.4507 62.3301 32.0507 62.3301C31.4607 62.3301 31.0107 62.1601 30.6907 61.8301C30.3807 61.4901 30.2207 61.0101 30.2207 60.3801C30.2207 59.7501 30.3807 59.2401 30.7107 58.8901C31.0407 58.5301 31.4907 58.3501 32.0807 58.3501C32.4407 58.3501 32.7707 58.4301 33.0807 58.5701V59.2001C32.7407 59.1001 32.4607 59.0501 32.2307 59.0501C31.8507 59.0501 31.5807 59.1501 31.4007 59.3501C31.2207 59.5501 31.1307 59.8701 31.1307 60.3001V60.3901C31.1307 60.8101 31.2207 61.1301 31.4007 61.3301C31.5807 61.5301 31.8607 61.6201 32.2307 61.6201C32.4907 61.6201 32.7907 61.5701 33.1107 61.4701V62.0901L33.1007 62.1001Z" fill="#242E3D"></path>
    <path d="M36.4591 62.2499L36.3691 61.8299C35.8991 62.1899 35.4391 62.3699 34.9791 62.3699C34.6191 62.3699 34.3391 62.2699 34.1491 62.0799C33.9591 61.8799 33.8691 61.5999 33.8691 61.2199V58.4299H34.7491V60.9499C34.7491 61.1999 34.7991 61.3799 34.8991 61.4999C34.9991 61.6099 35.1591 61.6599 35.3791 61.6599C35.6891 61.6599 35.9991 61.5599 36.3191 61.3499V58.4199H37.2091V62.2399H36.4691L36.4591 62.2499Z" fill="#242E3D"></path>
    <path d="M38.2793 62.2499V58.4299H39.0193L39.1393 58.9999C39.3393 58.7799 39.5293 58.6299 39.6993 58.5399C39.8693 58.4499 40.0593 58.3999 40.2693 58.3999C40.3593 58.3999 40.4593 58.3999 40.5693 58.4199V59.2299C40.4293 59.2099 40.2793 59.1999 40.1393 59.1999C39.7693 59.1999 39.4493 59.2899 39.1693 59.4799V62.2499H38.2793Z" fill="#242E3D"></path>
    <path d="M41.2094 62.25V58.43H42.0894V62.25H41.2094ZM41.6394 57.8C41.4794 57.8 41.3494 57.76 41.2494 57.67C41.1594 57.58 41.1094 57.45 41.1094 57.29C41.1094 57.13 41.1594 57 41.2494 56.91C41.3394 56.82 41.4694 56.77 41.6394 56.77C41.8094 56.77 41.9394 56.82 42.0394 56.91C42.1294 57 42.1794 57.12 42.1794 57.29C42.1794 57.46 42.1294 57.57 42.0394 57.67C41.9494 57.76 41.8094 57.8 41.6394 57.8Z" fill="#242E3D"></path>
    <path d="M45.3998 62.1599C45.1398 62.2499 44.8598 62.2999 44.5698 62.2999C44.1698 62.2999 43.8698 62.2099 43.6798 62.0299C43.4898 61.8399 43.3998 61.5599 43.3998 61.1699V59.1099H42.7598V58.5499L43.4398 58.4599L43.5698 57.3899H44.2998V58.4299H45.3898V59.1099H44.2998V61.1399C44.2998 61.2999 44.3398 61.4299 44.4198 61.4999C44.5098 61.5699 44.6498 61.6099 44.8398 61.6099C45.0498 61.6099 45.2398 61.5999 45.4098 61.5499V62.1599H45.3998Z" fill="#242E3D"></path>
    <path d="M47.1191 62.2999L45.6191 58.4299H46.5691L47.5391 61.4499L48.5191 58.4299H49.4191L47.7091 62.8599C47.5691 63.2299 47.3991 63.4899 47.2091 63.6499C47.0191 63.8099 46.7791 63.8999 46.4691 63.8999C46.2491 63.8999 46.0391 63.8599 45.8491 63.7799V63.1599C45.9691 63.1899 46.0891 63.2099 46.2291 63.2099C46.4391 63.2099 46.6091 63.1699 46.7091 63.0899C46.8191 63.0099 46.9191 62.8399 47.0291 62.5599L47.1191 62.2999Z" fill="#242E3D"></path>
    <path d="M53.0694 59.8599C52.6494 59.6999 52.3394 59.5099 52.1394 59.2899C51.9494 59.0599 51.8594 58.7899 51.8594 58.4599C51.8594 57.9899 52.0194 57.6199 52.3494 57.3499C52.6794 57.0799 53.1194 56.9399 53.6694 56.9399C54.1294 56.9399 54.5994 57.0299 55.0794 57.2099V57.9399C54.5894 57.7899 54.1494 57.7199 53.7394 57.7199C53.0794 57.7199 52.7394 57.9399 52.7394 58.3899C52.7394 58.5599 52.7994 58.6999 52.9194 58.8099C53.0394 58.9199 53.2594 59.0299 53.5594 59.1399L54.1994 59.3699C54.6094 59.5299 54.9094 59.7099 55.0994 59.9299C55.2894 60.1499 55.3794 60.4299 55.3794 60.7699C55.3794 61.2699 55.1994 61.6699 54.8394 61.9499C54.4894 62.2399 53.9994 62.3799 53.3894 62.3799C53.1194 62.3799 52.8594 62.3499 52.5894 62.2999C52.3294 62.2499 52.0894 62.1699 51.8994 62.0799V61.3499C52.1394 61.4299 52.3994 61.4899 52.6594 61.5399C52.9294 61.5899 53.1794 61.6099 53.3894 61.6099C53.7394 61.6099 54.0094 61.5499 54.1994 61.4199C54.3894 61.2899 54.4894 61.0999 54.4894 60.8699C54.4894 60.6999 54.4294 60.5599 54.3094 60.4499C54.1994 60.3399 53.9994 60.2399 53.7094 60.1199L53.0394 59.8599H53.0694Z" fill="#242E3D"></path>
    <path d="M56.9391 60.5501C56.9491 60.9301 57.0591 61.2101 57.2591 61.3901C57.4591 61.5601 57.7691 61.6501 58.1691 61.6501C58.5491 61.6501 58.9491 61.5901 59.3791 61.4501V62.0701C59.2091 62.1601 58.9991 62.2301 58.7691 62.2801C58.5391 62.3401 58.2891 62.3601 58.0391 62.3601C57.4191 62.3601 56.9391 62.1901 56.6091 61.8601C56.2791 61.5201 56.1191 61.0201 56.1191 60.3601C56.1191 59.7001 56.2791 59.2201 56.5991 58.8601C56.9191 58.5001 57.3591 58.3201 57.9391 58.3201C58.4191 58.3201 58.7991 58.4501 59.0591 58.7201C59.3191 58.9801 59.4591 59.3601 59.4591 59.8601C59.4591 60.1201 59.4391 60.3501 59.3891 60.5501H56.9391ZM57.8891 58.9701C57.6191 58.9701 57.3991 59.0601 57.2291 59.2401C57.0591 59.4201 56.9591 59.6601 56.9391 59.9701H58.6691V59.9101C58.6691 59.6101 58.5991 59.3701 58.4691 59.2201C58.3291 59.0601 58.1391 58.9701 57.8791 58.9701H57.8891Z" fill="#242E3D"></path>
    <path d="M60.3105 62.2499V58.4299H61.0505L61.1705 58.9999C61.3705 58.7799 61.5605 58.6299 61.7305 58.5399C61.9005 58.4499 62.0905 58.3999 62.3005 58.3999C62.3905 58.3999 62.4905 58.3999 62.6005 58.4199V59.2299C62.4605 59.2099 62.3105 59.1999 62.1705 59.1999C61.8005 59.1999 61.4805 59.2899 61.2005 59.4799V62.2499H60.3105Z" fill="#242E3D"></path>
    <path d="M64.2009 62.2499L62.7109 58.4299H63.6609L64.6309 61.4499L65.6109 58.4299H66.5109L65.0509 62.2499H64.1909H64.2009Z" fill="#242E3D"></path>
    <path d="M67.1506 62.25V58.43H68.0305V62.25H67.1506ZM67.5905 57.8C67.4305 57.8 67.3005 57.76 67.2005 57.67C67.1105 57.58 67.0605 57.45 67.0605 57.29C67.0605 57.13 67.1105 57 67.2005 56.91C67.2905 56.82 67.4205 56.77 67.5905 56.77C67.7605 56.77 67.9005 56.82 67.9905 56.91C68.0805 57 68.1305 57.12 68.1305 57.29C68.1305 57.46 68.0805 57.57 67.9905 57.67C67.9005 57.76 67.7605 57.8 67.5905 57.8Z" fill="#242E3D"></path>
    <path d="M71.8195 62.1001C71.5195 62.2601 71.1694 62.3301 70.7694 62.3301C70.1794 62.3301 69.7295 62.1601 69.4095 61.8301C69.0995 61.4901 68.9395 61.0101 68.9395 60.3801C68.9395 59.7501 69.0995 59.2401 69.4295 58.8901C69.7595 58.5301 70.2195 58.3501 70.7995 58.3501C71.1495 58.3501 71.4895 58.4301 71.7995 58.5701V59.2001C71.4595 59.1001 71.1795 59.0501 70.9395 59.0501C70.5595 59.0501 70.2895 59.1501 70.1095 59.3501C69.9295 59.5501 69.8394 59.8701 69.8394 60.3001V60.3901C69.8394 60.8101 69.9295 61.1301 70.1095 61.3301C70.2895 61.5301 70.5695 61.6201 70.9395 61.6201C71.1995 61.6201 71.4995 61.5701 71.8195 61.4701V62.0901V62.1001Z" fill="#242E3D"></path>
    <path d="M73.2399 60.5501C73.2599 60.9301 73.3599 61.2101 73.5599 61.3901C73.7599 61.5601 74.0699 61.6501 74.4699 61.6501C74.8499 61.6501 75.2499 61.5901 75.6799 61.4501V62.0701C75.5099 62.1601 75.2999 62.2301 75.0699 62.2801C74.8399 62.3401 74.5899 62.3601 74.3399 62.3601C73.7099 62.3601 73.2399 62.1901 72.9099 61.8601C72.5799 61.5201 72.4199 61.0201 72.4199 60.3601C72.4199 59.7001 72.5799 59.2201 72.8999 58.8601C73.2199 58.5001 73.6699 58.3201 74.2399 58.3201C74.7299 58.3201 75.0999 58.4501 75.3599 58.7201C75.6199 58.9801 75.7599 59.3601 75.7599 59.8601C75.7599 60.1201 75.7399 60.3501 75.6899 60.5501H73.2399ZM74.1899 58.9701C73.9299 58.9701 73.6999 59.0601 73.5299 59.2401C73.3599 59.4201 73.2599 59.6601 73.2399 59.9701H74.9799V59.9101C74.9799 59.6101 74.9099 59.3701 74.7799 59.2201C74.6399 59.0601 74.4499 58.9701 74.1899 58.9701Z" fill="#242E3D"></path>
    <path d="M78.3394 61.2201C78.3394 61.1101 78.3094 61.0201 78.2294 60.9501C78.1594 60.8801 78.0294 60.8101 77.8394 60.7401L77.2194 60.5101C76.6594 60.2901 76.3794 59.9401 76.3794 59.4601C76.3794 59.1101 76.5094 58.8401 76.7694 58.6401C77.0294 58.4401 77.3794 58.3401 77.8094 58.3401C78.2394 58.3401 78.6094 58.4201 78.9394 58.5801V59.2001C78.5594 59.0801 78.1994 59.0101 77.8694 59.0101C77.6394 59.0101 77.4794 59.0401 77.3694 59.1201C77.2594 59.1901 77.2094 59.2901 77.2094 59.4401C77.2094 59.5501 77.2494 59.6401 77.3294 59.7101C77.3994 59.7701 77.5494 59.8501 77.7394 59.9301L78.3294 60.1501C78.6294 60.2701 78.8394 60.4101 78.9694 60.5701C79.0994 60.7301 79.1694 60.9301 79.1694 61.1701C79.1694 61.5501 79.0294 61.8501 78.7594 62.0601C78.4894 62.2801 78.1194 62.3901 77.6394 62.3901C77.4094 62.3901 77.1794 62.3601 76.9494 62.3101C76.7294 62.2601 76.5394 62.1901 76.3594 62.1001V61.4801C76.8394 61.6401 77.2594 61.7101 77.6394 61.7101C77.8894 61.7101 78.0694 61.6701 78.1794 61.5901C78.2994 61.5201 78.3594 61.4001 78.3594 61.2401L78.3394 61.2201Z" fill="#242E3D"></path>
    <path d="M40.5204 69.61C40.1204 69.77 39.6704 69.84 39.1704 69.84C38.3304 69.84 37.7104 69.63 37.2804 69.18C36.8604 68.73 36.6504 68.08 36.6504 67.22C36.6504 66.36 36.8704 65.66 37.3104 65.18C37.7504 64.7 38.3804 64.45 39.2004 64.45C39.6504 64.45 40.0704 64.52 40.4404 64.66V65.41C39.9504 65.3 39.5604 65.25 39.2804 65.25C38.7204 65.25 38.3004 65.4 38.0304 65.7C37.7504 66 37.6204 66.46 37.6204 67.07V67.25C37.6204 67.86 37.7504 68.31 38.0204 68.61C38.2904 68.9 38.7104 69.04 39.2704 69.04C39.5804 69.04 40.0004 68.98 40.5204 68.85V69.6V69.61Z" fill="#242E3D"></path>
    <path d="M42.9496 69.8701C42.3696 69.8701 41.9196 69.6901 41.5896 69.3301C41.2596 68.9701 41.0996 68.4701 41.0996 67.8401C41.0996 67.2101 41.2596 66.7201 41.5896 66.3601C41.9196 66.0001 42.3696 65.8201 42.9496 65.8201C43.5296 65.8201 43.9696 66.0001 44.2996 66.3601C44.6296 66.7101 44.7896 67.2001 44.7896 67.8401C44.7896 68.4801 44.6296 68.9701 44.2996 69.3301C43.9796 69.6901 43.5296 69.8701 42.9496 69.8701ZM42.9496 69.1601C43.5796 69.1601 43.8996 68.7201 43.8996 67.8401C43.8996 66.9601 43.5796 66.5201 42.9496 66.5201C42.3196 66.5201 41.9996 66.9601 41.9996 67.8401C41.9996 68.7201 42.3196 69.1601 42.9496 69.1601Z" fill="#242E3D"></path>
    <path d="M50.5095 69.7501V67.1601C50.5095 66.9301 50.4595 66.7701 50.3695 66.6701C50.2795 66.5701 50.1395 66.5201 49.9395 66.5201C49.7795 66.5201 49.6095 66.5501 49.4395 66.6001C49.2695 66.6501 49.1195 66.7201 48.9895 66.8001V69.7501H48.0995V67.1601C48.0995 66.9301 48.0495 66.7701 47.9595 66.6701C47.8695 66.5701 47.7295 66.5201 47.5295 66.5201C47.3795 66.5201 47.2195 66.5401 47.0495 66.5901C46.8895 66.6401 46.7295 66.7101 46.5795 66.8001V69.7501H45.6895V65.9301H46.4295L46.5095 66.3201C46.7595 66.1501 46.9895 66.0201 47.2095 65.9401C47.4395 65.8601 47.6595 65.8201 47.8895 65.8201C48.3495 65.8201 48.6695 65.9901 48.8495 66.3401C49.3495 66.0001 49.8295 65.8201 50.2795 65.8201C50.6395 65.8201 50.9195 65.9201 51.1095 66.1101C51.3095 66.3001 51.3995 66.5701 51.3995 66.9401V69.7401H50.5095V69.7501Z" fill="#242E3D"></path>
    <path d="M52.4609 71.3001V65.9301H53.2009L53.2809 66.3201C53.4509 66.1601 53.6409 66.0301 53.8509 65.9601C54.0709 65.8701 54.2909 65.8301 54.5209 65.8301C54.9909 65.8301 55.3809 66.0101 55.6609 66.3701C55.9409 66.7201 56.0809 67.2001 56.0809 67.7901C56.0809 68.2001 56.0109 68.5501 55.8809 68.8601C55.7609 69.1601 55.5709 69.4101 55.3209 69.5901C55.0809 69.7601 54.7909 69.8501 54.4609 69.8501C54.2509 69.8501 54.0509 69.8101 53.8509 69.7401C53.6509 69.6601 53.4909 69.5601 53.3509 69.4301V71.3101H52.4609V71.3001ZM54.2409 66.5201C53.9209 66.5201 53.6209 66.6101 53.3509 66.8001V68.8501C53.6209 69.0501 53.9209 69.1401 54.2409 69.1401C54.5609 69.1401 54.8009 69.0301 54.9409 68.8101C55.1009 68.6001 55.1709 68.2601 55.1709 67.8101C55.1709 67.3601 55.0909 67.0501 54.9409 66.8401C54.7909 66.6301 54.5609 66.5101 54.2409 66.5101V66.5201Z" fill="#242E3D"></path>
    <path d="M57.5798 68.0501C57.5998 68.4301 57.6998 68.7101 57.8998 68.8901C58.0998 69.0601 58.4098 69.1501 58.8098 69.1501C59.1898 69.1501 59.5898 69.0901 60.0198 68.9501V69.5701C59.8498 69.6601 59.6398 69.7301 59.4098 69.7801C59.1798 69.8301 58.9298 69.8601 58.6798 69.8601C58.0598 69.8601 57.5798 69.6901 57.2498 69.3601C56.9198 69.0201 56.7598 68.5201 56.7598 67.8601C56.7598 67.2001 56.9198 66.7201 57.2398 66.3601C57.5598 66.0001 58.0098 65.8201 58.5798 65.8201C59.0598 65.8201 59.4398 65.9501 59.6998 66.2201C59.9598 66.4801 60.0998 66.8601 60.0998 67.3601C60.0998 67.6201 60.0798 67.8501 60.0298 68.0501H57.5798ZM58.5298 66.4701C58.2698 66.4701 58.0398 66.5601 57.8698 66.7401C57.6998 66.9201 57.5998 67.1601 57.5798 67.4701H59.3098V67.4101C59.3098 67.1101 59.2398 66.8701 59.1098 66.7201C58.9698 66.5601 58.7798 66.4701 58.5198 66.4701H58.5298Z" fill="#242E3D"></path>
    <path d="M63.1595 69.6599C62.8995 69.7499 62.6195 69.7999 62.3295 69.7999C61.9295 69.7999 61.6295 69.7099 61.4395 69.5299C61.2495 69.3399 61.1595 69.0599 61.1595 68.6699V66.6099H60.5195V66.0499L61.1995 65.9599L61.3295 64.8899H62.0595V65.9299H63.1495V66.6099H62.0595V68.6399C62.0595 68.7999 62.0995 68.9299 62.1795 68.9999C62.2695 69.0699 62.4095 69.1099 62.5995 69.1099C62.8095 69.1099 62.9995 69.0999 63.1695 69.0499V69.6599H63.1595Z" fill="#242E3D"></path>
    <path d="M64.4997 68.0501C64.5197 68.4301 64.6197 68.7101 64.8197 68.8901C65.0197 69.0601 65.3297 69.1501 65.7297 69.1501C66.1097 69.1501 66.5097 69.0901 66.9397 68.9501V69.5701C66.7697 69.6601 66.5597 69.7301 66.3297 69.7801C66.0997 69.8301 65.8497 69.8601 65.5997 69.8601C64.9797 69.8601 64.4997 69.6901 64.1697 69.3601C63.8397 69.0201 63.6797 68.5201 63.6797 67.8601C63.6797 67.2001 63.8397 66.7201 64.1597 66.3601C64.4797 66.0001 64.9297 65.8201 65.4997 65.8201C65.9797 65.8201 66.3597 65.9501 66.6197 66.2201C66.8797 66.4801 67.0197 66.8601 67.0197 67.3601C67.0197 67.6201 66.9997 67.8501 66.9497 68.0501H64.4997ZM65.4497 66.4701C65.1897 66.4701 64.9597 66.5601 64.7897 66.7401C64.6197 66.9201 64.5197 67.1601 64.4997 67.4701H66.2297V67.4101C66.2297 67.1101 66.1597 66.8701 66.0297 66.7201C65.8897 66.5601 65.6997 66.4701 65.4397 66.4701H65.4497Z" fill="#242E3D"></path>
    <path d="M70.4109 69.7501V67.2201C70.4109 66.9801 70.3609 66.8001 70.2609 66.6901C70.1609 66.5701 69.9909 66.5201 69.7809 66.5201C69.4509 66.5201 69.1209 66.6301 68.7709 66.8501V69.7601H67.8809V65.9401H68.6209L68.7009 66.3601C69.1709 66.0101 69.6709 65.8301 70.1809 65.8301C70.5509 65.8301 70.8209 65.9301 71.0109 66.1201C71.2009 66.3101 71.2909 66.5801 71.2909 66.9501V69.7501H70.4109Z" fill="#242E3D"></path>
    <path d="M75.0304 69.6001C74.7304 69.7601 74.3804 69.8301 73.9804 69.8301C73.3904 69.8301 72.9404 69.6601 72.6204 69.3301C72.3104 68.9901 72.1504 68.5101 72.1504 67.8801C72.1504 67.2501 72.3104 66.7401 72.6404 66.3901C72.9704 66.0301 73.4204 65.8501 74.0104 65.8501C74.3604 65.8501 74.7004 65.9301 75.0104 66.0701V66.7001C74.6704 66.6001 74.3904 66.5501 74.1504 66.5501C73.7704 66.5501 73.5004 66.6501 73.3204 66.8501C73.1404 67.0501 73.0504 67.3701 73.0504 67.8001V67.8901C73.0504 68.3101 73.1404 68.6301 73.3204 68.8301C73.5004 69.0301 73.7804 69.1201 74.1504 69.1201C74.4104 69.1201 74.7104 69.0701 75.0304 68.9701V69.5901V69.6001Z" fill="#242E3D"></path>
    <path d="M76.8301 69.7999L75.3301 65.9299H76.2801L77.2501 68.9499L78.2301 65.9299H79.1301L77.4201 70.3599C77.2801 70.7299 77.1101 70.9899 76.9201 71.1499C76.7301 71.3099 76.4901 71.3999 76.1801 71.3999C75.9601 71.3999 75.7501 71.3599 75.5601 71.2799V70.6599C75.6801 70.6899 75.8001 70.7099 75.9401 70.7099C76.1501 70.7099 76.3201 70.6699 76.4201 70.5899C76.5301 70.5099 76.6301 70.3399 76.7401 70.0599L76.8301 69.7999Z" fill="#242E3D"></path>
  </g>
  <defs>
    <clipPath id="clip0_8175_131">
      <rect width="90" height="90" fill="white"></rect>
    </clipPath>
  </defs>
</svg>
